<svg width="114" height="51" viewBox="0 0 114 51" fill="none" xmlns="http://www.w3.org/2000/svg">
<path d="M13.0927 0.970178C6.2043 1.70148 1.47441 5.78264 0.212315 12.0695C-0.0707715 13.5085 -0.0707715 17.0471 0.212315 18.4979C1.16773 23.2868 4.04577 26.6838 8.4336 28.1818C11.4768 29.2198 15.7113 29.3496 18.9668 28.5003C20.7714 28.0403 20.972 27.9459 20.9012 27.5685C20.8658 27.3915 20.6653 26.2946 20.453 25.1033C20.0873 23.0627 20.0519 22.9447 19.816 23.0155C17.6457 23.6642 17.3862 23.6996 15.0979 23.7114C13.0573 23.7232 12.7743 23.6996 11.9722 23.4519C9.14132 22.5555 7.33665 20.6918 6.61714 17.9082C6.16892 16.1978 6.16892 13.8152 6.60534 12.0695C7.32485 9.26224 9.448 7.1273 12.2671 6.3724C14.0363 5.90059 16.9852 6.06573 19.0257 6.74985C19.5093 6.91498 19.9458 6.99755 19.9929 6.95037C20.0755 6.85601 21.2904 2.3974 21.2904 2.19688C21.2904 2.05534 19.3206 1.43019 18.1057 1.19429C17.1385 1.00556 14.0717 0.864021 13.0927 0.970178Z" fill="#13122F"/>
<path d="M69.6745 12.1285L69.7099 23.3694L69.9694 24.1361C70.1228 24.5607 70.4294 25.2448 70.6771 25.6459C71.1725 26.4833 72.7059 28.0167 73.6967 28.6772L74.3573 29.1137L76.3507 27.25L78.3441 25.3864L77.3886 24.4781C76.8579 23.9709 76.2799 23.3104 76.103 22.9801C75.4306 21.7416 75.4306 21.7888 75.4306 10.89V0.899413H72.5408H69.6392L69.6745 12.1285Z" fill="#13122F"/>
<path d="M83.534 8.17708L81.5642 10.0289L82.1185 10.5125C82.956 11.2203 83.5222 11.8572 83.8642 12.4823C84.5012 13.6501 84.513 13.8034 84.513 24.6315V34.6338H87.4028H90.3044L90.2691 23.393C90.2219 10.9961 90.2691 11.6803 89.467 10.0879C89.0188 9.21506 87.5797 7.68168 86.471 6.90319C86.0228 6.58472 85.6217 6.32522 85.5863 6.32522C85.551 6.33702 84.6309 7.16269 83.534 8.17708Z" fill="#13122F"/>
<path d="M93.5953 8.80223V11.2792H96.898H100.201V22.8976V34.5159H103.385H106.57V22.8976V11.2792H109.873H113.175V8.80223V6.32523H103.385H93.5953V8.80223Z" fill="#13122F"/>
<path d="M30.8446 9.49814C27.3178 10.253 24.6993 12.6475 23.7792 15.9973C23.0833 18.4979 23.272 21.6001 24.2392 23.735C25.3952 26.2946 27.5655 28.0403 30.4671 28.7598C31.7764 29.0783 34.3478 29.1136 35.6335 28.8306C39.4787 27.9695 42.168 25.2802 42.9229 21.5647C43.4891 18.8046 43.0763 15.7496 41.8496 13.6383C41.2952 12.6947 39.75 11.1259 38.83 10.5833C38.0161 10.0997 36.8602 9.67507 35.7632 9.43917C34.6309 9.20326 32.1185 9.23865 30.8446 9.49814ZM34.6191 13.8742C35.9873 14.5701 36.8012 16.245 36.9309 18.6513C37.0489 20.8688 36.4001 23.0155 35.3032 23.9473C34.0057 25.0679 32.0713 24.9499 30.9272 23.676C29.9599 22.6145 29.5353 21.1872 29.5353 19.1349C29.5471 16.2686 30.5025 14.3696 32.2836 13.7326C33.0267 13.4731 33.9349 13.5203 34.6191 13.8742Z" fill="#13122F"/>
<path d="M53.9633 9.49815C50.0354 10.3474 47.4523 13.0249 46.6974 17.0117C46.4379 18.439 46.5205 21.1047 46.8743 22.3432C47.5467 24.6786 49.0446 26.6366 51.038 27.769C52.7602 28.7598 55.3315 29.2316 57.5844 28.9957C61.1112 28.6065 63.8241 26.8136 65.2395 23.9591C66.7257 20.9395 66.7139 17.1651 65.2041 14.1101C64.7441 13.1665 64.4846 12.8244 63.5882 11.9162C62.68 11.0197 62.3379 10.772 61.3943 10.3002C59.7429 9.49815 59.165 9.3802 56.9121 9.32122C55.3315 9.28584 54.7771 9.32122 53.9633 9.49815ZM57.8911 13.9686C58.5988 14.346 58.9762 14.7824 59.4127 15.7142C60.5332 18.0969 60.2265 21.9539 58.7993 23.5817C57.1716 25.4453 54.3879 24.9263 53.3027 22.5555C52.2765 20.3026 52.5007 16.7994 53.7981 14.9122C54.6946 13.6265 56.4992 13.2019 57.8911 13.9686Z" fill="#13122F"/>
<path d="M71.3023 39.175V40.2956H70.8305H70.3587V41.1802V42.0648H70.8305H71.3023V44.6598C71.3023 47.0542 71.3259 47.3019 71.55 47.7384C71.7269 48.0922 71.9274 48.2809 72.3285 48.4579C72.9536 48.741 74.1685 48.7763 74.9352 48.5522L75.4306 48.3989V47.5142C75.4306 46.665 75.4188 46.6414 75.1711 46.7122C74.546 46.9009 73.9562 46.9127 73.7203 46.7476C73.4962 46.5824 73.4844 46.4055 73.449 44.3177L73.4136 42.0648H74.4162H75.4306V41.1802V40.2956H74.428H73.4254V39.175V38.0545H72.3639H71.3023V39.175Z" fill="#13122F"/>
<path d="M107.868 38.4083C107.868 38.597 107.95 38.6442 108.28 38.6442H108.693V39.8237V41.0033H108.988H109.283V39.8237V38.6442H109.696C110.026 38.6442 110.109 38.597 110.109 38.4083C110.109 38.1842 110.026 38.1724 108.988 38.1724C107.95 38.1724 107.868 38.1842 107.868 38.4083Z" fill="#13122F"/>
<path d="M110.227 39.576C110.227 40.9089 110.238 41.0033 110.463 41.0033C110.651 41.0033 110.687 40.9089 110.722 40.3191L110.757 39.6468L111.005 40.2956C111.347 41.2038 111.642 41.2274 111.972 40.3899L112.22 39.7648V40.3781C112.232 40.9679 112.255 41.0033 112.527 41.0033H112.822V39.5878C112.822 38.1724 112.822 38.1724 112.538 38.1724C112.291 38.1724 112.208 38.2904 111.937 39.057C111.748 39.5524 111.571 39.9771 111.524 40.0007C111.477 40.0361 111.276 39.6468 111.088 39.1396C110.816 38.4201 110.698 38.2196 110.486 38.196C110.227 38.1606 110.227 38.1724 110.227 39.576Z" fill="#13122F"/>
<path d="M79.4528 40.2366C78.1081 40.614 77.2589 41.4515 76.7871 42.8669C76.4686 43.8577 76.563 45.686 76.9994 46.5706C78.002 48.623 80.8093 49.4015 83.0032 48.222C83.3099 48.0686 83.6755 47.8091 83.817 47.6558L84.0647 47.3845L83.5104 46.7358C83.1919 46.3819 82.8852 46.1224 82.8144 46.1578C82.7437 46.205 82.5314 46.3465 82.3308 46.4881C81.8944 46.8183 81.2929 47.0188 80.8093 47.0188C79.9718 47.007 79.0989 46.3465 78.9102 45.568L78.8277 45.2496H81.5642H84.3124L84.2535 44.07C84.2063 43.0556 84.1473 42.7961 83.817 42.1356C83.5929 41.6874 83.2391 41.192 82.956 40.9561C82.1067 40.2248 80.6087 39.9181 79.4528 40.2366ZM81.3282 42.171C81.6585 42.4187 81.977 42.9141 82.0831 43.3859L82.1539 43.7162H80.4554H78.7451L78.8512 43.3623C79.2287 42.0648 80.4082 41.4869 81.3282 42.171Z" fill="#13122F"/>
<path d="M89.7619 40.1658C89.3018 40.2838 88.8772 40.5079 88.5587 40.8027L88.2875 41.0386V40.673V40.2955H87.1669H86.0464V44.4239V48.5522H87.1669H88.2757L88.311 45.6742L88.3464 42.7843L88.6885 42.4305C89.1367 41.9705 89.7147 41.8525 90.2573 42.112C90.9414 42.4305 91.0004 42.749 91.0004 45.8393V48.5522H92.1209H93.2297L93.265 45.6624L93.3004 42.7726L93.6897 42.3951C94.0199 42.0648 94.1497 42.0059 94.6569 42.0059C95.1405 42.0059 95.2938 42.0648 95.5651 42.3361L95.8954 42.6546L95.9308 45.6034L95.9662 48.5522H97.0867H98.2073L98.1719 45.2731C98.1365 42.1946 98.1247 41.9823 97.877 41.534C97.3462 40.5432 96.6149 40.1422 95.3646 40.1304C94.3738 40.1304 93.8548 40.3073 93.2179 40.8617L92.805 41.2274L92.5219 40.9325C91.9204 40.2838 90.6465 39.9299 89.7619 40.1658Z" fill="#13122F"/>
<path d="M49.3631 40.2838C48.1836 40.6494 47.4759 41.5341 47.4759 42.6782C47.4759 43.7751 48.1246 44.4239 50.0473 45.2378C51.3683 45.7921 51.6632 46.0398 51.5571 46.4645C51.3683 47.2312 49.8585 47.1722 48.6318 46.3701C48.3841 46.205 48.1482 46.0752 48.101 46.0752C48.0421 46.0752 47.7826 46.4055 47.4995 46.7947C46.9097 47.6322 46.8979 47.6086 48.1364 48.2102C49.198 48.7292 50.5073 48.8825 51.5453 48.6348C52.8191 48.3163 53.5151 47.644 53.6802 46.5706C53.8453 45.4383 53.2674 44.5536 51.9345 43.9403C49.8114 42.9377 49.658 42.8433 49.6226 42.5131C49.5872 42.2536 49.658 42.1592 49.9647 42.0059C50.4483 41.7464 51.1324 41.8525 52.0289 42.2889L52.6894 42.631L53.1494 41.9115C53.3971 41.5223 53.6094 41.1684 53.6094 41.1212C53.6094 40.9915 52.7484 40.5668 52.0878 40.3663C51.4273 40.1658 49.8939 40.1304 49.3631 40.2838Z" fill="#13122F"/>
<path d="M64.8267 40.3309C64.2605 40.5432 63.5174 41.2038 63.3287 41.6638C63.2343 41.8761 63.1636 42.3361 63.1636 42.6664C63.1636 43.8341 63.8359 44.5182 65.7585 45.2613C66.7611 45.6506 67.2919 46.028 67.2919 46.3583C67.2919 46.4527 67.1504 46.6414 66.9734 46.7829C66.478 47.1722 65.5344 47.0542 64.4964 46.4881L63.7062 46.0516L63.4938 46.3347C63.3759 46.4881 63.14 46.8065 62.9631 47.066C62.6446 47.5142 62.6446 47.5142 62.8687 47.6912C63.3877 48.0922 64.6262 48.5876 65.4047 48.7056C67.634 49.0476 69.2971 47.9861 69.2971 46.205C69.2971 44.9665 68.7191 44.3649 66.7139 43.5392C65.4637 43.0203 65.0744 42.69 65.2867 42.3007C65.5934 41.7346 66.5016 41.7228 67.6694 42.3007L68.3417 42.631L68.8253 41.8761C69.0848 41.4633 69.2971 41.1094 69.2971 41.0858C69.2971 41.0622 68.9079 40.8617 68.4478 40.6376C67.6812 40.2838 67.457 40.2366 66.4073 40.213C65.6642 40.1894 65.0862 40.2366 64.8267 40.3309Z" fill="#13122F"/>
<path d="M101.852 40.2838C100.672 40.6494 99.9648 41.5341 99.9648 42.6782C99.9648 43.7751 100.613 44.4239 102.536 45.2378C103.857 45.7921 104.152 46.0398 104.046 46.4645C103.857 47.2312 102.347 47.1722 101.121 46.3701C100.873 46.205 100.637 46.0752 100.59 46.0752C100.531 46.0752 100.271 46.4055 99.9883 46.7947C99.3986 47.6322 99.3868 47.6086 100.625 48.2102C101.687 48.7292 102.996 48.8825 104.034 48.6348C105.308 48.3163 106.004 47.644 106.169 46.5706C106.334 45.4383 105.756 44.5536 104.423 43.9403C102.3 42.9377 102.147 42.8433 102.111 42.5131C102.076 42.2536 102.147 42.1592 102.454 42.0059C102.937 41.7464 103.621 41.8525 104.518 42.2889L105.178 42.631L105.638 41.9115C105.886 41.5223 106.098 41.1684 106.098 41.1212C106.098 40.9915 105.237 40.5668 104.577 40.3663C103.916 40.1658 102.383 40.1304 101.852 40.2838Z" fill="#13122F"/>
<path d="M54.4351 40.3663C54.4351 40.4017 55.1074 42.1356 55.9213 44.2234C56.747 46.3111 57.4547 48.1394 57.5136 48.2927C57.5962 48.505 57.5608 48.623 57.3131 48.8707C57.0065 49.1774 56.7234 49.1892 55.8387 48.9651C55.5674 48.8943 55.5203 48.9415 55.2372 49.6728L54.9187 50.4631L55.3551 50.6518C55.591 50.7579 56.2162 50.8641 56.7352 50.8877C57.5372 50.9231 57.7613 50.8877 58.2096 50.6518C58.5045 50.4984 58.8819 50.1682 59.0706 49.8969C59.3537 49.4958 62.6918 40.732 62.6918 40.4017C62.6918 40.3309 62.22 40.2956 61.5712 40.3191L60.4389 40.3545L59.6014 42.8905C59.1532 44.2823 58.7404 45.4619 58.6932 45.5091C58.6578 45.5562 58.1978 44.4003 57.6906 42.9495L56.7588 40.2956H55.6028C54.9541 40.2956 54.4351 40.3309 54.4351 40.3663Z" fill="#13122F"/>
</svg>
