<?xml version="1.0" encoding="utf-8"?>
<!-- Generator: Adobe Illustrator 21.1.0, SVG Export Plug-In . SVG Version: 6.00 Build 0)  -->
<svg version="1.1" id="圖層_1" xmlns="http://www.w3.org/2000/svg" xmlns:xlink="http://www.w3.org/1999/xlink" x="0px" y="0px"
	 viewBox="0 0 337 263.1" style="enable-background:new 0 0 337 263.1;" xml:space="preserve">
<path d="M20.2,98.2C19.7,80.1,26,63.1,41.7,59.6c10.2-2.3,20.4,6.4,22.6,19.3L50,81.6c-1-5-3.9-8.1-8.1-7
	c-6.5,1.8-8.9,10.6-8.6,21.7c0.2,10.9,2.8,18,9.2,17.6c4.2-0.3,8.1-4.6,8.7-10.6c0,0,11.2-0.9,13.7-1.1c0,13.5-10.2,25.8-22.3,25.8
	C29.2,127.9,20.7,115.9,20.2,98.2z M119.1,82.2c-1.2-26.3,5.3-50.8,22.1-57.1c17.5-6.6,30,17.3,30.6,47.5
	c0.6,36.7-10.5,55.3-27.2,55.3C129.6,127.9,120.3,109.1,119.1,82.2z M135.7,80.5c0.5,16.1,3.7,27.8,9.1,27.3
	c5.9-0.6,9-14.7,8.5-33.2c-0.5-19-4.4-31.2-10.4-27.7C138.7,49.4,135.1,62.3,135.7,80.5z M67.4,89.5c-0.8-22.9,6.4-42,20.1-46.6
	c15.4-5.1,26.5,14.2,27,39c0.5,28.3-8.1,46-24.6,46C76.4,127.9,68.2,112,67.4,89.5z M81.6,87.1c0.4,13.9,3.5,24.1,8.6,23.6
	c5.5-0.5,8.8-12,8.4-27c-0.4-15.3-4.2-25.7-9.8-23.9C85.2,61,81.2,71.4,81.6,87.1z M197.5,26.5l-18.9-6.3v106.6h43.1v-19.2
	l-24.2-1.7V26.5z M307.7,101.9l8.3,25h-13.4l-7.4-23.6l-5.3-0.6v24.2h-15.7V51.6l25.2,8.4c10.2,3.4,16.1,14,16.1,25.3
	C315.5,95.6,311.4,100.3,307.7,101.9z M303.3,82.7c0-4.8-2.5-8.3-6-9.2l-7.4-1.9v16.3l7.4,1.4C300.9,89.9,303.3,87.5,303.3,82.7z
	 M178.6,157l13.2-0.9l0,81.1l18-5.9v-76.4l11.8-1v-19.1h-43V157z M227.1,225.6l41.6-13.7v-15.9l-24.4,6.3v-16.8l21.5-4.2V165
	l-21.5,2.7v-15.2l24.4-1.7v-16.1h-41.6V225.6z M307.8,174.2l8.2,22.1l-13.4,4.4l-7.3-21.1l-5.3,1.1v24.1l-15.7,5.2v-75.3h25.3
	c10.2,0,16.2,8.7,16.2,20.1C315.6,165.3,311.5,171.3,307.8,174.2z M303.4,156.3c0-4.8-2.5-7.5-6.1-7.3l-7.4,0.5V166l7.4-1.1
	C300.9,164.4,303.4,161.2,303.4,156.3z M104.2,134.8l17.8,94l-16.6-5.7l-2.2-14.1l-14.9-4.2l-1.9,11.9L72.7,212L87,134.8H104.2z
	 M100.6,190.6l-5.3-31.8l-4.9,29.5L100.6,190.6z M43.2,166.5L37,134.8H21.7v59.8l10.7,3.7v-37.8l8.1,40.5l4.6,1.6l10.4-38.7v42.3
	l14,4.8v-76.1H51.3L43.2,166.5z M337,101.9v64c0,32.3-5,41.7-34.9,54.6c-10.4,4.4-26.1,12.2-66.2,27.2
	c-17.7,6.6-44.2,15.5-67.4,15.5c-23.1,0-49.6-8.8-67.4-15.5c-40.1-15-55.8-22.7-66.1-27.2C5,207.5,0,198.1,0,165.8v-64
	c0-34.8,8.4-48.6,37.9-62c6.1-2.7,13-6.2,51.3-20C133,3.9,154.9,0,168.5,0c13.6,0,35.6,3.9,79.4,19.9c38.2,13.9,45.2,17.3,51.3,20
	C328.6,53.2,337,67.1,337,101.9z M327.6,97.6c0-31.7-14.4-42.4-35.1-50.9c-7.3-3-10.3-5-46.9-18.4C215.5,17.2,187.9,9,168.5,9
	c-19.3,0-46.9,8.3-77.1,19.3C54.8,41.7,51.8,43.7,44.5,46.7c-20.6,8.5-35,19.2-35,50.9v70.7c0,24.5,5.7,33.9,26.2,43
	c17.1,7.5,18.9,8.3,54.3,22.1c22.4,8.7,52.2,20.1,78.5,20.1c26.4,0,56.2-11.5,78.6-20.1c35.5-13.7,37.2-14.6,54.4-22.1
	c20.5-9.1,26.2-18.4,26.2-43V97.6z M139.7,163.1c-0.3-5.3,3.6-8.9,7.5-8.5c2.9,0.3,6.6,3.3,6.1,10.6l18.8,1.8
	c1-18.8-7-32.9-24.2-33.2c-13.3-0.2-26.2,11.2-25.8,28.3c0.7,30.7,34.5,25.8,34.7,51.2c0,3.8-2.1,7.7-6.1,7.3
	c-5-0.9-8.7-4.4-9.1-14.8l-17.6-4.3c-0.2,16,5.7,33,22.8,36.6c16.7,3.6,32-9.7,28.3-32.6C170.9,178.9,140.5,177.3,139.7,163.1z
	 M227.1,126.9h41.6v-16.1l-24.4-1.6V92.7l20.3,2.7V79.1L244.3,75V59.6l24.4,6.4V49.7l-41.6-13.6L227.1,126.9z"/>
</svg>
