<?xml version="1.0" encoding="utf-8"?>
<!-- Generator: Adobe Illustrator 21.1.0, SVG Export Plug-In . SVG Version: 6.00 Build 0)  -->
<svg version="1.1" id="圖層_1" xmlns="http://www.w3.org/2000/svg" xmlns:xlink="http://www.w3.org/1999/xlink" x="0px" y="0px"
	 viewBox="0 0 224.8 203.3" style="enable-background:new 0 0 224.8 203.3;" xml:space="preserve">
<style type="text/css">
	.st0{fill:#0075D7;}
</style>
<g>
	<path class="st0" d="M178.1,144.1c8.3-13.3,12.6-27.3,12.7-41.6c0.1-13.3,0.1-26.8,0.1-39.9c0-5.5,0-11,0-16.5c0-2.2-1-3.6-3.4-4.6
		c-15.8-6.9-31.5-13.8-46.2-20.3c-6.8-3-13.6-6-20.3-9l-8.3-3.7h-2.4l-8.2,3.6c-6.3,2.8-12.6,5.6-18.9,8.4c-16,7-32,14-47.9,21
		C33,42.5,32,44,32,46.4c0,7,0,13.9,0,20.9c0,13.6,0,27.6,0.1,41.4c0.1,11.7,4.8,22,9.4,30.4c7.1,13,17.3,24.7,31.4,36
		c10.4,8.2,22.1,15.7,37,23.3h2.3c12.6-6.5,22.6-12.5,31.5-18.9C159.1,168.1,170.1,156.9,178.1,144.1z M112.8,187.7
		c-0.5,0.3-1.2,0.4-1.8,0.4c-0.6,0-1.2-0.1-1.7-0.4c-18.7-9.9-32.7-20-44.1-31.9c-12.1-12.5-19.6-25.3-23-39.1
		c-1.1-4.7-1.3-9.6-1.4-14.4v-1.1c-0.2-4.9-0.1-10-0.1-14.8c0-2.1,0-4.2,0-6.3v-1.5h0.1v-5.5c0-7,0-14.3,0-21.4c0-2,0.8-3.2,2.7-4
		C65.1,38.3,87.1,28.6,109,19c1.8-0.8,3.3-0.8,5.1,0c20.8,9.2,42.8,18.8,65.3,28.6c1.4,0.6,2.8,1.5,2.7,4c0,5.9,0,11.7,0,17.6
		c0,11.5,0,23.4-0.3,35.1c-0.4,15.5-6.3,30-18,44.3c-10,12.2-23,22.8-40.9,33.5C119.9,183.9,116.7,185.6,112.8,187.7z"/>
	<g>
		<path class="st0" d="M106.6,110.6c5.3-5.3,10.4-10.4,15.4-15.5c4.4-4.4,8.8-8.8,13.2-13.2c2-2,5-1.3,5.8,1.3
			c0.3,1.1,0.1,2.2-0.6,3.1c-0.2,0.3-0.5,0.6-0.8,0.8c-10,10-20,20-30.1,30.1c-2.1,2.1-3.8,2.1-5.9,0c-5-5-10-10.1-15.1-15.1
			c-1.1-1.1-1.4-2.3-0.9-3.7c0.4-1.4,1.5-2.1,2.9-2.3c1.2-0.1,2.2,0.4,3,1.3c4,4,8,8,12,12C106,109.7,106.3,110.1,106.6,110.6z"/>
		<path class="st0" d="M106.7,120.2c-1.3,0-2.7-0.7-4-2l-4.2-4.2c-3.6-3.6-7.3-7.3-10.9-10.9c-1.5-1.4-1.9-3.3-1.3-5.2
			c0.6-1.9,2.1-3.1,4.2-3.3c1.6-0.2,2.9,0.4,4.2,1.7c2.2,2.3,4.5,4.5,6.8,6.8c1.8,1.8,3.5,3.5,5.2,5.3l0,0l17.1-17.2
			c3.5-3.5,6.9-6.9,10.4-10.4c1.3-1.3,3.2-1.9,4.9-1.5c1.6,0.4,2.9,1.7,3.4,3.3c0.5,1.6,0.2,3.1-0.8,4.4c-0.3,0.3-0.5,0.6-0.8,0.9
			l-0.1,0.1l-30.1,30.1C109.4,119.5,108.1,120.2,106.7,120.2L106.7,120.2z M91,97.6c-0.1,0-0.1,0-0.2,0c-1.1,0.1-1.5,0.8-1.6,1.2
			c-0.3,0.8-0.1,1.5,0.6,2.1c3.6,3.6,7.3,7.3,10.9,10.9l4.2,4.2c0.7,0.7,1.4,1.1,1.9,1.1l0,0c0.5,0,1.1-0.4,1.9-1.1l30.2-30.2
			c0.2-0.2,0.4-0.4,0.5-0.6c0.4-0.6,0.5-1.1,0.3-1.7c-0.2-0.7-0.7-1.2-1.3-1.3c-0.7-0.2-1.4,0.1-2,0.7c-3.5,3.4-6.9,6.9-10.4,10.4
			l-19.4,19.5l-1.1-1.3c-0.1-0.2-0.3-0.3-0.4-0.5c-0.2-0.2-0.3-0.4-0.5-0.6c-1.7-1.8-3.5-3.5-5.2-5.3c-2.3-2.3-4.5-4.5-6.8-6.8
			C91.9,97.8,91.4,97.6,91,97.6z"/>
	</g>
	<g>
		<path class="st0" d="M135.1,51.7c-0.4-1.8-0.9-3.6-1.3-5.4c-0.3-1.7,0.9-3,2.6-2.8c1.1,0.1,1.7,0.7,2,1.7c1,3.7,1.9,7.4,2.8,11.1
			c0.3,1.1-0.6,2.3-1.7,2.6c-3.6,0.9-7.2,1.9-10.8,2.7c-1.4,0.3-2.7-0.5-2.9-1.8c-0.3-1.3,0.5-2.5,2-2.9c1.3-0.4,2.7-0.7,4.1-1.3
			c-1.8-0.6-3.5-1.4-5.3-1.9c-27.2-8-55.2,8-61.8,35.6c-3.5,14.5-0.7,28.1,7.9,40.3c0.3,0.4,0.5,0.7,0.8,1.1
			c0.9,1.3,0.8,2.6-0.4,3.5c-1.1,0.8-2.5,0.6-3.5-0.7c-2.5-3.2-4.5-6.7-6.2-10.4c-3.3-7.3-4.9-14.9-4.9-22.9
			c0-23,15.8-44.2,37.7-50.9c13-4,25.8-3.3,38.3,2.2c0.1,0.1,0.3,0.1,0.4,0.2C134.9,51.7,134.9,51.7,135.1,51.7z"/>
		<path class="st0" d="M71.6,136.1c-1.2,0-2.4-0.6-3.3-1.7c-2.5-3.3-4.7-6.9-6.4-10.6c-3.4-7.4-5-15.3-5-23.6
			c0-23.5,16.3-45.5,38.7-52.3c12.6-3.9,25.2-3.4,37.4,1.4c-0.2-0.9-0.4-1.8-0.6-2.7c-0.2-1.3,0.1-2.5,0.9-3.4s2-1.3,3.3-1.2
			c1.7,0.2,2.9,1.2,3.3,2.8c0.9,3.3,1.9,7.2,2.8,11.1c0.4,1.8-0.9,3.9-2.8,4.4c-4.3,1.1-7.7,2-10.9,2.7c-1.1,0.2-2.1,0.1-3-0.5
			s-1.5-1.4-1.7-2.5c-0.4-2,0.8-3.9,2.9-4.6c-0.4-0.1-0.8-0.2-1.1-0.4c-12.8-3.8-26.2-2.2-37.6,4.4C77.1,66,69.2,76.7,66.1,89.6
			c-3.4,14-0.8,27.1,7.7,39.1c0.1,0.2,0.2,0.3,0.3,0.5c0.2,0.2,0.3,0.4,0.5,0.7c1.3,2,1.1,4.2-0.7,5.5
			C73.2,135.9,72.4,136.1,71.6,136.1z M112.4,48.3c-5.3,0-10.6,0.8-15.9,2.4C75.3,57.2,59.9,78,59.9,100.2c0,7.8,1.6,15.3,4.8,22.3
			c1.6,3.5,3.6,6.9,6.1,10.1c0.2,0.3,0.8,0.8,1.4,0.4c0.2-0.2,0.7-0.5,0.1-1.5c-0.1-0.2-0.3-0.4-0.4-0.6c-0.1-0.2-0.3-0.3-0.4-0.5
			c-9-12.7-11.7-26.7-8.2-41.5c3.3-13.7,11.7-25,23.7-32c12.1-7,26.3-8.7,39.9-4.7c1.3,0.4,2.5,0.8,3.8,1.3c0.6,0.2,1.1,0.4,1.7,0.6
			l3.5,1.3l-3.4,1.5c-1.4,0.6-2.7,1-3.9,1.3l-0.4,0.1c-0.5,0.1-1,0.5-0.9,1.1c0.1,0.2,0.2,0.5,0.4,0.6c0.2,0.1,0.5,0.2,0.7,0.1
			c3.1-0.7,6.6-1.6,10.8-2.7c0.4-0.1,0.7-0.6,0.6-0.8c-1-3.9-1.9-7.8-2.8-11c-0.1-0.4-0.3-0.6-0.7-0.6c-0.3,0-0.6,0.1-0.8,0.2
			c-0.2,0.2-0.2,0.5-0.2,0.8c0.2,1.2,0.5,2.4,0.8,3.6c0.1,0.6,0.3,1.1,0.4,1.7l0.4,1.8h-2c-0.1,0-0.4,0-0.7-0.1
			c-0.2-0.1-0.3-0.1-0.5-0.2C126.8,49.8,119.7,48.3,112.4,48.3z"/>
	</g>
	<g>
		<path class="st0" d="M90.9,150.2c0.5,1.7,0.9,3.3,1.3,4.9c0.5,1.7-0.1,3-1.5,3.4s-2.6-0.4-3.1-2.1c-0.9-3.3-1.9-6.6-2.8-9.9
			c-0.4-1.6,0.2-2.9,1.7-3.3c3.4-0.9,6.7-1.9,10.1-2.8c1.7-0.5,3,0.1,3.4,1.5s-0.4,2.6-2,3.1c-1.3,0.4-2.5,0.7-3.8,1.1
			c0,0.1,0,0.2-0.1,0.3c2.4,0.7,4.8,1.6,7.3,2.1c14.7,3.1,28.2,0.3,40.3-8.6c10.4-7.7,16.7-18.1,18.9-30.9c2.4-13.9-0.7-26.6-9-38
			c-0.5-0.7-0.8-1.6-0.8-2.5c0-1,0.8-1.6,1.7-1.8c1.1-0.2,1.9,0.1,2.6,1c2.9,3.9,5.4,8,7.2,12.5c3.3,8.2,4.6,16.8,3.7,25.6
			c-2.2,23.3-20.2,43.2-43,47.6c-10.8,2-21.2,1.1-31.4-3.1C91.4,150.4,91.2,150.4,90.9,150.2z"/>
		<path class="st0" d="M90,160.2c-0.6,0-1.2-0.1-1.7-0.4c-1-0.5-1.7-1.6-2.1-2.9c-0.9-3.3-1.9-6.6-2.8-9.9c-0.3-1.2-0.2-2.4,0.3-3.3
			c0.5-0.9,1.4-1.6,2.4-1.9c3.1-0.9,6.2-1.7,9.3-2.6l0.8-0.2c2.5-0.7,4.5,0.3,5.2,2.5c0.3,1,0.2,2-0.2,2.8c-0.5,0.9-1.3,1.6-2.4,2
			c1,0.3,2,0.6,3,0.8c14.4,3,27.6,0.2,39.1-8.3c10-7.4,16.2-17.5,18.3-29.9c2.3-13.4-0.7-25.7-8.8-36.8c-0.7-0.9-1.1-2.2-1.1-3.3
			c0-1.6,1.2-2.9,2.9-3.3c1.6-0.4,3.1,0.2,4.1,1.6c3.1,4,5.6,8.4,7.4,12.9c3.4,8.4,4.7,17.3,3.8,26.3c-2.2,23.7-20.8,44.3-44.2,48.7
			c-10.4,2-20.6,1.2-30.2-2.4l0.6,2.1c0.7,2.5-0.3,4.6-2.5,5.2C90.8,160.1,90.4,160.2,90,160.2z M97.7,141.8c-0.2,0-0.4,0-0.7,0.1
			l-0.8,0.2c-3.1,0.8-6.2,1.7-9.3,2.6c-0.3,0.1-0.5,0.2-0.6,0.4s-0.2,0.6,0,1c0.9,3.3,1.9,6.6,2.8,9.9c0.2,0.5,0.4,0.9,0.7,1.1
			c0.1,0.1,0.3,0.1,0.6,0c0.5-0.2,0.7-0.7,0.5-1.6l-2.1-7.6l3,1c0.2,0.1,0.4,0.1,0.5,0.2c9.7,4,20,5,30.5,3
			c22.1-4.2,39.7-23.6,41.8-46.2c0.8-8.6-0.4-16.9-3.6-24.9c-1.7-4.3-4.1-8.4-7-12.2c-0.4-0.5-0.7-0.5-1-0.5
			c-0.3,0.1-0.6,0.3-0.6,0.4c0,0.5,0.2,1.1,0.5,1.6c8.6,11.8,11.7,24.9,9.3,39.1c-2.2,13.2-8.8,23.9-19.5,31.8
			c-12.2,9.1-26.2,12.1-41.5,8.9c-1.8-0.4-3.5-0.9-5.2-1.5c-0.8-0.2-1.5-0.5-2.3-0.7l-1.3-0.4l0.5-2.5l2.1-0.6
			c0.9-0.2,1.7-0.5,2.6-0.7c0.5-0.2,0.9-0.4,1-0.7c0.1-0.1,0.1-0.3,0-0.5C98.5,142.2,98.4,141.8,97.7,141.8z"/>
	</g>
</g>
</svg>
