<?xml version="1.0" encoding="utf-8"?>
<!-- Generator: Adobe Illustrator 21.1.0, SVG Export Plug-In . SVG Version: 6.00 Build 0)  -->
<svg version="1.1" id="圖層_1" xmlns="http://www.w3.org/2000/svg" xmlns:xlink="http://www.w3.org/1999/xlink" x="0px" y="0px"
	 viewBox="0 0 224.8 203.3" style="enable-background:new 0 0 224.8 203.3;" xml:space="preserve">
<style type="text/css">
	.st0{fill:#0075D7;}
</style>
<g>
	<path class="st0" d="M85.6,122.6c0,0.2,0,0.5,0,0.7s-0.1,0.4-0.1,0.6c-0.5,4-2.5,7-6.2,8.7c-1,0.5-2.1,0.7-3.2,1
		c-15.1,0-30.2,0-45.3,0c-0.1,0-0.2-0.1-0.3-0.1c-3.7-0.6-6.4-2.6-8-6c-0.6-1.3-0.8-2.8-1.1-4.2c0-0.2,0-0.5,0-0.7
		c0-0.4,0.1-0.9,0.1-1.3c0.2-3.7,1-7.3,2.4-10.7c2.8-6.5,7.2-11.6,13.3-15.2c1.5-0.9,3.1-1.6,4.7-2.4c-0.3-0.3-0.7-0.6-1-0.9
		c-0.8-0.7-1.6-1.4-2.2-2.2C34.4,84.6,33,78.5,34.9,72c2-6.8,6.5-11.2,13.3-13.3c1.2-0.4,2.5-0.5,3.8-0.8c1,0,2,0,3,0
		c1.5,0.3,3,0.5,4.5,1c7.4,2.6,11.9,7.8,13.2,15.5c1,6.2-0.8,11.6-5,16.2c-0.8,0.9-1.7,1.6-2.6,2.4c0.2,0.1,0.4,0.2,0.6,0.3
		c5.6,2.3,10.3,6,13.9,10.9c3.1,4.2,5,8.9,5.7,14.1C85.4,119.7,85.5,121.2,85.6,122.6z M53.5,127.9c7,0,13.9,0,20.9,0
		c3.1,0,5.3-2,5.3-4.9c0-3.5-0.6-7-2.1-10.2c-4.1-9-11-14.4-20.8-15.7c-7-1-13.5,0.8-19.2,5.2c-6.7,5.2-10.2,12.2-10.3,20.7
		c0,0.7,0.2,1.5,0.5,2.2c1,2,2.7,2.7,4.8,2.7C39.6,127.8,46.6,127.9,53.5,127.9z M53.5,90.9c7.5,0,13.6-6.1,13.6-13.6
		S61,63.7,53.5,63.7c-7.4,0-13.6,6.1-13.6,13.6S46,90.9,53.5,90.9z"/>
	<path class="st0" d="M76.4,135.7h-46l-0.4-0.2h-0.1c-4.3-0.8-7.5-3.2-9.3-7.1c-0.5-1.1-0.7-2.2-1-3.3c-0.1-0.4-0.2-0.8-0.3-1.3
		l-0.1-0.2v-1.2l0.1-0.5c0-0.2,0.1-0.5,0.1-0.7c0.2-3.9,1.1-7.7,2.6-11.4c3-6.9,7.7-12.3,14.1-16.1c0.7-0.4,1.5-0.8,2.2-1.2
		c-0.4-0.4-0.9-0.9-1.3-1.4c-4.8-6-6.2-12.6-4.2-19.7c2.1-7.4,7.1-12.3,14.6-14.6c1-0.3,1.9-0.5,2.9-0.6c0.4-0.1,0.8-0.1,1.2-0.2
		h0.4h3.4c0.4,0.1,0.9,0.2,1.4,0.2c1.1,0.2,2.2,0.4,3.4,0.8c8.1,2.9,13.2,8.8,14.5,17.1c1.1,6.7-0.8,12.7-5.5,17.9
		c-0.2,0.2-0.3,0.3-0.5,0.5c5,2.5,9.2,6,12.5,10.6c3.3,4.5,5.3,9.5,6.1,15c0.1,1,0.2,2,0.3,3c0,0.4,0.1,0.9,0.1,1.3v0.2l-0.1,1.3
		c0,0.1,0,0.2,0,0.3c-0.5,4.7-3.1,8.3-7.3,10.3c-0.8,0.4-1.7,0.6-2.5,0.9c-0.3,0.1-0.6,0.2-0.9,0.3H76.4z M30.2,135.5L30.2,135.5
		L30.2,135.5z M31.3,131.7h44.6c0.3-0.1,0.5-0.1,0.8-0.2c0.7-0.2,1.3-0.4,1.8-0.6c3-1.4,4.7-3.8,5-7.1c0-0.2,0.1-0.4,0.1-0.6v-0.4
		c0-0.4-0.1-0.8-0.1-1.3c-0.1-1-0.2-1.9-0.3-2.8c-0.7-4.8-2.5-9.2-5.4-13.2c-3.3-4.6-7.7-8.1-13-10.2c-0.1-0.1-0.3-0.1-0.5-0.2
		l-2.9-1.3l2.2-2c0.3-0.3,0.6-0.5,0.9-0.8c0.6-0.5,1.1-1,1.6-1.5c3.9-4.2,5.4-9.1,4.5-14.5c-1.1-6.9-5.1-11.6-11.9-14
		c-0.8-0.3-1.7-0.4-2.7-0.6c-0.4-0.1-0.9-0.1-1.3-0.2h-2.6c-0.4,0.1-0.7,0.1-1.1,0.2c-0.8,0.1-1.6,0.3-2.4,0.5
		c-6.2,1.9-10.2,5.9-12,11.9C34.9,78.6,36.1,84,40,88.9c0.4,0.5,0.9,1,1.5,1.5c0.2,0.2,0.4,0.4,0.6,0.6s0.4,0.3,0.6,0.5l2.7,2.2
		l-2.7,1.4c-0.5,0.3-1.1,0.5-1.6,0.8c-1.1,0.5-2.1,1-3,1.6c-5.7,3.4-9.9,8.2-12.5,14.3c-1.4,3.2-2.1,6.5-2.3,10c0,0.3-0.1,0.7-0.1,1
		v0.7c0.1,0.4,0.2,0.8,0.3,1.2c0.2,0.9,0.4,1.8,0.7,2.4c1.3,2.7,3.4,4.3,6.5,4.9C31,131.6,31.2,131.6,31.3,131.7z M32.7,129.9
		c-3.9,0-5.8-2.1-6.6-3.9c-0.5-1-0.7-2.1-0.7-3.1c0.2-9.2,3.9-16.7,11.1-22.3c6.1-4.7,13.1-6.6,20.7-5.6
		c10.4,1.4,17.9,7.1,22.4,16.9c1.5,3.3,2.3,7,2.3,11s-3.1,6.9-7.3,6.9c-4.9,0-9.8,0-14.7,0H48C42.8,129.8,37.7,129.8,32.7,129.9
		L32.7,129.9z M53.1,98.8c-5.2,0-9.9,1.7-14.2,5c-6.2,4.8-9.4,11.3-9.5,19.2c0,0.4,0.1,0.9,0.3,1.3c0.4,0.8,1,1.6,3,1.6l0,0
		c5,0,10.1,0,15.1,0h11.9c4.9,0,9.8,0,14.7,0c2,0,3.3-1.1,3.3-2.9c0-3.4-0.6-6.6-1.9-9.4C72,105.2,65.5,100.3,56.5,99
		C55.4,98.8,54.2,98.8,53.1,98.8z M53.5,92.9L53.5,92.9c-4.2,0-8.1-1.6-11-4.6c-3-3-4.6-6.9-4.6-11c0-4.2,1.7-8.1,4.7-11
		s6.9-4.5,11-4.5c8.6,0.1,15.6,7.1,15.6,15.6C69.1,86,62.1,92.9,53.5,92.9z M53.5,65.7c-3,0-5.9,1.2-8.1,3.4
		c-2.2,2.2-3.5,5.1-3.5,8.2s1.2,6,3.4,8.2s5.1,3.4,8.2,3.4l0,0c6.4,0,11.6-5.2,11.6-11.6C65.1,71,59.9,65.8,53.5,65.7L53.5,65.7z"/>
</g>
<path class="st0" d="M106.2,8.8c6.3,0,11.3,5.1,11.3,11.3s-5.1,11.3-11.3,11.3s-11.3-5.1-11.3-11.3S100,8.8,106.2,8.8 M106.2,0.8
	c-10.7,0-19.3,8.7-19.3,19.3s8.7,19.3,19.3,19.3s19.3-8.7,19.3-19.3S116.9,0.8,106.2,0.8L106.2,0.8z"/>
<path class="st0" d="M154.1,36.3c6.3,0,11.3,5.1,11.3,11.3s-5,11.4-11.3,11.4c-6.3,0-11.3-5.1-11.3-11.3S147.9,36.3,154.1,36.3
	 M154.1,28.3c-10.7,0-19.3,8.7-19.3,19.3S143.5,67,154.1,67s19.3-8.7,19.3-19.3S164.8,28.3,154.1,28.3L154.1,28.3z"/>
<path class="st0" d="M188.9,84.3c6.3,0,11.3,5.1,11.3,11.3c0,6.3-5.1,11.3-11.3,11.3s-11.3-5.1-11.3-11.3
	C177.5,89.4,182.6,84.3,188.9,84.3 M188.9,76.3c-10.7,0-19.3,8.7-19.3,19.3c0,10.7,8.7,19.3,19.3,19.3s19.3-8.7,19.3-19.3
	S199.6,76.3,188.9,76.3L188.9,76.3z"/>
<path class="st0" d="M154.6,132.8c6.3,0,11.3,5.1,11.3,11.3c0,6.3-5.1,11.3-11.3,11.3c-6.3,0-11.3-5.1-11.3-11.3
	C143.2,137.9,148.3,132.8,154.6,132.8 M154.6,124.8c-10.7,0-19.3,8.7-19.3,19.3s8.7,19.3,19.3,19.3c10.7,0,19.3-8.7,19.3-19.3
	S165.3,124.8,154.6,124.8L154.6,124.8z"/>
<path class="st0" d="M107.3,172.6c6.3,0,11.3,5.1,11.3,11.3c0,6.3-5.1,11.3-11.3,11.3c-6.3,0-11.3-5.1-11.3-11.3
	C96,177.7,101.1,172.6,107.3,172.6 M107.3,164.6c-10.7,0-19.3,8.7-19.3,19.3c0,10.7,8.7,19.3,19.3,19.3c10.7,0,19.3-8.7,19.3-19.3
	C126.7,173.2,118,164.6,107.3,164.6L107.3,164.6z"/>
<rect x="58.5" y="46.1" transform="matrix(0.6606 -0.7507 0.7507 0.6606 -10.1309 77.7882)" class="st0" width="45" height="8"/>
<rect x="61.8" y="73.4" transform="matrix(0.8959 -0.4442 0.4442 0.8959 -23.6331 53.9202)" class="st0" width="82.9" height="8"/>
<rect x="80.7" y="100.2" transform="matrix(0.9948 -0.1022 0.1022 0.9948 -9.9833 13.5453)" class="st0" width="93" height="8"/>
<rect x="106.9" y="102.7" transform="matrix(0.191 -0.9816 0.9816 0.191 -39.1226 215.0287)" class="st0" width="8" height="57"/>
<rect x="80.2" y="126.1" transform="matrix(0.7657 -0.6432 0.6432 0.7657 -77.0214 89.4137)" class="st0" width="8" height="48.6"/>
</svg>
