<?xml version="1.0" encoding="utf-8"?>
<!-- Generator: Adobe Illustrator 21.1.0, SVG Export Plug-In . SVG Version: 6.00 Build 0)  -->
<svg version="1.1" id="圖層_1" xmlns="http://www.w3.org/2000/svg" xmlns:xlink="http://www.w3.org/1999/xlink" x="0px" y="0px"
	 viewBox="0 0 46.4 52.8" style="enable-background:new 0 0 46.4 52.8;" xml:space="preserve">
<style type="text/css">
	.st0{fill:none;stroke:#2EA0D5;stroke-width:1.5;stroke-miterlimit:10;}
</style>
<g>
	<path class="st0" d="M39.5,31.5H28.2c-1.6,0-2.8-1.3-2.8-2.8v-6.8c0-1.6,1.3-2.8,2.8-2.8h11.3c1.6,0,2.8,1.3,2.8,2.8v6.8
		C42.3,30.2,41.1,31.5,39.5,31.5z"/>
	<path class="st0" d="M19.7,27.8v-5c0-1.6-1.3-2.8-2.8-2.8H9.1c-1.6,0-2.8,1.3-2.8,2.8v5H19.7z"/>
	<line class="st0" x1="33.8" y1="31.7" x2="33.8" y2="36.1"/>
	<line class="st0" x1="27.5" y1="36.1" x2="40.5" y2="36.1"/>
	<path class="st0" d="M6.2,27.8l-2.7,5.6c0,0-0.5,1.2,1,1.2s16.8,0,16.8,0s1.1-0.2,0.7-1.1c-0.5-1-2.4-5.6-2.4-5.6"/>
	<path class="st0" d="M38.6,14.3c0,0-4.3-5.9-11.7-6.4c-5.9-0.4-11.3,1.8-14.7,4.6"/>
	<polyline class="st0" points="12.2,7.5 12.2,12.8 17.6,12.8 	"/>
	<path class="st0" d="M11.9,38.9c0,0,4.3,5.9,11.6,6.4c5.9,0.4,11-1.6,14.5-4.4"/>
	<polyline class="st0" points="38.2,45.8 38.3,40.5 32.9,40.4 	"/>
</g>
</svg>
