<?xml version="1.0" encoding="utf-8"?>
<!-- Generator: Adobe Illustrator 21.1.0, SVG Export Plug-In . SVG Version: 6.00 Build 0)  -->
<svg version="1.1" id="圖層_1" xmlns="http://www.w3.org/2000/svg" xmlns:xlink="http://www.w3.org/1999/xlink" x="0px" y="0px"
	 viewBox="0 0 46.4 52.8" style="enable-background:new 0 0 46.4 52.8;" xml:space="preserve">
<style type="text/css">
	.st0{fill:none;stroke:#2EA0D5;stroke-width:1.5;stroke-miterlimit:10;}
</style>
<g>
	<g>
		<path class="st0" d="M8.8,18.6c-1.6,0-2.8,1.3-2.8,2.8v9.8c0,1.6,1.3,2.8,2.8,2.8h4.5V18.6H8.8z"/>
		<path class="st0" d="M23.8,11.4l-10.5,7.2V34l10.5,7.2c1.5,1,3.5-0.1,3.5-1.9v-26C27.3,11.6,25.3,10.5,23.8,11.4z"/>
	</g>
	<path class="st0" d="M34.8,36.7c3.8-1.9,6.5-5.7,6.7-10.3c0.2-4.7-2.2-8.8-6-11"/>
	<path class="st0" d="M32.3,31.4c1.9-1,3.2-2.9,3.3-5.2c0.1-2.5-1.2-4.6-3.2-5.7"/>
</g>
</svg>
