<?xml version="1.0" encoding="utf-8"?>
<!-- Generator: Adobe Illustrator 21.1.0, SVG Export Plug-In . SVG Version: 6.00 Build 0)  -->
<svg version="1.1" id="圖層_1" xmlns="http://www.w3.org/2000/svg" xmlns:xlink="http://www.w3.org/1999/xlink" x="0px" y="0px"
	 viewBox="0 0 46.4 52.8" style="enable-background:new 0 0 46.4 52.8;" xml:space="preserve">
<style type="text/css">
	.st0{fill:none;stroke:#2EA0D5;stroke-width:1.5;stroke-miterlimit:10;}
</style>
<g>
	<path class="st0" d="M32.5,39H10.7c-0.8,0-1.4-0.6-1.4-1.4V11.7c0-0.8,0.6-1.4,1.4-1.4h21.8c0.8,0,1.4,0.6,1.4,1.4v25.9
		C33.9,38.4,33.3,39,32.5,39z"/>
	<path class="st0" d="M33.9,15.1h2.6c0.8,0,1.4,0.6,1.4,1.4v25.9c0,0.8-0.6,1.4-1.4,1.4H14.7c-0.8,0-1.4-0.6-1.4-1.4v-3.3"/>
	<line class="st0" x1="13.9" y1="16.1" x2="24.3" y2="16.1"/>
	<line class="st0" x1="13.9" y1="20.1" x2="27.3" y2="20.1"/>
	<line class="st0" x1="13.9" y1="23.9" x2="24.3" y2="23.9"/>
	<line class="st0" x1="13.9" y1="28" x2="27.3" y2="28"/>
</g>
</svg>
