<?xml version="1.0" encoding="utf-8"?>
<!-- Generator: Adobe Illustrator 21.1.0, SVG Export Plug-In . SVG Version: 6.00 Build 0)  -->
<svg version="1.1" id="圖層_1" xmlns="http://www.w3.org/2000/svg" xmlns:xlink="http://www.w3.org/1999/xlink" x="0px" y="0px"
	 viewBox="0 0 224.8 203.3" style="enable-background:new 0 0 224.8 203.3;" xml:space="preserve">
<style type="text/css">
	.st0{fill:#0075D7;}
</style>
<g>
	<path class="st0" d="M82.5,194.5c-0.6-0.2-1.3-0.3-1.8-0.5c-6.3-1.7-10.8-7.5-10.8-14.1c0-14.7-0.1-29.4,0-44.1
		c0-6.3,3.2-10.8,8.8-13.5c0.7-0.3,1-0.7,1-1.4c0-3.9-0.1-7.7,0.1-11.6c0.6-9.9,4.8-18.1,12.4-24.5c6.9-5.8,15-8.3,24-7.8
		c15.5,0.9,29,12.9,31.3,28.2c0.7,4.5,0.6,9.2,0.6,13.7c0,1.9,0.4,3,2.3,3.9c4.9,2.6,7.5,7,7.5,12.6c0.1,14.6,0,29.4,0,44
		c0,7.2-5,13.2-12.1,14.5c-0.2,0-0.4,0.1-0.5,0.2C124.4,194.5,103.5,194.5,82.5,194.5z M114,130.9c-9.6,0-19.4,0-29,0
		c-3.3,0-5.2,1.9-5.2,5.3c0,14.4,0,28.7,0,43.1c0,3.4,1.9,5.3,5.3,5.3c19.3,0,38.5,0,57.8,0c3.4,0,5.3-1.9,5.3-5.3
		c0-14.4,0-28.6,0-43c0-3.5-1.9-5.4-5.4-5.4C133.2,130.9,123.7,130.9,114,130.9z M138.4,121.1c0-2.1,0.1-4,0-6.1
		c-0.1-2.7,0.1-5.6-0.5-8.2c-2.6-13.5-15.3-22.1-28.9-19.5c-9.8,1.9-17.9,10.2-19.2,20.1c-0.5,3.7-0.3,7.4-0.4,11.1
		c0,0.8,0,1.5,0,2.4C105.8,121.1,122,121.1,138.4,121.1z"/>
	<path class="st0" d="M109.1,157.8c0-2.7-0.1-5.3,0-8c0.1-1.9,1.6-3.6,3.5-4c1.9-0.5,4,0.2,5.2,1.7c0.8,1.1,1.1,2.3,1.1,3.6
		c0,4.1,0,8.3,0,12.3c0,0.8,0,1.5-0.1,2.3c-0.2,1.9-1.3,3.4-3.1,4c-1.8,0.7-3.6,0.4-5-1c-1.2-1.1-1.6-2.4-1.6-3.9
		C109.1,162.4,109,160.1,109.1,157.8L109.1,157.8z"/>
	<path class="st0" d="M217.1,105.1c-3.1-18.9-13.8-31.5-32-37.4c-2.1-0.7-3.3-1.9-3.9-4.1c-4.1-14.6-12-26.7-23.6-35.8
		c-13.6-10.9-28.3-16.3-44.2-16.3c-6.1,0-12.2,0.8-18.6,2.4c-29.3,7.3-50.3,31.7-53.5,62c-0.3,2.4-1.3,3.7-3.8,4.1
		c-20,4.3-33.3,24-29.6,43.8c3.6,18.9,18.9,31.6,38.1,31.7c3.4,0,6.7,0,10.2,0v-9.7c-0.8,0-1.6,0-2.4,0H52c-3.2,0-6.5,0-9.6-0.4
		c-14.1-1.5-24.8-13.6-24.8-28C17.4,103.1,28,91,42.1,89.2l0.7-0.1c0.7-0.1,1.4-0.2,2.1-0.2c4.2-0.3,5.7-1.6,6.1-6
		c0.1-1,0.2-1.9,0.2-2.8c0.2-2.9,0.4-5.9,1.1-8.8C55.6,55.6,63.6,43,76.5,33.9c18.1-12.8,37.7-15.4,58-7.7
		c20.2,7.6,33.1,22.3,38.2,43.7c1,3.9,2.8,5.7,6.7,6.4c9.1,1.5,17.3,7.1,22.5,15.3c5.3,8.3,6.9,18.3,4.5,27.5
		c-4.2,16.1-17.8,26.6-34.6,26.7c-0.8,0-1.6,0-2.4,0v9.6c3-0.1,6.1-0.2,9.1-0.5c17.4-1.5,32.8-15,37.3-32.7c0.4-1.5,0.8-3.2,1.2-4.8
		c0.2-0.7,0.3-1.3,0.5-2V106C217.4,105.9,217.2,105.5,217.1,105.1z"/>
</g>
</svg>
