<?xml version="1.0" encoding="utf-8"?>
<!-- Generator: Adobe Illustrator 21.1.0, SVG Export Plug-In . SVG Version: 6.00 Build 0)  -->
<svg version="1.1" id="圖層_1" xmlns="http://www.w3.org/2000/svg" xmlns:xlink="http://www.w3.org/1999/xlink" x="0px" y="0px"
	 viewBox="0 0 311.7 253.7" style="enable-background:new 0 0 311.7 253.7;" xml:space="preserve">
<style type="text/css">
	.st0{fill:#0075D7;}
</style>
<g>
	<path class="st0" d="M62.9,29H37.2c-2.1,0-3.9,1.7-3.9,3.9v25.7c0,2.1,1.7,3.9,3.9,3.9h25.7c2.1,0,3.9-1.7,3.9-3.9V32.9
		C66.8,30.8,65.1,29,62.9,29z M59.1,54.8h-18v-18h18V54.8z"/>
	<path class="st0" d="M108.1,29H82.4c-2.1,0-3.9,1.7-3.9,3.9v25.7c0,2.1,1.7,3.9,3.9,3.9h25.7c2.1,0,3.9-1.7,3.9-3.9V32.9
		C112,30.8,110.3,29,108.1,29z M104.3,54.8h-18v-18h18V54.8z"/>
	<path class="st0" d="M153.3,29h-25.7c-2.1,0-3.9,1.7-3.9,3.9v25.7c0,2.1,1.7,3.9,3.9,3.9h25.7c2.1,0,3.9-1.7,3.9-3.9V32.9
		C157.2,30.8,155.5,29,153.3,29z M149.5,54.8h-18v-18h18V54.8z"/>
	<path class="st0" d="M304.8,176.1c-0.2-1.2-0.3-2.4-0.5-3.6c-2.9-17.8-11.9-32.4-26.6-43.4c-8.7-6.4-18.7-10.6-29.8-12.3
		c-7.4-1.1-14.9-1-22.4,0.3c-12.4,2.2-23.4,7.5-32.8,15.7c-3.3,2.9-6.3,6.1-9,9.6l-0.3-2c-0.3-1.7-0.6-3.3-0.8-5
		c-0.4-2-1.4-3.7-2.9-4.7c-1.4-1-3.1-1.3-4.9-1c-3.6,0.7-5.9,4.1-5.2,7.9c0.6,3.6,1.2,7.2,1.8,10.8l1.1,6.3c0.4,2.1,0.7,4.3,1.1,6.4
		c0.4,2.2,1.3,3.9,2.8,4.9c1.5,1.1,3.4,1.4,5.6,1c8-1.5,16.1-3.1,24.1-4.6c5.5-1,6.8-4.9,6.3-7.9c-0.3-1.8-1.2-3.2-2.6-4.2
		c-1.6-1.1-3.6-1.4-6-1c-3.4,0.6-6.8,1.3-10.2,1.9c8.4-11.4,19.4-18.4,32.7-20.9c20.5-3.9,38.1,1.8,52.3,17.1
		c7.1,7.6,11.4,16.9,12.8,27.4c2.1,15-1.7,28.6-11.1,40.4c-8.6,10.7-19.8,17.3-33.2,19.5c-16,2.7-30.6-1-43.6-11
		c-5.2-4-9.6-9.2-13.1-15.3c-0.5-0.8-1-1.8-1.7-2.7c-2-2.5-5.6-3.1-8.4-1.4c-2.8,1.7-4,5.1-2.7,8c0.8,1.7,1.7,3.4,2.7,5
		c9.3,14.4,22.3,24.1,38.8,28.8c6,1.7,12.2,2.6,18.4,2.6c3.1,0,6.2-0.2,9.4-0.7c15.8-2.2,29.3-9.1,40.2-20.6
		c9-9.5,14.7-20.7,17-33.5c0.3-1.6,0.5-3.2,0.7-4.8c0.1-0.7,0.2-1.4,0.3-2.1v-9.1L304.8,176.1z"/>
	<path class="st0" d="M32.9,220.7c-8.9,0-13.3-4.3-13.3-13.2c0-4.4,0-8.7,0-13.2v-24.9V86.1h246v20.6h13.5c0-29,0-56.9,0-76.5
		c0-13.6-11-24.7-24.6-24.7c-80.3,0-159.8,0-223.8,0c-8.3,0-15,3.5-19.5,10.1c-1.6,2.3-2.5,4.9-3.6,7.7c-0.4,1.2-0.9,2.4-1.4,3.5
		v186.1c0,0.1,0.1,0.2,0.1,0.4c0.1,0.4,0.3,0.8,0.4,1.3c2.6,11.5,12.5,19.6,24,19.6c23.1,0.1,57.1,0.1,87.2,0.1
		c11.1,0,21.5,0,30.3,0H161v-13.5C117.5,220.7,73.4,220.7,32.9,220.7z M19.7,32.2C19.7,23.3,24,19,32.9,19c69.5,0,149.9,0,219.4,0
		c8.9,0,13.3,4.3,13.3,13.2v40h-246L19.7,32.2z"/>
</g>
</svg>
