<?xml version="1.0" encoding="utf-8"?>
<!-- Generator: Adobe Illustrator 21.1.0, SVG Export Plug-In . SVG Version: 6.00 Build 0)  -->
<svg version="1.1" id="圖層_1" xmlns="http://www.w3.org/2000/svg" xmlns:xlink="http://www.w3.org/1999/xlink" x="0px" y="0px"
	 viewBox="0 0 311.7 253.7" style="enable-background:new 0 0 311.7 253.7;" xml:space="preserve">
<style type="text/css">
	.st0{fill:#0075D7;}
</style>
<g>
	<path class="st0" d="M290.9,91.3c-0.9-1.9-2.6-3.2-4.6-3.4c-2-0.3-4,0.5-5.4,2.2c-1.9,2.2-3.7,4.5-5.5,6.7
		c-0.6,0.7-1.2,1.5-1.7,2.2c0-0.1-0.1-0.3-0.1-0.4l-0.1-0.4c-5.7-22.8-17.2-42.5-34-58.7c-16.3-15.7-35.6-26.1-57.3-30.9
		c-32.7-7.2-63.7-1.9-92.1,15.7c-16.3,10.1-29.8,24-40,41.3c-5.6,9.5-9.9,19.8-12.8,30.8c-1,3.6,0.6,6.8,3.9,7.8
		c3.4,1.1,6.5-0.7,7.8-4.3c0.1-0.4,0.3-0.9,0.4-1.3c0.1-0.2,0.1-0.4,0.2-0.6c8-28.1,24.8-49.9,49.9-64.9
		c20.8-12.4,43.9-17.3,68.7-14.6c44,4.9,81.3,36.8,92.8,79.4c0.1,0.2,0.1,0.5,0.2,0.8l-1.2-0.9c-1.8-1.4-3.4-2.6-5-3.9
		c-3.1-2.4-6.7-2.2-8.9,0.4c-1.1,1.3-1.5,2.9-1.4,4.5c0.2,1.7,1.1,3.3,2.5,4.4c6.4,5.2,13,10.3,19.4,15.2c1.2,0.9,2.5,1.4,3.7,1.4
		c1.8,0,3.6-0.9,5-2.7c0.2-0.3,0.5-0.6,0.7-0.9c0.3-0.4,0.6-0.7,0.9-1.1l4.8-6.1c2.7-3.5,5.5-7,8.2-10.5
		C291.6,95.9,292,93.6,290.9,91.3z"/>
	<path class="st0" d="M270.8,151.2c-2.4-1.7-5.1-1.6-7,0.1c-1.2,1-2.2,2.8-2.8,4.8c-8.8,30.7-27.2,53.5-54.6,67.9
		c-32.8,17.2-66.6,17.6-100.3,1.2c-19.4-9.4-35-24.2-46.4-44c-4.1-7.2-7.2-14.5-9.5-22.2l0.9,0.7c1.8,1.3,3.5,2.5,5.2,3.8
		c3.4,2.4,6.9,2.2,9.1-0.6c1-1.3,1.4-2.8,1.2-4.3c-0.2-1.8-1.3-3.4-3.1-4.7c-4.2-3.1-8.3-6.2-12.5-9.3l-6.4-4.8
		c-3.1-2.3-6.7-1.9-9,1.2c-5.4,7.1-10.6,14.3-14.6,19.8c-1.6,2.2-1.7,4.5-0.3,6.7c1.1,1.8,2.8,2.9,4.7,3c2.1,0.1,4.2-1,5.7-2.9
		c1.6-2.1,3.2-4.2,4.8-6.5c0.5-0.7,1-1.3,1.5-2c0,0.1,0.1,0.2,0.1,0.3c7,25.2,20.8,46.4,41.1,62.9c19,15.5,43.1,25,67.9,26.8
		c3,0.2,5.9,0.3,8.8,0.3c22.9,0,45.2-6.4,64.8-18.8c18.1-11.4,32.5-26.9,42.8-46.2c4.3-8.1,7.7-16.9,10.2-26.2
		C273.8,155.2,273,152.8,270.8,151.2z"/>
	<path class="st0" d="M112.5,179.9c0,3.8,0,7.7,0,11.5c0.1,8.3,6.2,14.4,14.5,14.4h3.7c6.1,0,12.2,0,18.4,0c10.4,0,20.9,0,31.3,0
		c1.6,0,3.1-0.2,4.3-0.5c6.4-1.8,10.3-7.2,10.3-14.4c0-28,0-56.1,0-84.1V78.2c0-0.4,0-0.9,0-1.3c-0.2-7.7-5.4-13.3-12.9-14.1
		c-1.4-0.1-2.9-0.1-4.4-0.1c-0.7,0-1.5,0-2.2,0h-0.3v-0.3c0-0.8,0-1.5,0-2.3c0-1.5,0-3,0-4.5c0.2-2.9-0.9-4.9-3.3-6h-36l-0.1,0.1
		c-0.2,0.1-0.3,0.2-0.5,0.3c-0.5,0.3-0.9,0.5-1.3,0.9c-1,0.9-1.5,2.2-1.5,3.9s0,3.5,0,5.2v2.6H132c-0.2,0-0.4,0-0.7,0h-0.4
		c-0.1,0-0.3,0-0.4,0c-0.9,0.1-1.8,0.1-2.6,0.1c-2,0.1-3.9,0.1-5.7,0.7c-6.2,1.8-9.9,7.1-9.9,14.2c0,20.3,0,40.7,0,61v36.1
		C112.5,176.4,112.5,178.1,112.5,179.9L112.5,179.9z M121.7,77.8c0-1.9,0.5-3.4,1.5-4.5c1-1,2.5-1.5,4.5-1.5
		c12.6,0.1,25.5,0.1,37.9,0.1h1.7c4.2,0,8.4,0,12.6,0c4.1,0,5.8,1.7,5.8,5.8c0,37.7,0,75.4,0,113.2c0,4.1-1.8,5.9-5.8,5.9h-26.2
		h-26.2c-4,0-5.8-1.8-5.8-5.9c0-14.7,0-29.4,0-44.1v-12.6c0-4.2,0-8.3,0-12.5v-2.2C121.8,105.7,121.8,91.6,121.7,77.8z"/>
	<path class="st0" d="M135.8,138.4h3.2c2.2,0,4.4,0,6.6,0c0.3,0,0.7,0,1.1,0c0.2,0,0.4,0,0.6,0h0.8l-0.3,1.4c-0.1,0.4-0.2,0.7-0.3,1
		l-2.9,10.6c-2,7.3-4,14.7-6,22c-0.6,2.4,0.2,4.5,2.2,5.4c2.1,1,4,0.3,5.5-1.8c4.9-6.8,9.7-13.6,14.6-20.4
		c4.7-6.6,9.4-13.1,14.1-19.7c1.2-1.6,1.4-3.2,0.6-4.8c-0.8-1.7-2.2-2.4-4.4-2.4c-2.5,0-5,0-7.6,0c-1.1,0-2.2,0-3.4,0h-0.9l0.4-1.4
		c0.1-0.4,0.2-0.7,0.3-1.1l2.9-10.9c2-7.2,3.9-14.5,5.9-21.7c0.7-2.4-0.2-4.5-2.2-5.4c-0.6-0.3-1.2-0.4-1.8-0.4
		c-1.4,0-2.7,0.7-3.7,2.1c-5.9,8.3-11.9,16.6-17.8,24.9c-3.7,5.1-7.4,10.3-11,15.4c-1.1,1.6-1.3,3.1-0.5,4.6
		C132.6,137.6,133.9,138.4,135.8,138.4z"/>
</g>
</svg>
