<?xml version="1.0" encoding="utf-8"?>
<!-- Generator: Adobe Illustrator 21.1.0, SVG Export Plug-In . SVG Version: 6.00 Build 0)  -->
<svg version="1.1" id="圖層_1" xmlns="http://www.w3.org/2000/svg" xmlns:xlink="http://www.w3.org/1999/xlink" x="0px" y="0px"
	 viewBox="0 0 311.7 253.7" style="enable-background:new 0 0 311.7 253.7;" xml:space="preserve">
<style type="text/css">
	.st0{fill:#0075D7;}
</style>
<g>
	<path class="st0" d="M257.7,75.4c0-7,0-14,0-20.9c0-3.3-1.5-5.4-5-7c-20-8.7-40-17.5-58.7-25.7c-8.2-3.6-16.5-7.3-24.7-10.9
		l-11.7-5.2l-3.5-0.1l-11.8,5.1c-7.7,3.4-15.4,6.8-23.1,10.2c-20.3,8.9-40.6,17.8-60.9,26.7c-3.3,1.5-4.9,3.8-4.9,7.3
		c0,8.8,0,17.7,0,26.5v0.9c0,16.9,0,34.4,0.2,51.6c0.1,15.2,6.2,28.3,12.1,39.1c9,16.6,22.2,31.7,40.2,46
		c13.2,10.5,28.2,20,47.2,29.7l0.3,0.1h3.5l0.3-0.1c16.1-8.3,28.8-15.9,40.1-24.1c19.8-14.3,33.8-28.7,44.1-45.1
		c10.7-17,16.2-35,16.3-53.4C257.8,109.1,257.8,92,257.7,75.4z M243.7,128.5c-0.5,19.4-7.9,37.6-22.6,55.5
		c-12.6,15.4-29,28.8-51.7,42.3c-3.6,2.1-7.6,4.4-12.6,6.9l0,0c-0.9,0.5-2.5,0.5-3.4,0c-23.6-12.5-41.3-25.3-55.7-40.2
		c-15.2-15.7-24.6-31.8-28.8-49.1c-1.4-5.8-1.6-12-1.8-18v-1.4c-0.2-6.3-0.2-12.6-0.1-18.8c0-2.7,0-5.3,0-8V97l0.1-8.1
		c0-8.9,0-18.1,0-27.2c0-2,0.8-3.2,2.7-4c27.8-12.1,55.8-24.4,83.1-36.4c2-0.9,3.6-0.9,5.5,0c26.2,11.5,54.1,23.8,82.9,36.4
		c1.7,0.8,2.8,1.7,2.8,3.9c0,7.4,0,14.9,0,22.3C244,98.5,244.1,113.6,243.7,128.5z"/>
	<path class="st0" d="M208.1,83.9c-2.8-0.7-5.8,0.2-8,2.4c-7,6.9-13.9,13.8-20.8,20.8L144,142.4c-0.4-0.5-0.8-1-1.2-1.4l-10.2-10.2
		c-4.5-4.5-9.1-9.1-13.6-13.7c-2.2-2.2-4.4-3.1-6.9-2.8c-3.4,0.4-5.8,2.2-6.7,5.3c-1,3.1-0.3,6.1,2.1,8.5
		c7.2,7.2,14.4,14.4,21.6,21.6l8.4,8.4c2.4,2.4,4.5,3.5,6.7,3.5l0,0c2.2,0,4.3-1.1,6.7-3.5l60-60c0.5-0.5,1-1,1.4-1.5
		c1.7-2.2,2.2-4.6,1.4-7.2C212.8,86.5,210.8,84.6,208.1,83.9z"/>
</g>
</svg>
