<?xml version="1.0" encoding="utf-8"?>
<!-- Generator: Adobe Illustrator 21.1.0, SVG Export Plug-In . SVG Version: 6.00 Build 0)  -->
<svg version="1.1" id="圖層_1" xmlns="http://www.w3.org/2000/svg" xmlns:xlink="http://www.w3.org/1999/xlink" x="0px" y="0px"
	 viewBox="0 0 311.7 253.7" style="enable-background:new 0 0 311.7 253.7;" xml:space="preserve">
<style type="text/css">
	.st0{fill:#0075D7;}
</style>
<g>
	<path class="st0" d="M259.8,80.4c0.9,0,1.8,0,2.7,0c2,0,4.1-0.1,6.2,0.1c4.3,0.3,7-1.3,8.7-5.1v-3.5c-1.6-3.8-4.3-5.3-8.7-5.1
		c-3.5,0.2-6.9,0.1-10.5,0.1c-1.6,0-3.2,0-4.8,0h-0.9v-6c0-3.7,0-7.4,0-11c0-9.9-6.7-17.8-16.2-19.2c-2.9-0.4-5.9-0.3-8.8-0.3
		c-1.3,0-2.7,0.1-4,0c-1.4,0-2.8,0-4.3,0h-3.1v-8.8c0-3.1,0-6.2,0-9.3c0-3.9-2.9-6.8-6.8-6.8c0,0,0,0-0.1,0c-3.8,0-6.7,2.9-6.7,6.7
		c0,3.9,0,7.9,0,11.9v6.1h-13.2v-3.7c0-2.1,0-4.1,0-6.2c0-4.2-2.8-7.2-6.8-7.2l0,0c-4,0-6.8,2.9-6.8,7.1c0,2.1,0,4.1,0,6.2v3.8h-13
		l-0.1-0.8c0-0.2,0-0.4,0-0.6c0-0.5-0.1-1-0.1-1.5c0-2.4,0-4.8,0-7.1c0-2.5,0-5,0-7.5c0-2.2-0.7-4.1-2.1-5.5
		c-1.2-1.2-2.9-1.9-4.8-1.8c-3.9,0-6.7,3-6.7,7.2c0,3.8,0,7.7,0,11.5v6h-13.2v-3.6c0-2.1,0-4.2,0-6.2c0-4.2-2.8-7.2-6.7-7.2l0,0
		c-1.9,0-3.5,0.6-4.7,1.8c-1.3,1.3-2,3.2-2.1,5.5c0,2,0,4,0,6.1v3.7H109v-7.5c0-3.5,0-6.9,0-10.4c0-4-2.9-6.9-6.8-6.9l0,0
		c-3.9,0-6.7,2.9-6.7,6.9c0,3.9,0,7.7,0,11.7v6.2h-1.8c-0.6,0-1.3,0-1.9,0c-1.8,0-3.7,0-5.5,0c-4.1,0-8.2-0.1-12.2,0.6
		c-8.5,1.3-14.9,9.1-14.9,18.2c0,3.8,0,7.5,0,11.4v6.2h-6.1c-4.1,0-8.1,0-12.1,0c-3.3,0-6.2,2.5-6.7,5.7c-0.5,3.5,1.6,6.8,4.9,7.7
		c0.7,0.2,1.6,0.2,2.5,0.2h0.2c4,0,8,0,12.1,0h5.1v13.2h-0.9c-1,0-2,0-3,0c-2.2,0-4.6,0-6.9,0c-3.6,0.1-6.4,3.1-6.4,6.8
		c0,3.7,2.9,6.6,6.5,6.7c1.5,0,3,0,4.4,0c0.7,0,1.3,0,2,0h4.1v13.2h-5.2c-3.9,0-8,0-12,0c-1.4,0-2.5,0.2-3.4,0.5
		c-2.9,1.2-4.6,4.4-4,7.6c0.6,3,3.5,5.3,6.5,5.4c4,0,7.9,0,12.1,0c1.7,0,3.5,0,5.2,0H59v13.2h-0.9c-1,0-1.9,0-2.9,0
		c-2.2,0-4.4,0-6.7,0c-3.8,0.1-6.6,3-6.6,6.8s2.9,6.7,6.7,6.8c1.5,0,3,0,4.4,0c0.7,0,1.3,0,2,0h3.9v13.2h-8.2c-1.1,0-2.1,0-3.1,0
		c-2.3,0-4.8,0-7.1,0c-3.6,0.1-6.3,3.1-6.3,6.9c0,3.6,2.9,6.6,6.3,6.6c4,0.1,8,0,12.3,0c1.8,0,3.6,0,5.5,0h0.9v6c0,3.9,0,7.7,0,11.5
		c0,5.2,1.9,9.8,5.7,13.5c3.7,3.6,8.1,5.4,13.2,5.4h17.5v6.3c0,1,0,2,0,3c0,2.2,0.1,4.6-0.1,6.9c-0.3,4.3,1.3,7,5.1,8.7h3.5
		c3.8-1.6,5.3-4.3,5.1-8.7c-0.2-3.5-0.1-7.1-0.1-10.5c0-1.5,0-3.1,0-4.7v-0.9H122v3.8c0,2.2,0,4.3,0,6.4c0,3.9,3,6.9,6.8,6.9l0,0
		c3.9,0,6.7-2.9,6.8-6.9c0-2.1,0-4.2,0-6.4v-3.8h13.2v7.4c0,0.9,0,1.8,0,2.7c0,2,0.1,4-0.1,6c-0.3,4.3,1.3,7,5.1,8.7h3.5
		c3.8-1.6,5.3-4.3,5.1-8.7c-0.2-3.5-0.1-7.1-0.1-10.5c0-1.5,0-3.1,0-4.7v-0.9h13.2v3.8c0,2.1,0,4.3,0,6.4c0,3.9,3,6.9,6.8,6.9
		c3.9,0,6.7-2.9,6.8-6.9c0-2.1,0-4.3,0-6.4v-3.8h13.2v7.4c0,0.9,0,1.8,0,2.7c0,2,0.1,4-0.1,6c-0.3,4.3,1.3,7,5.1,8.7h3.5
		c3.8-1.6,5.3-4.3,5.1-8.7c-0.2-3.5-0.1-6.9-0.1-10.6c0-1.6,0-3.2,0-4.8v-0.9h6c3.7,0,7.3,0,11,0c9.9,0,17.8-6.7,19.2-16.2
		c0.4-3,0.4-6.1,0.3-9.1c0-1.4-0.1-2.8,0-4.1c0-1.3,0-2.6,0-4v-3h6.1c1,0,2.1,0,3.1,0c2.3,0,4.7-0.1,7,0.1c4.3,0.3,7.1-1.3,8.7-5.1
		v-3.5c-1.6-3.8-4.3-5.3-8.7-5.1c-3.5,0.2-7.1,0.1-10.5,0.1c-1.5,0-3.1,0-4.7,0h-0.9v-13.2h3.8c2.1,0,4.3,0,6.4,0
		c4,0,6.9-2.9,6.9-6.8c0-3.9-2.9-6.7-6.9-6.8c-1.6,0-3.3,0-4.9,0c-1.3,0-2.6,0-3.9,0c-0.3,0-0.5-0.1-0.7-0.2c0,0-0.1-0.1-0.2-0.1
		l-0.5-0.2v-12.6h7.2c0.9,0,1.8,0,2.7,0c2,0,4.1-0.1,6.2,0.1c4.3,0.3,7-1.3,8.7-5.1v-3.5c-1.6-3.8-4.3-5.3-8.7-5.1
		c-3.5,0.2-7.1,0.1-10.5,0.1c-1.5,0-3.1,0-4.7,0h-0.9v-13.2h3.8c2.2,0,4.3,0,6.4,0c4,0,6.9-2.9,6.9-6.8c0-3.8-3-6.7-6.9-6.8
		c-2.1,0-4.2,0-6.4,0h-3.8V80.4H259.8z M238.9,203.1c0,5.6-1.8,7.4-7.4,7.4H79.9c-5.7,0-7.5-1.8-7.5-7.5V51.5c0-5.6,1.8-7.4,7.4-7.4
		h151.5c5.7,0,7.5,1.8,7.5,7.5v94.6L238.9,203.1z"/>
	<path class="st0" d="M88.3,126.1l34.6-34.6c1.5-1.5,1.5-4,0-5.5s-4-1.5-5.5,0L80,123.3c-0.7,0.7-1.1,1.7-1.1,2.8c0,1,0.4,2,1.1,2.8
		l36.2,36.2c0.8,0.8,1.8,1.1,2.8,1.1s2-0.4,2.8-1.1c1.5-1.5,1.5-4,0-5.5L88.3,126.1z"/>
	<path class="st0" d="M194.7,86c-1.5-1.5-4-1.5-5.5,0s-1.5,4,0,5.5l33.4,33.4L188,159.5c-1.5,1.5-1.5,4,0,5.5
		c0.8,0.8,1.8,1.1,2.8,1.1s2-0.4,2.8-1.1l37.3-37.3c0.7-0.7,1.1-1.7,1.1-2.8c0-1-0.4-2-1.1-2.8L194.7,86z"/>
	<path class="st0" d="M182.7,131l-11.2-6l11.2-6c4-2.2,5.5-7.1,3.3-11.1s-7.1-5.5-11.1-3.3l-12.5,6.7V97c0-4.5-3.7-8.2-8.2-8.2
		S146,92.5,146,97v14.2l-12.5-6.7c-4-2.2-9-0.7-11.1,3.3c-2.2,4-0.7,9,3.3,11.1l11.2,6l-11.2,6c-4,2.2-5.5,7.1-3.3,11.1
		c1.5,2.8,4.3,4.3,7.2,4.3c1.3,0,2.7-0.3,3.9-1l12.5-6.7v14.2c0,4.5,3.7,8.2,8.2,8.2s8.2-3.7,8.2-8.2v-14.2l12.5,6.7
		c1.2,0.7,2.6,1,3.9,1c2.9,0,5.8-1.6,7.2-4.3C188.2,138.1,186.7,133.1,182.7,131z"/>
</g>
</svg>
