<?xml version="1.0" encoding="utf-8"?>
<!-- Generator: Adobe Illustrator 21.1.0, SVG Export Plug-In . SVG Version: 6.00 Build 0)  -->
<svg version="1.1" id="圖層_1" xmlns="http://www.w3.org/2000/svg" xmlns:xlink="http://www.w3.org/1999/xlink" x="0px" y="0px"
	 viewBox="0 0 311.7 253.7" style="enable-background:new 0 0 311.7 253.7;" xml:space="preserve">
<style type="text/css">
	.st0{fill:#0075D7;}
</style>
<g>
	<path class="st0" d="M245.9,96.3c-12.8,0-23.3,10.4-23.3,23.3c0,0.1,0,0.1,0,0.2l-104.9,10.8c-0.5-0.7-0.9-1.4-1.4-2.1
		c-2.3-3.2-5-6-8-8.3L189.5,80c4,3.3,9.1,5.2,14.7,5.2c12.8,0,23.3-10.4,23.3-23.3s-10.4-23.3-23.3-23.3
		c-12.8,0-23.3,10.4-23.3,23.3c0,3.7,0.9,7.2,2.4,10.3L105,111c3.3-5.2,4.5-11,3.5-17.4c-0.6-3.4-1.6-6.5-3.2-9.2L136,49.6
		c3.2,1.6,6.7,2.5,10.5,2.5c12.8,0,23.3-10.4,23.3-23.3S159.3,5.6,146.5,5.6S123.2,16,123.2,28.9c0,5.6,2,10.7,5.2,14.7L98.8,77.2
		c-2.2-1.7-4.8-3.1-7.8-4.1c-1.4-0.5-2.7-0.7-4-0.9c-0.5-0.1-1.1-0.2-1.6-0.3l-4-0.1h-0.5C80.4,71.9,80,72,79.5,72
		c-1.1,0.2-2.3,0.4-3.4,0.7c-9.1,2.8-15,8.7-17.6,17.6c-2.5,8.5-0.8,16.5,5,23.7c0.5,0.6,1,1.2,1.6,1.7c-0.9,0.4-1.8,0.9-2.6,1.4
		c-7.7,4.6-13.4,11.1-17,19.4c-1.9,4.4-2.9,8.9-3.1,13.7c0,0.3-0.1,0.6-0.1,0.9l-0.1,2l0.1,0.3c0.1,0.5,0.2,1,0.3,1.5
		c0.3,1.3,0.6,2.6,1.2,4c2.1,4.6,6,7.6,11.2,8.5c0,0,0.1,0,0.1,0.1l0.4,0.2H99l33.9,40.3c-5,4.3-8.2,10.6-8.2,17.7
		c0,12.8,10.4,23.3,23.3,23.3s23.3-10.4,23.3-23.3c0-12.8-10.4-23.3-23.3-23.3c-2.2,0-4.3,0.3-6.4,0.9l-30.1-35.9
		c0.3-0.1,0.6-0.2,0.9-0.2c1-0.3,2-0.5,3-1c2.5-1.2,4.5-2.9,6-4.9l60.7,11.8c-0.3,1.6-0.5,3.2-0.5,4.8c0,12.8,10.4,23.3,23.3,23.3
		s23.3-10.4,23.3-23.3c0-12.8-10.4-23.3-23.3-23.3c-7.7,0-14.4,3.7-18.7,9.4l-61.8-12v-0.1v-0.2c-0.1-0.5-0.1-1.1-0.1-1.6
		c-0.1-1.2-0.2-2.4-0.4-3.6c-0.3-2.3-0.8-4.5-1.5-6.7l102.7-10.5c3.7,8,11.7,13.6,21.1,13.6c12.8,0,23.3-10.4,23.3-23.3
		C269.1,106.8,258.7,96.3,245.9,96.3z M161.4,225.7c0,7.5-6.1,13.6-13.6,13.6s-13.6-6.1-13.6-13.6s6.1-13.6,13.6-13.6
		S161.4,218.2,161.4,225.7z M204.6,164.3c7.5,0,13.6,6.1,13.6,13.6s-6.1,13.6-13.6,13.6s-13.6-6.1-13.6-13.6
		C190.9,170.4,197.1,164.3,204.6,164.3z M83.1,111.5L83.1,111.5c-3.7,0-7.2-1.5-9.9-4.1c-2.6-2.6-4.1-6.1-4.1-9.8
		c0-3.7,1.5-7.2,4.2-9.9c2.6-2.6,6.1-4,9.7-4h0.1c7.7,0,14,6.3,13.9,14C97,105.2,90.8,111.5,83.1,111.5z M86.7,123.6
		c10.7,1.5,18.5,7.4,23.2,17.5c1.5,3.4,2.3,7.1,2.3,11.3c0,2.1-1.5,3.5-4,3.5c-6,0-12.1,0-18.1,0H76c-6,0-11.9,0-17.9,0l0,0
		c-2.4,0-3.2-1-3.6-1.9c-0.2-0.5-0.4-1.1-0.4-1.5c0.2-9.5,4-17.3,11.5-23.1c5.2-4,10.9-6,17.1-6C83.9,123.3,85.3,123.4,86.7,123.6z
		 M204.1,48.2c7.5,0,13.6,6.1,13.6,13.6s-6.1,13.6-13.6,13.6s-13.6-6.1-13.6-13.6S196.5,48.2,204.1,48.2z M146.5,15.2
		c7.5,0,13.6,6.1,13.6,13.6s-6.1,13.6-13.6,13.6s-13.6-6.1-13.6-13.6S139,15.2,146.5,15.2z M245.9,133.2c-7.5,0-13.6-6.1-13.6-13.6
		s6.1-13.6,13.6-13.6s13.6,6.1,13.6,13.6S253.4,133.2,245.9,133.2z"/>
</g>
</svg>
