<?xml version="1.0" encoding="utf-8"?>
<!-- Generator: Adobe Illustrator 21.1.0, SVG Export Plug-In . SVG Version: 6.00 Build 0)  -->
<svg version="1.1" id="圖層_1" xmlns="http://www.w3.org/2000/svg" xmlns:xlink="http://www.w3.org/1999/xlink" x="0px" y="0px"
	 viewBox="0 0 311.7 253.7" style="enable-background:new 0 0 311.7 253.7;" xml:space="preserve">
<style type="text/css">
	.st0{fill:#0075D7;}
</style>
<g>
	<path class="st0" d="M272.3,214.4c12.4,0,22.5-10.3,22.6-22.9c0-41.7,0-122.3,0-162.6c0-12.6-10.2-22.9-22.8-22.9
		c-64.7,0-169.6,0-233,0C31.4,6,25.2,9.2,21,15.4c-1.4,2.1-2.4,4.6-3.3,7c-0.4,1.1-0.8,2.2-1.3,3.3v169c0,0.1,0.1,0.3,0.1,0.4
		c0.1,0.4,0.3,0.7,0.3,1.1c2.4,10.7,11.6,18.1,22.3,18.2c20.9,0.1,51.8,0.1,79.1,0.1c10.1,0,19.5,0,27.4,0h3.2v20.7h-14.7
		c-9.6,0-19.2,0-28.8,0c-2.3,0-4.3,0.8-5.6,2.2c-1.2,1.3-1.8,3-1.7,4.9c0.2,3.8,3.1,6.2,7.5,6.2c25,0,50.1,0,75.1,0h25h0.4
		c0.3,0,0.7,0,1,0c3.7-0.3,6.3-3.2,6.2-6.9c-0.1-3.9-3.1-6.5-7.5-6.5c-9.6,0-19.1,0-28.7,0h-14.6v-20.7h3.4c8,0,17.5,0,27.7,0
		C220.6,214.4,251.4,214.5,272.3,214.4z M29.5,30.7c0-7.7,3.8-11.5,11.5-11.5c63,0,166,0,229.1,0c7.8,0,11.6,3.8,11.6,11.5
		c0,21.4,0,65.8,0,98.3v29.3H29.5v-28C29.5,97.6,29.5,52.3,29.5,30.7z M120.1,201.2c-29,0-56.6,0-79,0c-7.8,0-11.5-3.8-11.6-11.5
		c0-4,0-8,0-12v-5.9h251.9v0.5c0,2.1,0,4.2,0,6.3c0,4.9,0.1,10-0.1,14.9c-0.2,3.8-4,6.8-7.4,7.4c-1.1,0.2-2.4,0.3-3.8,0.3
		C229.6,201.2,172.5,201.2,120.1,201.2z"/>
	<path class="st0" d="M162.5,186c0,4.5-3,7.8-7.2,7.9c-4.1,0-7.2-3.3-7.2-7.8s3-7.9,7.1-7.9C159.4,178.1,162.5,181.5,162.5,186z"/>
	<path class="st0" d="M134.6,101.3h-80c-2.2,0-4-1.8-4-4v-58c0-2.2,1.8-4,4-4h80c2.2,0,4,1.8,4,4v58
		C138.6,99.5,136.8,101.3,134.6,101.3z M58.6,93.3h72v-50h-72C58.6,43.3,58.6,93.3,58.6,93.3z"/>
	<path class="st0" d="M134.6,144.6h-80c-2.2,0-4-1.8-4-4V120c0-2.2,1.8-4,4-4h80c2.2,0,4,1.8,4,4v20.7
		C138.6,142.8,136.8,144.6,134.6,144.6z M58.6,136.6h72V124h-72C58.6,124,58.6,136.6,58.6,136.6z"/>
	<path class="st0" d="M188.6,64.8h-23.3c-1.9,0-3.5-1.6-3.5-3.5V38c0-1.9,1.6-3.5,3.5-3.5h23.3c1.9,0,3.5,1.6,3.5,3.5v23.3
		C192.1,63.2,190.6,64.8,188.6,64.8z M168.8,57.8h16.3V41.5h-16.3V57.8z"/>
	<rect x="204" y="45.6" class="st0" width="58.7" height="8"/>
	<path class="st0" d="M188.6,105.5h-23.3c-1.9,0-3.5-1.6-3.5-3.5V78.6c0-1.9,1.6-3.5,3.5-3.5h23.3c1.9,0,3.5,1.6,3.5,3.5V102
		C192.1,103.9,190.6,105.5,188.6,105.5z M168.8,98.5h16.3V82.1h-16.3V98.5z"/>
	<rect x="204" y="86.3" class="st0" width="58.7" height="8"/>
	<path class="st0" d="M188.6,146.1h-23.3c-1.9,0-3.5-1.6-3.5-3.5v-23.3c0-1.9,1.6-3.5,3.5-3.5h23.3c1.9,0,3.5,1.6,3.5,3.5v23.3
		C192.1,144.6,190.6,146.1,188.6,146.1z M168.8,139.1h16.3v-16.3h-16.3V139.1z"/>
	<rect x="204" y="127" class="st0" width="58.7" height="8"/>
</g>
</svg>
