<?xml version="1.0" encoding="utf-8"?>
<!-- Generator: Adobe Illustrator 21.1.0, SVG Export Plug-In . SVG Version: 6.00 Build 0)  -->
<svg version="1.1" id="圖層_1" xmlns="http://www.w3.org/2000/svg" xmlns:xlink="http://www.w3.org/1999/xlink" x="0px" y="0px"
	 viewBox="0 0 311.7 253.7" style="enable-background:new 0 0 311.7 253.7;" xml:space="preserve">
<style type="text/css">
	.st0{fill:#0075D7;}
</style>
<g>
	<path class="st0" d="M199.9,22.3c-5.7-5-12.2-9-19.2-11.8c-11-4.4-22.5-5.9-34.1-4.4c-8.2,1-16,3.5-23.4,7.4
		c-5.7,3-10.9,6.8-15.6,11.4c-0.5,0.5-1.1,1-1.6,1.5c-2,1.8-3.9,3.6-4.8,6v2.3c0.4,1.3,1,2.5,2,3.4c2.6,2.2,5.9,2.1,8.5-0.4
		c0.8-0.7,1.5-1.5,2.2-2.2c1.4-1.5,2.9-3,4.5-4.3c13.1-11.1,28.3-15.5,45.3-13c10.7,1.6,20.4,6.1,28.7,13.5c0.9,0.8,1.9,1.7,2.7,2.6
		c0.9,0.8,1.7,1.7,2.6,2.5c1.4,1.3,3.1,1.7,5.1,1.2c2.2-0.5,3.9-2.1,4.5-4.1s0.1-4.2-1.5-5.9S202.2,24.4,199.9,22.3z"/>
	<path class="st0" d="M187.6,47.3c-0.7-0.9-1.5-1.7-2.3-2.5l-0.2-0.2c-7.9-7.9-17.3-12.2-28.2-12.7h-0.6c-0.2,0-0.4,0-0.6,0
		c-0.2,0-0.5,0-0.7,0c-0.4,0-0.7,0-1.1,0.1c-0.3,0-0.6,0.1-0.9,0.1c-5.8,0.3-11.4,2-16.8,4.9c-5.3,2.8-9.4,7-13.6,11.5
		c-1.4,1.5-1.9,3.2-1.7,5.2c0.4,2.8,1.9,4.6,4.4,5.5c2.7,1,5,0.4,7.1-1.6c1-1,2-2,3-3l0.9-1c4.9-4.9,10.7-7.6,17.3-8.1
		c7.8-0.6,14.6,1.8,20.3,7.1c0.6,0.5,1.1,1,1.6,1.6c0.9,0.9,1.8,1.7,2.7,2.5c2.7,2.3,6.5,2.1,8.9-0.4
		C189.7,53.8,189.8,50,187.6,47.3z"/>
	<path class="st0" d="M154.7,62.1L154.7,62.1c-3.1,0-6,1.2-8.1,3.4c-2.2,2.2-3.4,5-3.3,8.1c0,6.3,5.2,11.4,11.5,11.4l0,0
		c3,0,5.9-1.2,8-3.3c2.2-2.2,3.4-5,3.4-8.1s-1.2-6-3.3-8.2C160.6,63.3,157.8,62.1,154.7,62.1z"/>
	<path class="st0" d="M23.6,109.6c-10.4,13-17,28.6-19.7,46.3c-0.3,2.2-0.6,4.4-0.9,6.6v0.2c-0.1,0.9-0.2,1.9-0.3,2.8v12.8l0.1,0.3
		c0.1,0.4,0.2,0.9,0.2,1.3c0.3,1.7,0.5,3.5,0.7,5.3c0.5,3.6,1,7.4,1.7,10.9c4,17.9,12.2,33.1,24.2,44.9c2.6,2.6,5.6,5,9.1,7.4
		c1.9,1.3,3.7,0.1,4.9-1.1c1.5-1.6,2.1-3.6,1.7-6.1c-0.4-2.6-1.9-3.9-3.8-5.5l-0.2-0.2c-21-17.5-30.4-41.9-27.9-72.7
		c1.4-17,7.3-31.9,17.7-44.3c2.7-3.3,5.8-6,8.8-8.7c1-0.9,1.9-1.7,2.8-2.5c2.2-2.1,3.1-4.7,2.4-7.4c-0.5-2-1.5-3.5-3-4.2
		c-0.6-0.3-1.2-0.4-1.8-0.4c-1,0-2.1,0.4-3.1,1.1C32.1,100.2,27.5,104.7,23.6,109.6z"/>
	<path class="st0" d="M273.9,247.7c22-17.1,33.7-42.5,34.7-75.5c0-6.9-0.7-13.7-2-20.2c-4.8-24.1-15.9-42.8-33-55.7
		c-0.9-0.7-1.8-1-2.7-1c-0.5,0-0.9,0.1-1.4,0.3c-2.1,0.8-3.4,2.5-3.7,5.2c-0.3,2.5,0.4,4.6,2.1,6.2c0.9,0.8,1.9,1.6,2.8,2.4
		c1.5,1.2,3,2.4,4.5,3.9c16.8,17.3,24.5,39.6,22.7,66.2c-0.8,12.2-4.2,23.9-10.1,34.8c-4.9,9-11.2,16.5-19.4,22.7
		c-1.3,1-2.2,2.5-2.5,4.2c-0.3,1.6-0.1,3.3,0.6,4.7c0.8,1.6,1.9,2.6,3.2,3l0,0C271.1,249.1,272.6,248.7,273.9,247.7z"/>
	<path class="st0" d="M69.4,217.4c1.2-3.5,0-7-2.9-8.7c-0.3-0.2-0.6-0.3-0.9-0.5c-0.3-0.1-0.5-0.2-0.7-0.4c-8-4.2-14.3-12.6-17.2-23
		c-2.9-10.3-2.2-21.7,1.9-31.2c3.7-8.5,9.4-14.7,17-18.5c1.4-0.7,2.4-1.9,2.9-3.5s0.5-3.4-0.1-5c-0.6-1.6-1.6-2.9-2.9-3.4
		c-0.6-0.3-1.2-0.4-1.8-0.4c-0.7,0-1.4,0.2-2.1,0.5c-16.4,7.7-27,27.4-27.1,50c0.1,10,2.8,19.9,7.7,28.5s11.4,14.8,19.3,18.6
		c1.3,0.6,2.7,0.7,4,0.1C67.8,220.2,68.9,219,69.4,217.4z"/>
	<path class="st0" d="M244.5,220.7c1.2,0.6,2.6,0.5,3.8,0c16.2-7.4,27.1-27,27.3-48.6c-0.1-0.8-0.1-1.7-0.2-2.5v-0.2
		c-0.1-2.1-0.3-4.2-0.6-6.2c-0.6-3.6-1.3-6.7-2.1-9.4c-4.5-14.5-12.8-24.7-24.5-30.4c-0.6-0.3-1.3-0.5-1.9-0.5c-2.1,0-3.8,1.5-4.6,4
		c-1.1,3.3,0.1,6.8,2.8,8.4c0.4,0.2,0.8,0.4,1.2,0.6l0.5,0.3c8.4,4.4,14.9,13.2,17.7,24.2c2.8,11,1.6,22.8-3.3,32.3
		c-3.8,7.4-9,12.7-16.1,16.2c-1.3,0.6-2.3,1.8-2.8,3.3c-0.5,1.6-0.5,3.4,0.1,5.1C242.2,218.9,243.2,220.1,244.5,220.7z"/>
	<g>
		<path class="st0" d="M213.5,114.2V230H97.7V114.2H213.5 M213.5,101.3H97.7c-7.1,0-12.9,5.8-12.9,12.9V230
			c0,7.1,5.8,12.9,12.9,12.9h115.8c7.1,0,12.9-5.8,12.9-12.9V114.2C226.4,107.1,220.6,101.3,213.5,101.3L213.5,101.3z"/>
		<path class="st0" d="M186.6,141.1v62h-62v-62H186.6 M186.6,128.2h-62c-7.1,0-12.9,5.8-12.9,12.9v62c0,7.1,5.8,12.9,12.9,12.9h62
			c7.1,0,12.9-5.8,12.9-12.9v-62C199.5,134,193.7,128.2,186.6,128.2L186.6,128.2z"/>
		<rect x="145.2" y="161.8" class="st0" width="20.7" height="20.7"/>
	</g>
</g>
</svg>
