<?xml version="1.0" encoding="utf-8"?>
<!-- Generator: Adobe Illustrator 21.1.0, SVG Export Plug-In . SVG Version: 6.00 Build 0)  -->
<svg version="1.1" id="圖層_1" xmlns="http://www.w3.org/2000/svg" xmlns:xlink="http://www.w3.org/1999/xlink" x="0px" y="0px"
	 viewBox="0 0 311.7 253.7" style="enable-background:new 0 0 311.7 253.7;" xml:space="preserve">
<style type="text/css">
	.st0{fill:#0075D7;}
</style>
<g>
	<path class="st0" d="M141.9,162.2c0-3.4,0-6.9,0-10.3c0-2.1-1-3.6-3.1-4.5c-9.9-4.3-19.7-8.6-28.9-12.7c-4.1-1.8-8.1-3.6-12.2-5.4
		l-6.1-2.7h-2.2l-5.9,2.6c-3.8,1.7-7.6,3.4-11.4,5c-10,4.4-20,8.8-30,13.1c-2.1,0.9-3.1,2.5-3.1,4.6c0,4.4,0,8.7,0,13.1v0.5
		c0,8.3,0,17,0.1,25.4c0.1,7.7,3.1,14.4,6.1,19.8c4.5,8.3,11.1,15.9,20.1,23c6.6,5.2,14,9.9,23.5,14.8l0.4,0.2h2.3l0.4-0.2
		c8-4.1,14.3-7.9,19.9-12c9.9-7.2,16.9-14.3,22-22.5c5.4-8.6,8.1-17.6,8.2-26.9C141.9,178.9,141.9,170.4,141.9,162.2z M132.7,188.3
		c-0.3,9.3-3.8,18-10.9,26.7c-6.1,7.5-14.1,14-25.2,20.6c-1.8,1-3.7,2.1-6.1,3.4l0,0c-0.1,0-0.6,0-0.6,0
		c-11.5-6.1-20.1-12.3-27.1-19.6c-7.3-7.6-11.9-15.4-13.9-23.7c-0.7-2.7-0.8-5.7-0.9-8.6v-0.7c-0.1-3.1-0.1-6.2-0.1-9.2
		c0-1.1,0-2.1,0-3.2v-5.2c0-4.4,0-8.9,0-13.4c0-0.5,0.1-0.7,0.6-0.9c13.7-6,27.5-12,41-18c0.7-0.3,1.1-0.3,1.8,0
		c12.9,5.7,26.6,11.7,40.9,17.9c0.6,0.3,0.7,0.4,0.7,0.9c0,3.7,0,7.3,0,11C132.8,173.6,132.8,181,132.7,188.3z"/>
	<path class="st0" d="M116.6,165.3c-1.8-0.4-3.6,0.1-5,1.5c-3.4,3.4-6.8,6.8-10.3,10.2l-16.5,16.5l-4.9-4.9
		c-2.2-2.2-4.5-4.5-6.7-6.7c-1.3-1.3-2.8-1.9-4.3-1.7c-2.1,0.2-3.7,1.5-4.3,3.4c-0.6,2-0.2,3.9,1.3,5.3c3.6,3.5,7.1,7.1,10.6,10.6
		l4.1,4.1c1.4,1.4,2.7,2,4.1,2l0,0c1.4,0,2.7-0.7,4.1-2l29.5-29.5l0.1-0.1c0.3-0.3,0.5-0.5,0.8-0.9c1.1-1.4,1.4-3,0.9-4.6
		C119.6,167,118.3,165.7,116.6,165.3z"/>
	<path class="st0" d="M180.5,187.5c1.6,1.4,3.2,2,5,2c0.9,0,1.9-0.2,2.9-0.6c2.9-1.1,4.5-3.1,4.8-6.2c0.1-1.3,0.1-2.6,0.1-4v-0.4
		c0-4.4,0-8.7,0-13.1v-1.7c0-3.4,0-6.9,0-10.3c0-2.6-0.5-4.4-1.6-5.8c-1.8-2.4-5.2-3.6-8.2-2.8s-5.3,3.4-5.4,6.2
		c-0.2,3.7-0.1,7.5-0.1,11.3c0,1.6,0,3.3,0,4.9v2.3h-0.2v2.6c0,3.1,0,6.2,0,9.3C177.9,184,178.7,186,180.5,187.5z"/>
	<path class="st0" d="M272.2,122c0-10.5-4.7-18.3-13.7-23.1c-5.1-2.8-6.2-6.1-6.2-10.6c0-1.3,0-2.6,0-3.8c0-7.8,0-15.9-1.1-23.6
		c-4.6-29.6-30.8-53.3-61.1-55c-17.8-1-33.5,4.1-46.8,15.1c-15,12.5-23.1,28.5-24.2,47.7c-0.3,6-0.3,12.2-0.2,18.2
		c0,1.7,0,3.4,0,5.1c0,3.4-1.9,4.7-3.6,5.5c-10.7,5.1-16.2,13.4-16.2,24.7h14.2c0.4-7.9,5.5-12.7,13.5-12.7c14,0,28.1,0,42.1,0h16.9
		h17c13.8,0,27.7,0,41.5,0c8.6,0,13.8,5.2,13.8,13.9c0,29.1,0,58.3,0,87.4c0,8.5-5.2,13.7-13.7,13.7c-19.6,0-39.2,0-58.7,0
		c-15.8,0-31.6,0-47.4,0v14.2h110.6c0.3-0.1,0.7-0.3,1.2-0.4c13.1-2.5,22.2-13.5,22.2-26.8c0-7.5,0-15,0-22.5
		C272.3,167,272.3,144.3,272.2,122z M238.2,88.3c0,1.3,0,2.6,0,3.9v2.9H133.1v-4.5c0-1.2,0-2.3,0-3.4c0.1-2.3,0.1-4.6,0.1-6.9
		c0-5.2,0-10.6,0.7-16c2.7-21.4,19.7-39.3,41.2-43.5c14.2-2.8,28.4,0.1,40.1,8c11.5,7.8,19.4,19.8,22,33.8c0.8,4.3,0.8,8.6,0.9,12.8
		c0,1.5,0,2.9,0.1,4.3C238.3,82.7,238.2,85.4,238.2,88.3z"/>
</g>
</svg>
