<?xml version="1.0" encoding="utf-8"?>
<!-- Generator: Adobe Illustrator 21.1.0, SVG Export Plug-In . SVG Version: 6.00 Build 0)  -->
<svg version="1.1" id="圖層_1" xmlns="http://www.w3.org/2000/svg" xmlns:xlink="http://www.w3.org/1999/xlink" x="0px" y="0px"
	 viewBox="0 0 311.7 253.7" style="enable-background:new 0 0 311.7 253.7;" xml:space="preserve">
<style type="text/css">
	.st0{fill:#0075D7;}
</style>
<g>
	<path class="st0" d="M303.1,145.9c-1.4-5.1-4.3-8.9-9-11.3c-2.9-1.5-6.1-2-9.4-1.8c-1.9,0.2-2.7-0.5-3.2-2.3c-0.6-2-1.5-4-2.3-5.9
		c-1.6-3.6-1.6-3.5,1.1-6.4c6.5-6.8,6.7-16.9,0.3-23.9c-2.9-3.2-6-6.2-9.2-9.2c-7-6.4-17.1-6.2-23.9,0.4c-0.9,0.9-1.8,1.9-2.6,2.8
		c-2.7-1.2-4.9-2.6-7.3-3.1c-3.8-0.9-4.8-2.9-4.8-6.6c0-8.9-7.7-16.1-16.7-16.2c-4.1,0-8.3,0-12.4,0c-7.8,0-14.8,5.6-16.4,13.3
		c-0.4,2.1-0.3,4.3-0.5,6.5c-0.1,0.6-0.5,1.4-0.9,1.6c-3.6,1.5-7.2,2.9-11.2,4.5c-0.8-0.9-1.7-2.1-2.8-3.2
		c-6.4-5.9-16.2-6.2-22.8-0.5c-3.6,3.2-7,6.6-10.2,10.2c-5.9,6.7-5.6,16.6,0.5,23c1,1.1,2.2,2,3.2,2.9c-0.7,1.5-1.2,2.6-1.8,3.8
		c-0.5,1.2-1.3,2.4-1.5,3.7c-0.7,3.8-2.7,4.7-6.5,4.7c-9.1,0-16.3,7.7-16.3,16.9c0,4,0,8,0,12c0.1,5.6,2.4,10.1,6.8,13.5
		c3.7,3,8.1,3.8,12.7,3.5c1.3-0.1,1.8,0.3,2.2,1.5c0.7,2.1,1.6,4.2,2.4,6.3c0.5,1.3,1.8,2.6,1.6,3.8s-1.8,2.2-2.7,3.2
		c-6.2,6.6-6.5,16.5-0.5,23.2c3.1,3.5,6.5,6.9,10.1,10c4.3,3.8,9.4,4.9,15,3.8c4.1-0.8,7.3-3.2,10-6.2c0.8-0.9,1.4-1.1,2.6-0.5
		c2.4,1.2,4.9,2.2,7.3,3.2c2.9,1.1,2.9,1.1,2.9,4.3c0,6.9,2.9,12.2,8.8,15.7c1.7,1,3.7,1.5,5.5,2.2c5.7,0,11.4,0,17.1,0
		c2.3-1,4.9-1.6,7-2.9c5.3-3.5,7.8-8.6,7.7-15c0-3.1,0-3.1,3-4.2c2.9-1.1,5.8-2.4,9.1-3.8c0.9,1,1.8,2.2,2.9,3.2
		c6.3,5.9,16.1,6.3,22.6,0.6c3.8-3.3,7.3-6.8,10.6-10.6c5.7-6.5,5.3-16.3-0.6-22.6c-1-1.1-2.3-2-3.2-2.8c1.6-4,3-7.7,4.5-11.2
		c0.2-0.5,1.1-0.8,1.6-0.9c2.4-0.3,4.9-0.1,7.2-0.7c6.4-1.8,10.4-6.2,12.1-12.6c0.1-0.5,0.3-0.9,0.4-1.4c0-5.7,0-11.4,0-17.1
		C303.3,146.6,303.2,146.3,303.1,145.9z M292.5,161.6c-0.1,3.7-2.8,6.2-6.5,6.2c-2.5,0-5,0-7.5,0c-2.9,0-4.9,1.5-5.7,4.2
		c-1.6,5.8-3.9,11.3-6.9,16.6c-1.5,2.5-1.1,4.8,1,7c1.8,1.8,3.6,3.6,5.4,5.4c2.6,2.7,2.6,6.2,0,9c-2.7,2.8-5.4,5.5-8.1,8.1
		s-6.2,2.6-9-0.1c-1.8-1.7-3.5-3.5-5.3-5.3c-2.3-2.2-4.5-2.6-7.3-1c-5.1,2.9-10.6,5.2-16.2,6.7c-2.9,0.8-4.3,2.8-4.3,5.7
		c0,2.5,0,5,0,7.5c0,3.7-2.6,6.3-6.2,6.5c-1.9,0.1-3.9,0-5.8,0c-1.9,0-3.8,0-5.7,0c-3.8-0.1-6.4-2.7-6.4-6.5c0-2.5,0-5,0-7.5
		c0-2.9-1.5-4.9-4.2-5.7c-5.8-1.6-11.3-3.9-16.6-6.9c-2.5-1.4-4.9-1-7,1c-1.8,1.7-3.5,3.5-5.3,5.3c-2.9,2.8-6.4,2.8-9.2,0
		c-2.7-2.6-5.3-5.2-7.9-7.9c-2.8-2.8-2.7-6.4,0.1-9.2c1.7-1.7,3.5-3.4,5.1-5.2c2.2-2.3,2.5-4.5,1-7.3c-2.9-5.1-5.2-10.6-6.7-16.3
		c-0.8-2.9-2.8-4.3-5.7-4.3c-2.5,0-5,0-7.5,0c-3.6,0-6.3-2.5-6.4-6.1c-0.1-4-0.1-8,0-12c0.1-3.5,2.8-6,6.3-6c2.6,0,5.1,0,7.7,0
		c2.9,0,4.9-1.4,5.7-4.2c1.6-5.8,3.9-11.3,6.9-16.6c1.4-2.5,1.1-4.8-1-7c-1.7-1.8-3.5-3.5-5.3-5.3c-2.8-2.8-2.8-6.4,0-9.2
		c2.6-2.7,5.2-5.3,7.9-7.9c2.8-2.8,6.4-2.7,9.2,0.1c1.7,1.7,3.4,3.5,5.2,5.1c2.3,2.2,4.5,2.6,7.3,1c5.1-2.9,10.6-5.2,16.2-6.7
		c2.9-0.8,4.3-2.7,4.3-5.7c0-2.5,0-5,0-7.5c0-3.6,2.5-6.3,6.1-6.4c4-0.1,8-0.1,12,0c3.6,0.1,6,2.8,6,6.5c0,2.5,0,5,0,7.5
		c0,2.9,1.4,4.9,4.2,5.7c5.8,1.6,11.3,3.9,16.6,6.9c2.5,1.5,4.8,1.1,7-1c1.8-1.8,3.6-3.6,5.4-5.4c2.7-2.6,6.2-2.6,8.9,0
		c2.8,2.7,5.5,5.4,8.1,8.1s2.6,6.2-0.1,9c-1.7,1.8-3.5,3.5-5.3,5.3c-2.2,2.3-2.6,4.5-1,7.3c2.9,5.1,5.2,10.6,6.7,16.2
		c0.8,2.9,2.8,4.3,5.7,4.3c2.5,0,5,0,7.5,0c3.7,0,6.4,2.6,6.5,6.2C292.6,153.9,292.6,157.8,292.5,161.6z"/>
	<path class="st0" d="M127.3,117.2c4.1-4.7,3.8-11.8-0.4-16.4c-0.7-0.8-1.6-1.5-2.3-2.1c1.2-2.9,2.2-5.6,3.3-8.2
		c0.1-0.3,0.8-0.6,1.2-0.7c1.7-0.2,3.6-0.1,5.2-0.5c4.7-1.3,7.6-4.5,8.8-9.2c0.1-0.3,0.2-0.7,0.3-1c0-4.2,0-8.3,0-12.5
		c-0.1-0.3-0.2-0.5-0.3-0.8c-1-3.7-3.2-6.4-6.5-8.2c-2.1-1.1-4.4-1.5-6.8-1.3c-1.4,0.1-1.9-0.4-2.3-1.7c-0.4-1.5-1.1-2.9-1.7-4.3
		c-1.1-2.6-1.1-2.6,0.8-4.6c4.8-5,4.9-12.3,0.2-17.3c-2.1-2.3-4.3-4.5-6.6-6.6c-5.1-4.6-12.4-4.5-17.3,0.3c-0.7,0.7-1.3,1.4-1.9,2
		c-1.9-0.8-3.6-1.9-5.3-2.3c-2.8-0.6-3.5-2.1-3.5-4.8c0-6.5-5.6-11.7-12.1-11.7c-3,0-6,0-9,0c-5.7,0-10.7,4.1-11.9,9.6
		c-0.3,1.5-0.2,3.2-0.4,4.7c0,0.4-0.3,1-0.7,1.2C55.5,22,52.9,23,50,24.2c-0.6-0.7-1.3-1.6-2.1-2.3c-4.6-4.3-11.8-4.5-16.5-0.3
		c-2.6,2.3-5.1,4.8-7.4,7.4c-4.3,4.8-4.1,12,0.3,16.7c0.7,0.8,1.6,1.4,2.3,2.1c-0.5,1.1-0.9,1.9-1.3,2.7c-0.4,0.9-0.9,1.7-1.1,2.7
		c-0.5,2.7-2,3.4-4.7,3.4c-6.6,0-11.8,5.6-11.8,12.3c0,2.9,0,5.8,0,8.7c0,4.1,1.8,7.3,4.9,9.8c2.7,2.1,5.9,2.7,9.2,2.5
		c0.9-0.1,1.3,0.3,1.6,1.1c0.5,1.5,1.2,3,1.8,4.5c0.4,0.9,1.3,1.9,1.1,2.7c-0.2,0.9-1.3,1.6-2,2.3c-4.5,4.8-4.7,12-0.4,16.8
		c2.3,2.6,4.8,5,7.3,7.3c3.1,2.8,6.8,3.5,10.9,2.7c3-0.6,5.3-2.3,7.3-4.5c0.6-0.6,1-0.8,1.9-0.4c1.7,0.9,3.5,1.6,5.3,2.3
		c2.1,0.8,2.1,0.8,2.1,3.1c0,5,2.1,8.9,6.4,11.4c1.2,0.7,2.7,1.1,4,1.6c4.2,0,8.3,0,12.5,0c1.7-0.7,3.6-1.1,5.1-2.1
		c3.9-2.5,5.6-6.3,5.6-10.9c0-2.3,0-2.2,2.2-3.1c2.1-0.8,4.2-1.7,6.6-2.8c0.6,0.7,1.3,1.6,2.1,2.3c4.6,4.3,11.7,4.5,16.4,0.4
		C122.3,122.5,124.9,120,127.3,117.2z M108.4,118.4c-1.3-1.3-2.5-2.6-3.8-3.8c-1.7-1.6-3.3-1.9-5.3-0.7c-3.7,2.1-7.7,3.7-11.8,4.9
		c-2.1,0.6-3.1,2-3.2,4.2c0,1.8,0,3.6,0,5.4c0,2.7-1.9,4.6-4.5,4.7c-1.4,0.1-2.8,0-4.2,0c-1.4,0-2.7,0-4.1,0c-2.8-0.1-4.6-2-4.6-4.7
		c0-1.8,0-3.6,0-5.4c0-2.1-1.1-3.6-3.1-4.1c-4.2-1.2-8.2-2.8-12-5c-1.8-1-3.5-0.8-5.1,0.7c-1.3,1.3-2.6,2.6-3.8,3.8
		c-2.1,2-4.6,2-6.7,0c-1.9-1.9-3.8-3.8-5.7-5.7c-2-2.1-2-4.6,0.1-6.7c1.2-1.3,2.5-2.5,3.7-3.8c1.6-1.7,1.9-3.3,0.7-5.3
		c-2.1-3.7-3.7-7.7-4.9-11.8c-0.6-2.1-2-3.1-4.2-3.1c-1.8,0-3.6,0-5.4,0c-2.6,0-4.6-1.8-4.7-4.4c-0.1-2.9-0.1-5.8,0-8.7
		c0.1-2.5,2-4.3,4.6-4.4c1.9,0,3.7,0,5.6,0c2.1,0,3.6-1,4.1-3.1c1.2-4.2,2.8-8.2,5-12c1.1-1.8,0.8-3.5-0.7-5.1
		c-1.3-1.3-2.6-2.6-3.8-3.8c-2-2.1-2-4.6,0-6.7c1.9-1.9,3.8-3.8,5.7-5.7c2.1-2,4.6-2,6.7,0.1c1.3,1.2,2.5,2.5,3.8,3.7
		c1.6,1.6,3.3,1.9,5.3,0.7c3.7-2.1,7.7-3.7,11.8-4.9c2.1-0.6,3.1-2,3.2-4.2c0-1.8,0-3.6,0-5.4c0-2.6,1.8-4.6,4.4-4.7
		c2.9-0.1,5.8-0.1,8.7,0c2.6,0.1,4.4,2.1,4.4,4.7c0,1.8,0,3.6,0,5.4c0,2.1,1,3.6,3.1,4.1c4.2,1.2,8.2,2.8,12,5
		c1.8,1.1,3.5,0.8,5.1-0.7c1.3-1.3,2.6-2.6,3.9-3.9c2-1.9,4.5-1.9,6.5,0s4,3.9,5.9,5.9s1.9,4.5,0,6.5c-1.3,1.3-2.6,2.6-3.8,3.9
		c-1.6,1.7-1.9,3.3-0.7,5.3c2.1,3.7,3.7,7.7,4.9,11.8c0.6,2.1,2,3.1,4.2,3.2c1.8,0,3.6,0,5.4,0c2.7,0,4.6,1.9,4.7,4.5
		c0.1,2.8,0.1,5.7,0,8.5c-0.1,2.7-2,4.5-4.7,4.5c-1.8,0-3.6,0-5.4,0c-2.1,0-3.6,1.1-4.1,3.1c-1.2,4.2-2.8,8.2-5,12
		c-1.1,1.8-0.8,3.5,0.7,5.1c1.3,1.3,2.6,2.6,3.9,3.9c1.9,2,1.9,4.5,0,6.5s-3.9,4-5.9,5.9C112.9,120.3,110.4,120.3,108.4,118.4z"/>
	<path class="st0" d="M97.2,68c-0.9-3.4-5.4-4.3-7.6-1.5l-2.7,3.6L57.4,47.6c-1.9-1.4-4.6-1.1-6,0.8L47.9,53c-1.4,1.9-1.1,4.6,0.8,6
		l29.5,22.5l-2.7,3.6c-2.2,2.8-0.1,6.9,3.4,6.9h19.3c2.8,0,4.9-2.7,4.2-5.5L97.2,68z"/>
	<path class="st0" d="M249.6,174.7l-45-34.2l4.1-5.4c3.3-4.3,0.2-10.6-5.2-10.6l-29.4,0.1c-4.3,0-7.5,4.1-6.3,8.3l7.8,28.4
		c1.4,5.2,8.3,6.6,11.6,2.2l4.1-5.4l45,34.2c2.9,2.2,7,1.6,9.2-1.3l5.4-7.1C253,181,252.4,176.9,249.6,174.7z"/>
</g>
</svg>
