<?xml version="1.0" encoding="utf-8"?>
<!-- Generator: Adobe Illustrator 21.1.0, SVG Export Plug-In . SVG Version: 6.00 Build 0)  -->
<svg version="1.1" id="圖層_1" xmlns="http://www.w3.org/2000/svg" xmlns:xlink="http://www.w3.org/1999/xlink" x="0px" y="0px"
	 viewBox="0 0 311.7 253.7" style="enable-background:new 0 0 311.7 253.7;" xml:space="preserve">
<style type="text/css">
	.st0{fill:#0075D7;}
</style>
<g>
	<path class="st0" d="M162.1,40.8H78.9c-3.7,0-6.6,3-6.6,6.6c0,3.7,3,6.6,6.6,6.6h83.2c3.7,0,6.6-3,6.6-6.6
		C168.7,43.8,165.7,40.8,162.1,40.8z"/>
	<path class="st0" d="M168.7,73.8c0-3.7-3-6.6-6.6-6.6H78.9c-3.7,0-6.6,3-6.6,6.6s3,6.6,6.6,6.6h83.2
		C165.7,80.4,168.7,77.4,168.7,73.8z"/>
	<path class="st0" d="M78.9,95.2c-3.7,0-6.6,3-6.6,6.6l0,0c0,3.7,3,6.6,6.6,6.6h22.4c3.7,0,6.6-3,6.6-6.6l0,0c0-3.7-3-6.6-6.6-6.6
		H78.9z"/>
	<path class="st0" d="M272.5,164.4c0-0.1-0.1-0.2-0.1-0.3c-1.3-4.8-4.2-8.5-8.6-10.8c-2.6-1.3-5.4-1.9-8.5-1.8
		c-0.4-1.4-1-2.8-1.6-4.1l-0.3-0.7c-0.1-0.3-0.3-0.7-0.4-1c0.2-0.2,0.5-0.5,0.8-0.8c6.2-6.5,6.3-16.3,0.3-22.8
		c-2.5-2.7-4.9-5.2-7.4-7.4c-6.7-6.1-16.3-5.9-22.8,0.4c-0.2,0.2-0.5,0.5-0.7,0.7c-1.4-0.7-2.8-1.4-4.5-1.8
		c-1.3-0.3-1.5-0.3-1.5-2.4c0-8.4-7.4-15.6-16-15.7c-3.3,0-6.5,0-9.8,0c-7.6,0-14.2,5.4-15.8,12.8c-0.3,1.2-0.3,2.4-0.4,3.6
		c0,0.4,0,0.8-0.1,1.2c-1.8,0.7-3.6,1.5-5.5,2.2l-0.3,0.1c-0.3-0.4-0.7-0.8-1.1-1.2c-6.2-5.8-15.6-6-21.9-0.4
		c-2.9,2.5-5.7,5.3-8.3,8.3c-5.6,6.3-5.5,15.8,0.4,22.1c0.3,0.4,0.7,0.7,1.1,1c-0.2,0.4-0.3,0.7-0.5,1c-0.1,0.2-0.2,0.5-0.3,0.7
		c-0.4,0.8-0.9,1.8-1.1,2.9c-0.2,1.1-0.2,1.3-2.2,1.3c-8.6,0-15.7,7.3-15.8,16.2c0,3.2,0,6.4,0,9.5c0.1,5.2,2.2,9.6,6.4,12.9
		c3,2.4,6.7,3.5,11.1,3.4c0.4,1.2,0.9,2.4,1.4,3.6l0.3,0.7c0.2,0.5,0.5,1,0.7,1.4c-0.1,0.1-0.1,0.1-0.2,0.2
		c-0.3,0.3-0.6,0.6-0.9,0.9c-5.9,6.3-6.1,15.9-0.4,22.2c2.4,2.7,5.2,5.4,8.2,8.1c3.9,3.5,8.8,4.7,14.3,3.6c3.3-0.6,6.1-2.3,8.9-5.2
		c1.7,0.8,3.5,1.5,5.2,2.2l0.1,0.1c0.1,0,0.2,0.1,0.3,0.1c0,0.2,0,0.3,0,0.5c0,6.5,2.9,11.7,8.4,14.9c1.2,0.7,2.4,1.1,3.5,1.5
		c0.4,0.2,0.9,0.3,1.3,0.5l0.5,0.2h14.7l0.5-0.2c0.5-0.2,1.1-0.4,1.6-0.6c1.4-0.5,2.9-1,4.4-2c4.9-3.2,7.5-8.2,7.4-14.3
		c0-0.1,0-0.3,0-0.4c0.1,0,0.2-0.1,0.3-0.1l0.2-0.1c1.6-0.6,3.2-1.3,4.9-2c0.1-0.1,0.3-0.1,0.4-0.2c0.3,0.4,0.7,0.8,1.1,1.2
		c6.2,5.7,15.5,5.9,21.7,0.5c3-2.6,5.9-5.5,8.6-8.6c5.4-6.2,5.2-15.6-0.5-21.7c-0.4-0.4-0.8-0.8-1.2-1.1l0.1-0.3
		c0.8-1.9,1.5-3.8,2.2-5.6c0.4,0,0.8-0.1,1.3-0.1c1.3-0.1,2.8-0.1,4.2-0.5c5.9-1.7,9.9-5.8,11.6-12c0.1-0.2,0.1-0.4,0.2-0.7l0.2-0.8
		v-14.5L272.5,164.4z M243,184.7c-1.2,4.3-2.9,8.5-5.1,12.4c-1.8,3.1-1.3,6.3,1.2,9c0.7,0.7,1.4,1.4,2.1,2.1
		c0.7,0.7,1.4,1.4,2.1,2.1c1,1,1,2,0,3c-2.2,2.2-4.3,4.4-6.3,6.3c-1,1-2,0.9-3,0c-0.7-0.7-1.4-1.4-2.1-2.1c-0.7-0.7-1.4-1.4-2.1-2.1
		c-2.8-2.7-5.9-3.1-9.2-1.2c-3.7,2.1-7.8,3.8-12.1,5c-3.5,1-5.5,3.6-5.6,7.3c0,1,0,2,0,3s0,2,0,2.9c0,1.4-0.8,2.2-2.1,2.2
		c-1,0-2,0-3,0c-0.5,0-1,0-1.5,0l0,0h-1.4c-1,0-2,0-3,0c-1.4,0-2.2-0.8-2.2-2.3c0-0.9,0-1.8,0-2.7c0-1.1,0-2.1,0-3.2
		c0-3.6-2.1-6.3-5.5-7.2c-4.3-1.2-8.5-2.9-12.4-5.1c-3.1-1.8-6.3-1.3-9,1.2c-0.8,0.7-1.5,1.5-2.2,2.2c-0.6,0.7-1.3,1.3-2,1.9
		c-1.1,1.1-2.1,1.1-3.2,0c-2.3-2.2-4.3-4.2-6.2-6.2c-1.1-1.1-1.1-2.1,0.1-3.2c0.6-0.6,1.2-1.2,1.8-1.8c0.7-0.7,1.5-1.5,2.2-2.2
		c2.7-2.8,3.1-5.9,1.2-9.2c-2.1-3.7-3.8-7.8-5-12.1c-1-3.5-3.6-5.5-7.3-5.6c-1,0-2,0-3,0s-1.9,0-2.9,0s-2.1-0.5-2.2-2
		c-0.1-3.2-0.1-6.3,0-9.3c0-1.2,0.9-1.9,2.1-1.9c1,0,2,0,3.1,0c1,0,2,0,3,0c3.6,0,6.3-2.1,7.2-5.5c1.2-4.3,2.9-8.5,5.1-12.4
		c1.8-3.1,1.3-6.3-1.2-9c-0.8-0.8-1.5-1.6-2.3-2.3c-0.6-0.6-1.2-1.2-1.9-1.9c-1.1-1.1-1.1-2.1,0-3.2c2.1-2.1,4.2-4.2,6.2-6.2
		c1.1-1.1,2.1-1.1,3.2,0.1c0.6,0.6,1.3,1.3,1.9,1.9c0.7,0.7,1.4,1.4,2.2,2.1c2.8,2.7,5.9,3.1,9.2,1.2c3.7-2.1,7.8-3.8,12.1-5
		c3.5-1,5.5-3.6,5.6-7.3c0-1,0-2,0-3s0-1.9,0-2.9s0.5-2.1,2-2.2c3.2-0.1,6.3-0.1,9.3,0c1.8,0.1,1.9,1.7,1.9,2.2c0,0.9,0,1.9,0,2.8
		c0,1,0,2.1,0,3.1c0,3.6,2.1,6.3,5.5,7.3c4.4,1.2,8.5,2.9,12.4,5.1c3.1,1.8,6.3,1.4,9-1.2c0.8-0.7,1.5-1.5,2.3-2.2
		c0.7-0.7,1.3-1.4,2-2c1-1,2-1,3,0c2.2,2.2,4.4,4.3,6.3,6.3c1,1,0.9,2-0.1,3c-0.7,0.7-1.4,1.5-2.2,2.2c-0.7,0.7-1.3,1.3-2,2
		c-2.7,2.8-3.1,5.9-1.2,9.2c2.1,3.7,3.8,7.8,5,12.1c1,3.5,3.6,5.5,7.3,5.6c1,0,2,0,3.1,0c1,0,1.9,0,2.8,0c1.4,0,2.2,0.8,2.2,2.1
		c0.1,3.1,0.1,6.2,0,9.1c0,1.8-1.6,2.1-2.2,2.1c-0.9,0-1.9,0-2.8,0c-1,0-2.1,0-3.1,0C246.6,179.3,243.9,181.4,243,184.7z"/>
	<path class="st0" d="M196.4,137.7c-9.3-0.1-18,3.5-24.7,10.1s-10.4,15.4-10.5,24.8c-0.2,19.2,15.5,35,34.9,35.2c0.1,0,0.2,0,0.4,0
		c9,0,17.6-3.5,24.2-10c6.8-6.6,10.5-15.5,10.6-24.9C231.4,153.6,215.8,137.9,196.4,137.7z M216.7,172.6c0,5.5-2.1,10.7-5.9,14.5
		c-3.8,3.9-9,6-14.5,6l0,0c-5.5,0-10.6-2.1-14.5-6c-3.9-3.8-6-9-6-14.5c0-11.2,9.1-20.4,20.4-20.4c0,0,0,0,0.1,0
		c5.5,0,10.6,2.1,14.5,5.9C214.5,162,216.7,167.1,216.7,172.6z"/>
	<path class="st0" d="M52.4,19.2h168.3v74.3h14V19.2c0-7.7-6.3-14-14-14H52.4c-7.7,0-14,6.3-14,14V223c0,7.7,6.3,14,14,14h69.5v-14
		H52.4V19.2z"/>
</g>
</svg>
