<?xml version="1.0" encoding="utf-8"?>
<!-- Generator: Adobe Illustrator 16.0.0, SVG Export Plug-In . SVG Version: 6.00 Build 0)  -->
<!DOCTYPE svg PUBLIC "-//W3C//DTD SVG 1.1//EN" "http://www.w3.org/Graphics/SVG/1.1/DTD/svg11.dtd">
<svg version="1.1" id="圖層_1" xmlns="http://www.w3.org/2000/svg" xmlns:xlink="http://www.w3.org/1999/xlink" x="0px" y="0px"
	 width="114.359px" height="114.359px" viewBox="0 0 114.359 114.359" enable-background="new 0 0 114.359 114.359"
	 xml:space="preserve">
<path d="M91.315,67.323c-1.247-1.248-2.909-1.935-4.676-1.935c-1.77,0-3.431,0.687-4.679,1.935l-9.088,9.087
	c-0.93,0.932-2.171,1.444-3.49,1.444c-1.321,0-2.562-0.513-3.492-1.444L37.947,48.468c-1.925-1.925-1.925-5.058,0-6.984l9.088-9.087
	c1.249-1.25,1.938-2.911,1.938-4.677s-0.689-3.427-1.938-4.677L25.929,1.937C24.68,0.687,23.02,0,21.252,0
	c-1.766,0-3.428,0.687-4.677,1.937L9.287,9.226c-12.381,12.382-12.381,32.529,0,44.911l50.934,50.935
	c5.988,5.988,13.964,9.287,22.456,9.287c8.491,0,16.468-3.299,22.456-9.288l7.289-7.289c2.577-2.578,2.577-6.773,0-9.354
	L91.315,67.323z M82.677,107.941c-6.766,0-13.124-2.635-17.907-7.418L13.834,49.589c-4.774-4.775-7.405-11.135-7.405-17.908
	c0-6.772,2.631-13.132,7.405-17.907l7.29-7.289c0.043-0.044,0.094-0.053,0.128-0.053c0.035,0,0.085,0.009,0.129,0.053l21.107,21.106
	c0.059,0.061,0.06,0.196,0,0.257l-9.089,9.088c-4.433,4.434-4.433,11.648,0,16.081l27.942,27.942c2.145,2.144,5,3.325,8.041,3.325
	c3.04,0,5.896-1.182,8.04-3.325l9.088-9.089c0.043-0.044,0.094-0.053,0.128-0.053s0.084,0.009,0.128,0.053l21.106,21.106
	c0.061,0.062,0.062,0.195,0,0.257l-7.29,7.289C95.802,105.306,89.441,107.941,82.677,107.941"/>
</svg>
