<?xml version="1.0" encoding="utf-8"?>
<!-- Generator: Adobe Illustrator 16.0.0, SVG Export Plug-In . SVG Version: 6.00 Build 0)  -->
<!DOCTYPE svg PUBLIC "-//W3C//DTD SVG 1.1//EN" "http://www.w3.org/Graphics/SVG/1.1/DTD/svg11.dtd">
<svg version="1.1" id="圖層_1" xmlns="http://www.w3.org/2000/svg" xmlns:xlink="http://www.w3.org/1999/xlink" x="0px" y="0px"
	 width="114.359px" height="114.359px" viewBox="0 0 114.359 114.359" enable-background="new 0 0 114.359 114.359"
	 xml:space="preserve">
<path d="M66.925,6.431c22.607,0,41.002,18.394,41.002,41.002c0,1.774,1.442,3.217,3.216,3.217c1.772,0,3.217-1.443,3.217-3.217
	C114.359,21.279,93.079,0,66.925,0c-1.773,0-3.217,1.443-3.217,3.216C63.708,4.989,65.151,6.431,66.925,6.431"/>
<path d="M66.925,22.19c13.92,0,25.243,11.324,25.243,25.243c0,1.775,1.443,3.217,3.217,3.217c1.772,0,3.217-1.442,3.217-3.217
	c0-17.466-14.21-31.676-31.677-31.676c-1.773,0-3.217,1.443-3.217,3.217S65.151,22.19,66.925,22.19"/>
<path d="M66.925,37.948c5.229,0,9.484,4.256,9.484,9.485c0,1.775,1.443,3.217,3.217,3.217c1.774,0,3.217-1.442,3.217-3.217
	c0-8.776-7.142-15.917-15.918-15.917c-1.773,0-3.217,1.443-3.217,3.216C63.708,36.506,65.151,37.948,66.925,37.948"/>
</svg>
