<?xml version="1.0" encoding="utf-8"?>
<!-- Generator: Adobe Illustrator 16.0.0, SVG Export Plug-In . SVG Version: 6.00 Build 0)  -->
<!DOCTYPE svg PUBLIC "-//W3C//DTD SVG 1.1//EN" "http://www.w3.org/Graphics/SVG/1.1/DTD/svg11.dtd">
<svg version="1.1" id="圖層_1" xmlns="http://www.w3.org/2000/svg" xmlns:xlink="http://www.w3.org/1999/xlink" x="0px" y="0px"
	 width="113.699px" height="113.699px" viewBox="0 0 113.699 113.699" enable-background="new 0 0 113.699 113.699"
	 xml:space="preserve">
<path d="M78.068,53.029H60.672V24.067c0-2.11-1.711-3.821-3.822-3.821c-2.11,0-3.82,1.711-3.82,3.821V56.85
	c0,2.11,1.71,3.821,3.82,3.821h21.219c2.11,0,3.821-1.711,3.821-3.821S80.179,53.029,78.068,53.029"/>
<path d="M56.85,0C25.502,0,0,25.502,0,56.851c0,31.346,25.502,56.849,56.85,56.849S113.7,88.196,113.7,56.851
	C113.7,25.502,88.197,0,56.85,0 M56.85,106.058c-27.134,0-49.208-22.074-49.208-49.207c0-27.135,22.074-49.209,49.208-49.209
	c27.133,0,49.207,22.074,49.207,49.209C106.057,83.983,83.982,106.058,56.85,106.058"/>
</svg>
