<?xml version="1.0" encoding="utf-8"?>
<!-- Generator: Adobe Illustrator 16.0.0, SVG Export Plug-In . SVG Version: 6.00 Build 0)  -->
<!DOCTYPE svg PUBLIC "-//W3C//DTD SVG 1.1//EN" "http://www.w3.org/Graphics/SVG/1.1/DTD/svg11.dtd">
<svg version="1.1" id="圖層_1" xmlns="http://www.w3.org/2000/svg" xmlns:xlink="http://www.w3.org/1999/xlink" x="0px" y="0px"
	 width="127.219px" height="127.218px" viewBox="0 0 127.219 127.218" enable-background="new 0 0 127.219 127.218"
	 xml:space="preserve">
<path d="M113.671,31.291h-2.438c-1.878,0-3.407,1.529-3.407,3.408c0,1.879,1.529,3.407,3.407,3.407h2.438
	c3.712,0,6.731,3.02,6.731,6.732v54.338c0,3.712-3.02,6.731-6.731,6.731H58.582c-1.259,0-2.41,0.689-3.005,1.8l-4.752,8.88
	l-4.751-8.88c-0.594-1.11-1.746-1.8-3.005-1.8h-4.905c-3.712,0-6.731-3.02-6.731-6.731v-9.111c0-1.879-1.53-3.408-3.408-3.408
	c-1.879,0-3.409,1.529-3.409,3.408v9.111c0,7.47,6.077,13.548,13.548,13.548h2.864l6.793,12.694c0.593,1.11,1.745,1.8,3.004,1.8
	c1.26,0,2.412-0.689,3.005-1.8l6.793-12.694h53.048c7.471,0,13.548-6.078,13.548-13.548V44.838
	C127.219,37.368,121.142,31.291,113.671,31.291"/>
</svg>
