<?xml version="1.0" encoding="utf-8"?>
<!-- Generator: Adobe Illustrator 16.0.0, SVG Export Plug-In . SVG Version: 6.00 Build 0)  -->
<!DOCTYPE svg PUBLIC "-//W3C//DTD SVG 1.1//EN" "http://www.w3.org/Graphics/SVG/1.1/DTD/svg11.dtd">
<svg version="1.1" id="圖層_1" xmlns="http://www.w3.org/2000/svg" xmlns:xlink="http://www.w3.org/1999/xlink" x="0px" y="0px"
	 width="127.219px" height="127.218px" viewBox="0 0 127.219 127.218" enable-background="new 0 0 127.219 127.218"
	 xml:space="preserve">
<path d="M32.473,22.099h37.655c1.879,0,3.408,1.529,3.408,3.408c0,1.879-1.529,3.408-3.408,3.408H32.473
	c-1.879,0-3.408-1.529-3.408-3.408C29.064,23.627,30.594,22.099,32.473,22.099 M32.473,37.308h37.655
	c1.879,0,3.408,1.529,3.408,3.408c0,1.879-1.529,3.407-3.408,3.407H32.473c-1.879,0-3.408-1.528-3.408-3.407
	C29.064,38.836,30.594,37.308,32.473,37.308 M32.473,52.517h37.655c1.879,0,3.408,1.529,3.408,3.408
	c0,1.879-1.529,3.408-3.408,3.408H32.473c-1.879,0-3.408-1.529-3.408-3.408C29.064,54.045,30.594,52.517,32.473,52.517"/>
<path d="M73.387,94.126c0.594,1.11,1.746,1.801,3.005,1.801c1.26,0,2.412-0.689,3.005-1.8l6.793-12.695h2.865
	c7.47,0,13.547-6.077,13.547-13.547V13.547C102.602,6.077,96.524,0,89.055,0H13.546C6.078,0,0,6.077,0,13.547v54.338
	c0,7.47,6.077,13.547,13.546,13.547h53.048L73.387,94.126z M6.815,13.547c0-3.712,3.02-6.731,6.731-6.731h75.508
	c3.711,0,6.73,3.019,6.73,6.731v54.338c0,3.712-3.02,6.731-6.73,6.731h-4.906c-1.261,0-2.412,0.69-3.005,1.8l-4.752,8.879
	l-4.75-8.879c-0.594-1.11-1.746-1.8-3.006-1.8H13.546c-3.711,0-6.731-3.02-6.731-6.731V13.547z"/>
</svg>
