<?xml version="1.0" encoding="utf-8"?>
<!-- Generator: Adobe Illustrator 16.0.0, SVG Export Plug-In . SVG Version: 6.00 Build 0)  -->
<!DOCTYPE svg PUBLIC "-//W3C//DTD SVG 1.1//EN" "http://www.w3.org/Graphics/SVG/1.1/DTD/svg11.dtd">
<svg version="1.1" id="圖層_1" xmlns="http://www.w3.org/2000/svg" xmlns:xlink="http://www.w3.org/1999/xlink" x="0px" y="0px"
	 width="68.613px" height="67.894px" viewBox="0 0 68.613 67.894" enable-background="new 0 0 68.613 67.894" xml:space="preserve">
<path d="M34.304,62.05c-0.976,0-1.863-0.454-2.435-1.246l-13.846-19.19c-0.332-0.459-0.465-1.021-0.374-1.581
	c0.09-0.559,0.393-1.05,0.853-1.382c0.364-0.262,0.793-0.401,1.239-0.401c0.681,0,1.325,0.33,1.723,0.881l10.718,14.854V2.122
	c0-1.17,0.952-2.122,2.122-2.122c1.17,0,2.122,0.952,2.122,2.122v51.862l10.723-14.855c0.396-0.551,1.042-0.88,1.722-0.88
	c0.447,0,0.875,0.139,1.239,0.401c0.46,0.332,0.762,0.823,0.853,1.382c0.091,0.56-0.042,1.122-0.374,1.581L36.739,60.805
	C36.167,61.596,35.28,62.05,34.304,62.05"/>
<path d="M3.559,67.894C1.597,67.894,0,66.297,0,64.334V54.165c0-1.255,1.02-2.275,2.274-2.275s2.274,1.021,2.274,2.275v9.484h59.518
	v-9.484c0-1.255,1.02-2.275,2.273-2.275s2.274,1.021,2.274,2.275v10.169c0,1.963-1.597,3.56-3.56,3.56H3.559z"/>
</svg>
