<?xml version="1.0" encoding="utf-8"?>
<!-- Generator: Adobe Illustrator 16.0.0, SVG Export Plug-In . SVG Version: 6.00 Build 0)  -->
<!DOCTYPE svg PUBLIC "-//W3C//DTD SVG 1.1//EN" "http://www.w3.org/Graphics/SVG/1.1/DTD/svg11.dtd">
<svg version="1.1" id="圖層_1" xmlns="http://www.w3.org/2000/svg" xmlns:xlink="http://www.w3.org/1999/xlink" x="0px" y="0px"
	 width="71.09px" height="71.09px" viewBox="0 0 71.09 71.09" enable-background="new 0 0 71.09 71.09" xml:space="preserve">
<path d="M69.111,47.239c1.278-3.664,1.979-7.6,1.979-11.696c0-4.094-0.7-8.029-1.979-11.693c-0.032-0.109-0.068-0.217-0.113-0.319
	C64.061,9.826,50.93,0,35.544,0C20.161,0,7.029,9.826,2.091,23.531c-0.045,0.102-0.081,0.21-0.113,0.319
	C0.698,27.514,0,31.449,0,35.543c0,4.096,0.698,8.032,1.978,11.696c0.032,0.109,0.068,0.217,0.113,0.32
	c4.938,13.705,18.069,23.529,33.453,23.529c15.386,0,28.517-9.824,33.454-23.529C69.043,47.456,69.079,47.349,69.111,47.239
	 M35.544,65.995c-1.354,0-3.535-2.451-5.358-7.924c-0.881-2.641-1.586-5.677-2.1-8.979h14.919c-0.515,3.303-1.22,6.338-2.101,8.979
	C39.08,63.544,36.899,65.995,35.544,65.995 M27.468,43.996c-0.246-2.717-0.375-5.551-0.375-8.453c0-2.9,0.129-5.733,0.375-8.45
	h16.153c0.245,2.717,0.375,5.55,0.375,8.45c0,2.902-0.13,5.736-0.375,8.453H27.468z M5.095,35.543c0-2.93,0.418-5.766,1.194-8.45
	h16.067c-0.237,2.774-0.358,5.614-0.358,8.45c0,2.837,0.121,5.68,0.358,8.453H6.29C5.513,41.312,5.095,38.477,5.095,35.543
	 M35.544,5.095c1.355,0,3.538,2.449,5.36,7.923c0.881,2.641,1.586,5.678,2.101,8.98H28.085c0.514-3.304,1.219-6.339,2.1-8.98
	C32.009,7.544,34.19,5.095,35.544,5.095 M48.732,27.093h16.066c0.777,2.684,1.195,5.52,1.195,8.45c0,2.933-0.418,5.769-1.195,8.453
	H48.732c0.238-2.772,0.359-5.615,0.359-8.453C49.092,32.708,48.971,29.867,48.732,27.093 M62.809,21.999h-14.66
	c-0.906-6.25-2.462-11.856-4.643-15.845C51.964,8.446,58.969,14.298,62.809,21.999 M27.584,6.153
	c-2.181,3.989-3.737,9.595-4.642,15.845H8.281C12.122,14.298,19.127,8.446,27.584,6.153 M8.281,49.092h14.661
	c0.905,6.25,2.461,11.855,4.642,15.845C19.127,62.643,12.122,56.79,8.281,49.092 M43.506,64.937
	c2.181-3.989,3.736-9.595,4.643-15.845h14.66C58.969,56.79,51.964,62.643,43.506,64.937"/>
</svg>
