<?xml version="1.0" encoding="utf-8"?>
<!-- Generator: Adobe Illustrator 23.0.0, SVG Export Plug-In . SVG Version: 6.00 Build 0)  -->
<svg version="1.1" id="圖層_1" xmlns="http://www.w3.org/2000/svg" xmlns:xlink="http://www.w3.org/1999/xlink" x="0px" y="0px"
	 viewBox="0 0 78.7 91.9" enable-background="new 0 0 78.7 91.9" xml:space="preserve">
<path d="M75.2,19.5c1,1,1.8,2.3,2.5,3.9c0.7,1.6,1,3.1,1,4.5v59.1c0,1.4-0.5,2.5-1.4,3.5c-1,1-2.1,1.4-3.5,1.4H4.9
	c-1.4,0-2.5-0.5-3.5-1.4c-1-1-1.4-2.1-1.4-3.5v-82c0-1.4,0.5-2.5,1.4-3.5c1-1,2.1-1.4,3.5-1.4h45.9c1.4,0,2.9,0.3,4.5,1
	c1.6,0.7,2.9,1.5,3.9,2.5L75.2,19.5z M72.2,85.3V32.8H50.9c-1.4,0-2.5-0.5-3.5-1.4c-1-1-1.4-2.1-1.4-3.5V6.6H6.6v78.7H72.2z
	 M45.8,54.9c1.1,0.9,2.6,1.8,4.3,2.9c2-0.2,4-0.4,6-0.4c5,0,8,0.8,9.1,2.5c0.5,0.8,0.6,1.6,0.1,2.7c0,0,0,0.1-0.1,0.1
	c0,0-0.1,0.1-0.1,0.1v0.1c-0.2,1.3-1.4,1.9-3.6,1.9c-1.6,0-3.6-0.3-5.9-1c-2.3-0.7-4.5-1.6-6.7-2.7c-7.6,0.8-14.3,2.2-20.1,4.3
	c-5.2,9-9.4,13.4-12.4,13.4c-0.5,0-1-0.1-1.4-0.4l-1.2-0.6c0,0-0.1-0.1-0.3-0.3c-0.3-0.3-0.4-1-0.3-1.8c0.3-1.4,1.3-2.9,2.9-4.7
	c1.6-1.8,3.9-3.4,6.8-4.9c0.5-0.3,0.9-0.2,1.2,0.3c0.1,0.1,0.1,0.1,0.1,0.2c1.8-2.9,3.6-6.3,5.5-10.1c2.3-4.6,4.1-9.1,5.3-13.4
	c-0.8-2.8-1.3-5.5-1.6-8.2c-0.2-2.6-0.1-4.8,0.3-6.5c0.4-1.4,1.1-2,2.2-2h1.1H37c0.8,0,1.4,0.3,1.8,0.8c0.6,0.7,0.8,1.9,0.5,3.5
	c-0.1,0.2-0.1,0.3-0.2,0.4c0,0.1,0.1,0.2,0.1,0.4v1.5c-0.1,4.2-0.3,7.5-0.7,9.8C40.2,48.3,42.7,52.4,45.8,54.9 M16.3,76
	c1.8-0.8,4.1-3.5,7-8.1c-1.7,1.4-3.2,2.8-4.5,4.3C17.6,73.7,16.7,74.9,16.3,76 M30.3,62.7c4.6-1.8,9.5-3.2,14.6-4.2
	c-0.1,0-0.3-0.2-0.7-0.5c-0.4-0.3-0.6-0.5-0.8-0.7c-2.6-2.3-4.8-5.3-6.5-9c-0.9,2.9-2.3,6.3-4.3,10.1C31.6,60.4,30.9,61.8,30.3,62.7
	 M36.7,28.8c-0.5,1.4-0.5,3.7-0.1,6.8c0-0.2,0.2-1,0.4-2.3c0-0.1,0.1-0.8,0.4-2.2c0-0.1,0.1-0.3,0.2-0.4c0,0-0.1-0.1-0.1-0.1
	c0,0,0-0.1,0-0.1c0,0,0,0,0-0.1c0-0.8-0.3-1.4-0.7-1.8c0,0,0,0.1-0.1,0.1V28.8z M52.5,7v19.3h19.3c-0.3-1-0.7-1.7-1.1-2.1l-16-16
	C54.2,7.7,53.5,7.3,52.5,7 M63.5,61.9c-0.8-0.8-3.2-1.2-7.2-1.2c2.6,1,4.7,1.4,6.4,1.4c0.5,0,0.8,0,0.9-0.1
	C63.6,62,63.5,61.9,63.5,61.9"/>
</svg>
