<?xml version="1.0" encoding="utf-8"?>
<!-- Generator: Adobe Illustrator 16.0.0, SVG Export Plug-In . SVG Version: 6.00 Build 0)  -->
<!DOCTYPE svg PUBLIC "-//W3C//DTD SVG 1.1//EN" "http://www.w3.org/Graphics/SVG/1.1/DTD/svg11.dtd">
<svg version="1.1" id="圖層_1" xmlns="http://www.w3.org/2000/svg" xmlns:xlink="http://www.w3.org/1999/xlink" x="0px" y="0px"
	 width="39.723px" height="39.723px" viewBox="0 0 39.723 39.723" enable-background="new 0 0 39.723 39.723" xml:space="preserve">
<path d="M23.48,17.039c-1.699,0-2.461,0.934-2.883,1.59v-1.363h-3.203c0.043,0.902,0,9.632,0,9.632h3.203v-5.382
	c0-0.286,0.017-0.574,0.102-0.781c0.234-0.574,0.762-1.173,1.645-1.173c1.16,0,1.621,0.884,1.621,2.182v5.15h3.203v-5.522
	C27.168,18.414,25.586,17.039,23.48,17.039 M20.594,18.664h-0.02c0.004-0.011,0.016-0.023,0.02-0.035V18.664z"/>
<rect x="12.418" y="17.266" width="3.203" height="9.633"/>
<path d="M19.859,0C8.911,0,0,8.911,0,19.861c0,10.952,8.911,19.862,19.86,19.862c10.952,0,19.863-8.91,19.863-19.862
	C39.723,8.911,30.812,0,19.859,0 M30.395,28.844c0,0.844-0.703,1.526-1.57,1.526H10.762c-0.863,0-1.566-0.683-1.566-1.526V10.572
	c0-0.845,0.703-1.533,1.566-1.533h18.063c0.867,0,1.57,0.688,1.57,1.533V28.844z"/>
<path d="M14.039,12.622c-1.094,0-1.809,0.719-1.809,1.665c0,0.925,0.696,1.664,1.77,1.664h0.019c1.118,0,1.813-0.739,1.813-1.664
	C15.809,13.34,15.137,12.622,14.039,12.622"/>
</svg>
