<?xml version="1.0" encoding="utf-8"?>
<!-- Generator: Adobe Illustrator 23.0.0, SVG Export Plug-In . SVG Version: 6.00 Build 0)  -->
<svg version="1.1" id="圖層_1" xmlns="http://www.w3.org/2000/svg" xmlns:xlink="http://www.w3.org/1999/xlink" x="0px" y="0px"
	 viewBox="0 0 172.4 137.2" enable-background="new 0 0 172.4 137.2" xml:space="preserve">
<path d="M147.5,0H24.9C11.2,0,0,11.2,0,24.9v87.4c0,13.7,11.2,24.9,24.9,24.9h122.6c13.7,0,24.9-11.2,24.9-24.9V24.9
	C172.4,11.2,161.2,0,147.5,0z M24.9,11h122.6c7.7,0,13.9,6.2,13.9,13.9V28L86.2,72.2L11,28v-3.1C11,17.2,17.2,11,24.9,11z
	 M147.5,126.2H24.9c-7.7,0-13.9-6.2-13.9-13.9V40.8l72.4,42.6c0.9,0.5,1.8,0.8,2.8,0.8s1.9-0.3,2.8-0.8l72.4-42.6v71.6
	C161.4,120,155.1,126.2,147.5,126.2z"/>
</svg>
