<?xml version="1.0" encoding="utf-8"?>
<!-- Generator: Adobe Illustrator 16.0.0, SVG Export Plug-In . SVG Version: 6.00 Build 0)  -->
<!DOCTYPE svg PUBLIC "-//W3C//DTD SVG 1.1//EN" "http://www.w3.org/Graphics/SVG/1.1/DTD/svg11.dtd">
<svg version="1.1" id="圖層_1" xmlns="http://www.w3.org/2000/svg" xmlns:xlink="http://www.w3.org/1999/xlink" x="0px" y="0px"
	 width="70.213px" height="70.213px" viewBox="0 0 70.213 70.213" enable-background="new 0 0 70.213 70.213" xml:space="preserve">
<path d="M68.213,47.576c-1.104,0-2,0.896-2,2v14.642c0,1.102-0.894,1.995-1.996,1.995H5.996C4.894,66.213,4,65.319,4,64.218V5.996
	C4,4.893,4.894,4,5.996,4h15.235c1.104,0,2-0.896,2-2c0-1.105-0.896-2-2-2H4.499C2.014,0,0,2.014,0,4.498v61.217
	c0,2.484,2.014,4.498,4.499,4.498h61.215c2.485,0,4.499-2.014,4.499-4.498V49.576C70.213,48.472,69.316,47.576,68.213,47.576"/>
<path d="M65.715,0H43.982c-1.104,0-2,0.896-2,2s0.896,2,2,2h19.846L39.757,28.072c-0.781,0.782-0.781,2.047,0,2.828
	c0.78,0.782,2.047,0.782,2.828,0L66.214,7.272v19.062c0,1.104,0.895,2,2,1.999c1.104,0,2-0.895,2-1.999V4.498
	C70.214,2.015,68.198,0,65.715,0"/>
</svg>
