<?xml version="1.0" encoding="utf-8"?>
<!-- Generator: Adobe Illustrator 23.0.0, SVG Export Plug-In . SVG Version: 6.00 Build 0)  -->
<svg version="1.1" id="圖層_1" xmlns="http://www.w3.org/2000/svg" xmlns:xlink="http://www.w3.org/1999/xlink" x="0px" y="0px"
	 viewBox="0 0 141.9 141.9" enable-background="new 0 0 141.9 141.9" xml:space="preserve">
<path d="M99.6,77.4c1.5-2.7,2.7-5.5,3.8-8.5c4.9-1.9,8.6-7.6,9.2-14.7c0.4-6.6-2-12.4-6.2-15.2c-1.2-19.7-7-39-35.5-39
	C42.5,0,36.7,19.3,35.5,39c-4.1,2.8-6.6,8.6-6.2,15.3c0.5,7,4.3,12.7,9.2,14.6c1,3,2.3,5.9,3.8,8.5C14.2,85.1,0,101.3,0,125.7
	c0,1.8,1,3.4,2.6,4.1c16.6,7.6,42.2,12.1,68.3,12.1c26.1,0,51.7-4.5,68.3-12.1c1.6-0.7,2.6-2.3,2.6-4.1
	C141.9,101.3,127.7,85.1,99.6,77.4z M38.3,53.6c-0.3-4.3,1.5-7.1,2.6-7.4c1.9-0.5,3.3-2.2,3.4-4.2C45.4,17.7,52.4,9,70.9,9
	c18.6,0,25.6,8.7,26.6,33.1c0.1,2,1.5,3.7,3.4,4.2c1.1,0.3,2.9,3,2.6,7.3c-0.3,4.5-2.7,7-3.8,7c-2,0-3.7,1.3-4.2,3.2
	C90.8,79.9,79,89.9,70.9,89.9c-8.1,0-19.8-10-24.7-26.1c-0.6-1.9-2.3-3.2-4.2-3.2C41,60.5,38.6,58,38.3,53.6z M70.9,132.9
	c-23.5,0-46.3-3.8-61.9-10.1c1.1-19.4,13.4-31.3,38.5-37.4c6.7,8.3,15.2,13.6,23.4,13.6c8.2,0,16.7-5.2,23.4-13.6
	c25,6.1,37.4,18,38.5,37.4C117.3,129.1,94.5,132.9,70.9,132.9z"/>
</svg>
