<?xml version="1.0" encoding="utf-8"?>
<!-- Generator: Adobe Illustrator 16.0.0, SVG Export Plug-In . SVG Version: 6.00 Build 0)  -->
<!DOCTYPE svg PUBLIC "-//W3C//DTD SVG 1.1//EN" "http://www.w3.org/Graphics/SVG/1.1/DTD/svg11.dtd">
<svg version="1.1" id="圖層_1" xmlns="http://www.w3.org/2000/svg" xmlns:xlink="http://www.w3.org/1999/xlink" x="0px" y="0px"
	 width="103.046px" height="139.259px" viewBox="0 0 103.046 139.259" enable-background="new 0 0 103.046 139.259"
	 xml:space="preserve">
<path d="M51.502,0C23.104,0.178,0,23.425,0,51.821c0,8.644,2.181,17.207,6.309,24.763c7.068,12.935,31.339,53.411,32.354,55.101
	c0.431,0.774,4.464,7.574,12.86,7.574c8.402,0,12.429-6.8,12.884-7.613C67,127.32,89.938,89.028,96.737,76.584
	c4.127-7.557,6.308-16.119,6.308-24.763C103.045,23.425,79.942,0.178,51.502,0z M51.523,132.441c-4.598,0-6.804-3.889-6.881-4.026
	c-0.001-0.003-0.118-0.202-0.34-0.573c-5.95-9.938-25.844-43.239-32.01-54.526C8.71,66.76,6.816,59.328,6.816,51.821
	c0-24.652,20.054-44.84,44.707-45.005C76.177,6.981,96.23,27.169,96.23,51.821c0,7.507-1.895,14.94-5.478,21.495
	c-7.066,12.938-32.063,54.615-32.333,55.064C58.398,128.421,56.163,132.441,51.523,132.441z"/>
<path d="M51.523,25.41c-14.398,0-26.113,11.714-26.113,26.112c0,14.399,11.715,26.113,26.113,26.113
	c14.398,0,26.112-11.714,26.112-26.113C77.636,37.124,65.922,25.41,51.523,25.41z M51.523,70.819
	c-10.641,0-19.297-8.656-19.297-19.297c0-10.64,8.656-19.296,19.297-19.296c10.64,0,19.296,8.656,19.296,19.296
	C70.819,62.163,62.163,70.819,51.523,70.819z"/>
</svg>
