<?xml version="1.0" encoding="utf-8"?>
<!-- Generator: Adobe Illustrator 16.0.0, SVG Export Plug-In . SVG Version: 6.00 Build 0)  -->
<!DOCTYPE svg PUBLIC "-//W3C//DTD SVG 1.1//EN" "http://www.w3.org/Graphics/SVG/1.1/DTD/svg11.dtd">
<svg version="1.1" id="圖層_1" xmlns="http://www.w3.org/2000/svg" xmlns:xlink="http://www.w3.org/1999/xlink" x="0px" y="0px"
	 width="133.241px" height="152.731px" viewBox="0 0 133.241 152.731" enable-background="new 0 0 133.241 152.731"
	 xml:space="preserve">
<path d="M66.621,25.411c-14.398,0-26.113,11.714-26.113,26.112c0,14.399,11.715,26.113,26.113,26.113
	c14.398,0,26.112-11.714,26.112-26.113C92.733,37.125,81.02,25.411,66.621,25.411z M66.621,70.819
	c-10.641,0-19.297-8.656-19.297-19.297c0-10.64,8.656-19.296,19.297-19.296c10.64,0,19.296,8.656,19.296,19.296
	C85.917,62.164,77.261,70.819,66.621,70.819z"/>
<path d="M102.963,92.088c3.702-6.34,6.939-11.967,8.872-15.504c4.127-7.557,6.309-16.119,6.309-24.763
	C118.144,23.425,95.04,0.178,66.6,0C38.201,0.178,15.098,23.425,15.098,51.821c0,8.644,2.181,17.207,6.309,24.763
	c1.941,3.552,5.18,9.182,8.877,15.513c-0.048,0.013-0.096,0.016-0.143,0.03C11.267,98.125,0,108.47,0,119.802
	c0,18.465,29.263,32.929,66.62,32.929c37.357,0,66.621-14.464,66.621-32.929C133.241,108.406,121.94,98.087,102.963,92.088z
	 M27.39,73.316c-3.582-6.556-5.476-13.988-5.476-21.495c0-24.652,20.054-44.84,44.707-45.005
	c24.653,0.165,44.707,20.353,44.707,45.005c0,7.507-1.894,14.94-5.477,21.495c-7.067,12.938-32.064,54.615-32.333,55.064
	c-0.022,0.041-2.258,4.062-6.897,4.062c-4.598,0-6.804-3.889-6.881-4.026c-0.001-0.003-0.118-0.202-0.34-0.573
	C53.45,117.905,33.556,84.603,27.39,73.316z M66.62,146.731C33.761,146.731,6,134.399,6,119.802c0-8.456,9.946-16.869,25.958-21.957
	c0.49-0.155,0.901-0.435,1.236-0.78c9.252,15.753,19.902,33.513,20.567,34.62c0.431,0.774,4.464,7.574,12.86,7.574
	c8.402,0,12.429-6.8,12.884-7.613c1.657-2.764,11.618-19.393,20.37-34.288c0.142,0.069,0.285,0.137,0.44,0.185
	c16.608,5.067,26.926,13.597,26.926,22.26C127.241,134.399,99.48,146.731,66.62,146.731z"/>
</svg>
