<?xml version="1.0" encoding="utf-8"?>
<!-- Generator: Adobe Illustrator 23.0.0, SVG Export Plug-In . SVG Version: 6.00 Build 0)  -->
<svg version="1.1" id="圖層_1" xmlns="http://www.w3.org/2000/svg" xmlns:xlink="http://www.w3.org/1999/xlink" x="0px" y="0px"
	 viewBox="0 0 56.4 54.5" enable-background="new 0 0 56.4 54.5" xml:space="preserve">
<path d="M51.8,22h-4.2V0h-25L8.8,13.9v8H4.6C2.1,22,0,24,0,26.5v17.1c0,2.5,2.1,4.6,4.6,4.6h4.2v6.2h38.9v-6.2h4.2
	c2.5,0,4.6-2.1,4.6-4.6V26.5C56.4,24,54.3,22,51.8,22z M21.6,6v6.9h-6.9L21.6,6z M12.3,16.4h12.9V3.5h19V22H12.3V16.4z M12.3,51
	v-9.9h31.9V51H12.3z M52.9,43.7c0,0.6-0.5,1.1-1.1,1.1h-4.2v-3.6h3.6v-3.5H5.1v3.5h3.6v3.6H4.6c-0.6,0-1.1-0.5-1.1-1.1V26.5
	c0-0.6,0.5-1.1,1.1-1.1h47.2c0.6,0,1.1,0.5,1.1,1.1V43.7z"/>
<rect x="15.1" y="44.3" width="11" height="3.5"/>
<rect x="39.1" y="29.9" width="4.9" height="3.5"/>
<rect x="45.8" y="29.9" width="4.9" height="3.5"/>
</svg>
