<?xml version="1.0" encoding="utf-8"?>
<!-- Generator: Adobe Illustrator 16.0.0, SVG Export Plug-In . SVG Version: 6.00 Build 0)  -->
<!DOCTYPE svg PUBLIC "-//W3C//DTD SVG 1.1//EN" "http://www.w3.org/Graphics/SVG/1.1/DTD/svg11.dtd">
<svg version="1.1" id="圖層_1" xmlns="http://www.w3.org/2000/svg" xmlns:xlink="http://www.w3.org/1999/xlink" x="0px" y="0px"
	 width="34.728px" height="30.267px" viewBox="0 0 34.728 30.267" enable-background="new 0 0 34.728 30.267" xml:space="preserve">
<path fill="#040000" d="M31.47,17.663c-0.062-0.015-0.126-0.022-0.188-0.022c-0.383,0-0.711,0.26-0.8,0.631
	c-1.458,6.094-6.846,10.351-13.103,10.351c-1.054,0-2.114-0.125-3.149-0.373c-3.998-0.955-7.299-3.635-9.055-7.352l-0.101-0.213
	l-1.641,0.342l0.154,0.341c2.444,5.405,7.857,8.898,13.792,8.9h0.002c2.15,0,4.241-0.454,6.218-1.347
	c4.292-1.94,7.382-5.68,8.479-10.255C32.188,18.228,31.923,17.778,31.47,17.663"/>
<path fill="#040000" d="M7.458,19.489c0.125-0.182,0.171-0.4,0.13-0.616c-0.027-0.146-0.093-0.28-0.193-0.394l-4.022-4.486
	c-0.158-0.201-0.394-0.317-0.65-0.317c-0.184,0-0.358,0.061-0.504,0.174c-0.129,0.101-0.224,0.237-0.275,0.392l-1.904,5.78
	c-0.068,0.21-0.049,0.433,0.052,0.628c0.101,0.195,0.272,0.339,0.479,0.404c0.081,0.026,0.164,0.04,0.25,0.04l0.125-0.009
	l5.987-1.254C7.148,19.792,7.335,19.67,7.458,19.489 M5.214,18.514l-3.169,0.667l1.01-3.076L5.214,18.514z"/>
<path fill="#040000" d="M33.915,9.169c-0.057,0-0.113,0.005-0.168,0.017L30.771,9.81l-2.967,0.609
	c-0.216,0.04-0.403,0.162-0.527,0.344c-0.124,0.181-0.17,0.4-0.129,0.615c0.027,0.146,0.094,0.28,0.192,0.394l4.023,4.485
	c0.157,0.201,0.394,0.317,0.649,0.317c0.184,0,0.358-0.061,0.505-0.175c0.129-0.101,0.224-0.237,0.274-0.393l1.89-5.774
	c0.044-0.125,0.057-0.262,0.034-0.412C34.638,9.443,34.3,9.169,33.915,9.169 M32.688,11.088l-1.007,3.072l-2.159-2.408
	L32.688,11.088z"/>
<path fill="#040000" d="M3.225,12.607c0.074,0.021,0.15,0.032,0.226,0.032c0.364,0,0.689-0.245,0.804-0.653
	c1.46-6.092,6.847-10.347,13.102-10.347c1.056,0,2.118,0.126,3.153,0.375c3.997,0.957,7.297,3.638,9.051,7.354l0.102,0.214
	l1.642-0.343l-0.155-0.341C28.706,3.493,23.293,0,17.358,0c-2.151,0-4.244,0.452-6.22,1.345C6.909,3.256,3.739,7.091,2.662,11.591
	C2.538,12.026,2.79,12.482,3.225,12.607"/>
<path fill="#040000" d="M23.136,5.947c0-0.453-0.368-0.821-0.821-0.821h-6.743c-0.356,0-0.67,0.227-0.781,0.566l-3.13,9.581
	c-0.171,0.419,0.031,0.899,0.452,1.07c0.1,0.041,0.206,0.062,0.312,0.062h1.97l-1.958,7.633c-0.074,0.207-0.063,0.43,0.031,0.628
	c0.094,0.198,0.26,0.349,0.466,0.422c0.089,0.032,0.182,0.048,0.277,0.048c0.237,0,0.463-0.103,0.62-0.283l8.705-10.127
	c0.315-0.324,0.308-0.845-0.019-1.162c-0.153-0.148-0.357-0.23-0.587-0.23h-2.563l3.639-6.939
	C23.093,6.261,23.138,6.104,23.136,5.947 M14.866,21.115l1.371-5.32c0.109-0.439-0.158-0.887-0.601-0.998
	c-0.063-0.015-0.129-0.023-0.194-0.023h-1.885l2.609-8.003h4.789l-3.673,7.019c-0.102,0.195-0.12,0.418-0.054,0.627
	c0.068,0.209,0.212,0.38,0.406,0.479c0.113,0.059,0.242,0.091,0.376,0.092h2.125L14.866,21.115z"/>
</svg>
