<?xml version="1.0" encoding="utf-8"?>
<!-- Generator: Adobe Illustrator 16.0.0, SVG Export Plug-In . SVG Version: 6.00 Build 0)  -->
<!DOCTYPE svg PUBLIC "-//W3C//DTD SVG 1.1//EN" "http://www.w3.org/Graphics/SVG/1.1/DTD/svg11.dtd">
<svg version="1.1" id="圖層_1" xmlns="http://www.w3.org/2000/svg" xmlns:xlink="http://www.w3.org/1999/xlink" x="0px" y="0px"
	 width="62.228px" height="73.25px" viewBox="0 0 62.228 73.25" enable-background="new 0 0 62.228 73.25" xml:space="preserve">
<path fill="#040000" d="M31.114,73.25c-0.316,0-0.635-0.031-0.946-0.094c-0.223-0.045-0.442-0.104-0.654-0.178
	c-7.069-2.466-12.913-5.92-17.369-10.269c-3.906-3.813-6.884-8.453-8.85-13.788c-3.593-9.746-3.387-20.527-3.222-29.189L0.078,19.6
	c0.032-0.713,0.054-1.472,0.067-2.311c0.056-3.833,3.104-7.004,6.937-7.218c8.665-0.484,15.371-3.314,21.105-8.901
	C29.021,0.402,30.049,0,31.114,0c1.067,0,2.095,0.402,2.893,1.133c5.77,5.625,12.476,8.454,21.14,8.937
	c3.834,0.215,6.882,3.386,6.939,7.219c0.012,0.843,0.034,1.603,0.066,2.321c0.166,8.723,0.372,19.521-3.233,29.302
	c-1.97,5.337-4.947,9.977-8.852,13.791c-4.453,4.348-10.291,7.804-17.351,10.274c-0.212,0.073-0.433,0.134-0.657,0.179
	C31.751,73.219,31.432,73.25,31.114,73.25 M31.114,3.361c-0.212,0-0.422,0.078-0.593,0.222c-3.201,3.111-6.61,5.401-10.445,7.024
	c-3.846,1.628-8.036,2.549-12.808,2.816c-2.082,0.116-3.737,1.835-3.768,3.915c-0.012,0.862-0.035,1.647-0.069,2.396
	c-0.17,8.879-0.36,18.872,3.014,28.027c3.874,10.514,11.782,17.726,24.175,22.047c0.066,0.022,0.133,0.04,0.202,0.055
	c0.1,0.019,0.197,0.029,0.294,0.029c0.095,0,0.188-0.011,0.282-0.027c0.073-0.015,0.14-0.033,0.202-0.054
	c12.387-4.332,20.289-11.548,24.166-22.062c3.388-9.184,3.199-19.182,3.031-28.003c-0.035-0.757-0.057-1.541-0.07-2.408
	c-0.03-2.081-1.685-3.8-3.767-3.916c-4.773-0.267-8.962-1.188-12.81-2.816c-3.836-1.623-7.243-3.913-10.42-7.001
	C31.539,3.44,31.329,3.361,31.114,3.361"/>
<path fill="#040000" d="M31.114,54.631c-9.928,0-18.004-8.077-18.004-18.005c0-9.927,8.076-18.003,18.004-18.003
	c9.928,0,18.004,8.076,18.004,18.003C49.118,46.554,41.042,54.631,31.114,54.631 M31.114,21.979
	c-8.078,0-14.647,6.571-14.647,14.647c0,8.077,6.57,14.648,14.647,14.648c8.075,0,14.646-6.571,14.646-14.648
	C45.76,28.549,39.189,21.979,31.114,21.979"/>
<path fill="#040000" d="M27.837,44.235c-0.449,0-0.87-0.175-1.187-0.491l-3.873-3.874c-0.317-0.316-0.491-0.738-0.491-1.187
	s0.174-0.869,0.491-1.187c0.317-0.318,0.738-0.491,1.187-0.491c0.448,0,0.87,0.174,1.187,0.491l2.332,2.333
	c0.094,0.094,0.221,0.146,0.354,0.146s0.26-0.053,0.354-0.146l8.595-8.595c0.316-0.317,0.737-0.492,1.186-0.492
	s0.87,0.175,1.188,0.492c0.653,0.654,0.652,1.719,0,2.373L29.024,43.744C28.708,44.061,28.286,44.235,27.837,44.235"/>
</svg>
