<?xml version="1.0" encoding="utf-8"?>
<!-- Generator: Adobe Illustrator 16.0.0, SVG Export Plug-In . SVG Version: 6.00 Build 0)  -->
<!DOCTYPE svg PUBLIC "-//W3C//DTD SVG 1.1//EN" "http://www.w3.org/Graphics/SVG/1.1/DTD/svg11.dtd">
<svg version="1.1" id="圖層_1" xmlns="http://www.w3.org/2000/svg" xmlns:xlink="http://www.w3.org/1999/xlink" x="0px" y="0px"
	 width="177.311px" height="141.668px" viewBox="0 0 177.311 141.668" enable-background="new 0 0 177.311 141.668"
	 xml:space="preserve">
<path d="M19.701,89.464l11.42-10.061c0.854-0.753,1.293-1.884,1.169-3.016c-0.202-1.851-0.318-3.705-0.318-5.57
	c0-1.871,0.116-3.723,0.318-5.572c0.124-1.133-0.315-2.265-1.169-3.016l-11.42-10.056c1.335-4.531,3.146-8.857,5.375-12.933
	l15.188,0.96c1.135,0.071,2.244-0.418,2.957-1.304c2.332-2.9,4.966-5.536,7.866-7.867c0.886-0.712,1.374-1.821,1.304-2.956
	l-0.958-15.187c4.072-2.231,8.394-4.039,12.929-5.376L74.42,18.93c0.752,0.853,1.887,1.294,3.018,1.169
	c1.846-0.202,3.698-0.316,5.568-0.316c1.871,0,3.725,0.114,5.568,0.316c1.131,0.125,2.267-0.316,3.02-1.169l10.06-11.419
	c4.532,1.335,8.854,3.145,12.925,5.376l-0.954,15.187c-0.071,1.135,0.416,2.243,1.305,2.956c2.898,2.331,5.533,4.967,7.86,7.866
	c0.713,0.887,1.822,1.376,2.958,1.305l15.193-0.96c2.225,4.076,4.036,8.4,5.371,12.933L134.895,62.23
	c-0.854,0.753-1.293,1.881-1.169,3.013c0.2,1.851,0.316,3.704,0.316,5.575c0,1.865-0.116,3.719-0.316,5.574
	c-0.124,1.131,0.314,2.259,1.169,3.012l11.419,10.061c-1.186,4.011-2.727,7.87-4.616,11.53h7.781
	c1.721-3.777,3.171-7.705,4.233-11.802c0.331-1.277-0.085-2.642-1.075-3.513l-11.778-10.378c0.118-1.475,0.204-2.962,0.204-4.484
	c0-1.524-0.086-3.011-0.204-4.485l11.776-10.376c0.992-0.874,1.41-2.237,1.077-3.516c-1.72-6.629-4.355-12.877-7.736-18.623
	c-0.67-1.14-1.93-1.807-3.246-1.723l-15.667,0.991c-1.944-2.269-4.056-4.381-6.32-6.324l0.983-15.664
	c0.082-1.318-0.583-2.571-1.72-3.242c-5.748-3.394-11.998-6.026-18.625-7.744c-1.277-0.332-2.64,0.084-3.515,1.078L87.493,12.966
	c-1.478-0.118-2.969-0.202-4.487-0.202c-1.519,0-3.008,0.084-4.485,0.202L68.147,1.19c-0.873-0.992-2.236-1.41-3.514-1.078
	c-6.627,1.718-12.879,4.35-18.627,7.744c-1.138,0.671-1.802,1.924-1.719,3.242l0.987,15.662c-2.267,1.945-4.381,4.057-6.324,6.326
	l-15.664-0.991c-1.319-0.084-2.576,0.583-3.246,1.721c-3.382,5.748-6.02,11.996-7.739,18.627c-0.33,1.278,0.088,2.64,1.078,3.514
	l11.777,10.374c-0.118,1.474-0.204,2.963-0.204,4.487c0,1.522,0.086,3.009,0.204,4.487L13.379,85.68
	c-0.992,0.871-1.408,2.235-1.078,3.513c1.063,4.097,2.512,8.024,4.235,11.802h7.78C22.426,97.334,20.884,93.475,19.701,89.464"/>
<path d="M176.282,106.447l-0.731-0.729l-4.723-4.724l-3.42-3.421c-1.371-1.371-3.593-1.371-4.965,0
	c-0.924,0.929-1.209,2.242-0.881,3.421c0.155,0.563,0.44,1.101,0.883,1.543l2.881,2.882h-59.24c1.966-1.315,3.808-2.804,5.517-4.425
	c7.979-7.582,12.963-18.286,12.965-30.16c-0.004-22.978-18.627-41.603-41.606-41.605c-14.411,0.004-27.106,7.34-34.572,18.474
	l-0.45-2.615c-0.33-1.912-2.144-3.194-4.053-2.865c-1.911,0.329-3.194,2.146-2.864,4.055l1.921,11.167
	c0.156,0.911,0.679,1.737,1.433,2.272c0.755,0.531,1.71,0.747,2.62,0.591l11.638-2.002c1.91-0.329,3.191-2.144,2.864-4.053
	c-0.329-1.911-2.144-3.192-4.053-2.863v-0.002l-3.486,0.6c6.173-9.474,16.853-15.743,29.002-15.74
	c9.561,0.002,18.185,3.867,24.455,10.13c6.266,6.272,10.13,14.895,10.132,24.456c-0.002,9.56-3.866,18.184-10.132,24.453
	c-2.235,2.235-4.783,4.147-7.556,5.707c-4.997,2.808-10.748,4.421-16.899,4.425H3.509c-1.093,0-2.06,0.511-2.704,1.296
	C0.311,107.321,0,108.086,0,108.929c0,1.94,1.571,3.51,3.509,3.51h39.093c0.863,0.84,1.757,1.648,2.672,2.433l-0.987,15.668
	c-0.084,1.316,0.582,2.575,1.72,3.243c5.018,2.947,11.676,6.005,17.443,7.739c1.348,0.404,2.821-0.045,3.715-1.131l9.676-11.764
	c0.429,0.062,0.836,0.113,1.231,0.147c0.968,0.089,1.837,0.103,2.814,0.103c0.613,0,1.29-0.007,2.12-0.004l0.221-0.01l4.613-0.291
	l9.796,11.825c0.828,1.001,2.151,1.463,3.425,1.196c3.91-0.819,7.06-1.81,10.021-3.092c2.966-1.282,5.702-2.824,8.921-4.72
	c1.139-0.668,1.805-1.927,1.723-3.243l-0.984-15.668c0.915-0.784,1.807-1.593,2.67-2.433h41.915l-3.175,3.178
	c-1.372,1.371-1.373,3.591-0.001,4.963c1.371,1.371,3.593,1.371,4.963,0l9.169-9.168c0.654-0.655,1.029-1.557,1.029-2.482
	C177.312,108.004,176.937,107.099,176.282,106.447 M108.298,132.059c-2.003,0.866-4.087,1.564-6.64,2.193l-9.552-11.534
	c-0.718-0.867-1.801-1.333-2.924-1.262l-6.267,0.395c-0.807,0.004-1.472,0.007-2.029,0.007c-0.919,0-1.519-0.014-2.177-0.075
	c-0.66-0.059-1.429-0.171-2.636-0.401c-1.254-0.236-2.553,0.233-3.363,1.221l-9.445,11.478c-3.88-1.353-8.25-3.334-11.835-5.292
	l0.961-15.228c0.024-0.384-0.038-0.757-0.136-1.121h61.503c-0.1,0.364-0.158,0.737-0.135,1.121l0.958,15.252
	C112.276,130.139,110.295,131.197,108.298,132.059"/>
<path d="M83.008,95.629c13.694-0.002,24.793-11.101,24.794-24.793c-0.001-13.697-11.101-24.793-24.794-24.797
	c-13.697,0.004-24.793,11.1-24.795,24.797C58.215,84.528,69.312,95.627,83.008,95.629 M69.196,57.023
	c3.542-3.537,8.41-5.717,13.812-5.719c5.401,0.002,10.267,2.182,13.809,5.719c3.539,3.544,5.718,8.407,5.72,13.812
	c-0.002,5.398-2.181,10.265-5.72,13.809c-3.542,3.537-8.408,5.718-13.809,5.718c-5.402,0-10.27-2.181-13.81-5.718
	c-3.539-3.544-5.719-8.411-5.721-13.809C63.479,65.43,65.66,60.565,69.196,57.023"/>
<path d="M83.008,74.317c0.871-0.003,1.652-0.328,2.26-0.851h7.623v-5.265h-7.251v-12.37h-5.265v12.742
	c-0.521,0.606-0.854,1.401-0.852,2.261C79.527,72.762,81.075,74.314,83.008,74.317"/>
</svg>
