<?xml version="1.0" encoding="utf-8"?>
<!-- Generator: Adobe Illustrator 16.0.0, SVG Export Plug-In . SVG Version: 6.00 Build 0)  -->
<!DOCTYPE svg PUBLIC "-//W3C//DTD SVG 1.1//EN" "http://www.w3.org/Graphics/SVG/1.1/DTD/svg11.dtd">
<svg version="1.1" id="圖層_1" xmlns="http://www.w3.org/2000/svg" xmlns:xlink="http://www.w3.org/1999/xlink" x="0px" y="0px"
	 width="15.446px" height="16px" viewBox="0 0 15.446 16" enable-background="new 0 0 15.446 16" xml:space="preserve">
<path d="M15.212,14.572l-3.809-3.959c0.979-1.165,1.516-2.629,1.516-4.154c0-3.562-2.897-6.46-6.459-6.46S0,2.897,0,6.459
	s2.897,6.46,6.459,6.46c1.337,0,2.611-0.402,3.701-1.171l3.836,3.991c0.16,0.168,0.377,0.259,0.608,0.259
	c0.219,0,0.426-0.083,0.584-0.234C15.522,15.442,15.533,14.908,15.212,14.572 M6.459,1.686c2.633,0,4.775,2.142,4.775,4.774
	c0,2.633-2.142,4.775-4.775,4.775c-2.633,0-4.775-2.142-4.775-4.775C1.685,3.828,3.827,1.686,6.459,1.686"/>
</svg>
