<?xml version="1.0" encoding="utf-8"?>
<!-- Generator: Adobe Illustrator 16.0.0, SVG Export Plug-In . SVG Version: 6.00 Build 0)  -->
<!DOCTYPE svg PUBLIC "-//W3C//DTD SVG 1.1//EN" "http://www.w3.org/Graphics/SVG/1.1/DTD/svg11.dtd">
<svg version="1.1" id="圖層_1" xmlns="http://www.w3.org/2000/svg" xmlns:xlink="http://www.w3.org/1999/xlink" x="0px" y="0px"
	 width="122.716px" height="119.247px" viewBox="0 0 122.716 119.247" enable-background="new 0 0 122.716 119.247"
	 xml:space="preserve">
<path d="M120.486,88.029L90.159,57.703l-6.455-3.185l4.086-4.085c1.935,0.459,3.925,0.691,5.925,0.691
	c6.826,0,13.242-2.658,18.069-7.483c7.425-7.427,9.557-18.468,5.428-28.13l-0.158-0.371c-0.855-2-3.461-2.503-4.999-0.965
	L99.301,26.931l-4.507-2.458l-2.457-4.507L105.09,7.213c1.539-1.538,1.035-4.146-0.967-4.999l-0.008-0.003
	c-2.58-1.102-5.309-1.865-8.104-2.109c-7.677-0.672-15.013,2.013-20.384,7.38c-6.367,6.37-8.88,15.294-6.792,23.999L57.857,42.455
	L24.739,9.419L24.67,9.306c-2.361-3.909-6.364-6.539-10.889-7.158L7.746,1.325C5.685,1.044,3.946,2.851,4.305,4.9l1.044,5.956
	c0.755,4.304,3.335,8.071,7.076,10.329l0.346,0.208l33.114,33.034L31.497,68.814c-1.941-0.461-3.93-0.693-5.922-0.693
	c-6.829,0-13.246,2.659-18.069,7.487c-7.423,7.422-9.554,18.461-5.431,28.125l0.158,0.371c0.854,2,3.46,2.504,4.999,0.966
	L19.99,92.314l4.504,2.459l2.458,4.506l-12.753,12.753c-1.539,1.539-1.035,4.145,0.966,4.999c2.582,1.102,5.31,1.865,8.107,2.112
	c7.68,0.674,15.02-2.013,20.391-7.382c6.365-6.369,8.877-15.292,6.794-23.994l7.498-7.503l3.188,6.46l30.324,30.326
	c1.436,1.437,3.423,2.196,5.746,2.196c7.739,0,20.217-10.364,24.275-20.163C123.415,94.434,123.068,90.611,120.486,88.029
	 M16.924,16.085L12.6,13.476l-0.851-4.852l5.115,0.698l2.572,4.256l33.691,33.608l-2.51,2.51L16.924,16.085z M42.892,85.871
	l0.636,1.95c2.213,6.799,0.452,14.16-4.596,19.21c-3.563,3.562-8.3,5.523-13.338,5.523c-0.776,0-1.55-0.047-2.316-0.141l9.693-9.69
	c1.335-1.335,1.631-3.391,0.728-5.048l-4.273-7.834l-7.832-4.272c-1.657-0.904-3.712-0.608-5.047,0.727L6.84,96
	c-0.732-5.746,1.208-11.473,5.398-15.662c0.401-0.402,0.823-0.777,1.254-1.138c0.076-0.064,0.151-0.13,0.229-0.193
	c0.418-0.339,0.849-0.658,1.29-0.959c0.086-0.058,0.173-0.113,0.259-0.17c0.46-0.301,0.928-0.588,1.41-0.846
	c0.021-0.012,0.041-0.021,0.063-0.031c0.472-0.252,0.957-0.477,1.448-0.687c0.087-0.036,0.172-0.075,0.259-0.11
	c0.491-0.2,0.991-0.378,1.498-0.536c0.1-0.031,0.202-0.061,0.302-0.09c0.523-0.152,1.049-0.289,1.585-0.396
	c0.04-0.009,0.082-0.014,0.122-0.021c0.518-0.1,1.042-0.175,1.571-0.231c0.089-0.01,0.176-0.022,0.265-0.03
	c0.539-0.05,1.082-0.075,1.629-0.079c0.051-0.001,0.102-0.008,0.153-0.008c0.075,0,0.15,0.008,0.225,0.009
	c0.352,0.004,0.704,0.019,1.058,0.041c0.097,0.007,0.195,0.011,0.293,0.019c0.444,0.036,0.888,0.082,1.336,0.148
	c0.787,0.118,1.559,0.313,2.324,0.535c0.211,0.061,0.425,0.11,0.635,0.179l0.105,0.034c0.001,0,0.002,0.001,0.002,0.001l1.842,0.598
	L76.4,33.377l-0.637-1.952c-2.215-6.799-0.455-14.16,4.594-19.211c3.563-3.562,8.302-5.524,13.339-5.524
	c0.776,0,1.55,0.047,2.315,0.141L84.067,18.773l5.794,10.63l10.633,5.798l11.957-11.958c0.049,0.386,0.084,0.772,0.108,1.157
	c0.009,0.127,0.011,0.254,0.018,0.382c0.011,0.259,0.021,0.517,0.021,0.776c0.001,0.148-0.005,0.296-0.007,0.444
	c-0.005,0.237-0.012,0.474-0.025,0.709c-0.01,0.154-0.021,0.309-0.034,0.463c-0.02,0.229-0.042,0.458-0.07,0.686
	c-0.019,0.155-0.038,0.308-0.061,0.461c-0.032,0.232-0.073,0.461-0.115,0.691c-0.027,0.145-0.053,0.292-0.083,0.437
	c-0.052,0.246-0.111,0.49-0.173,0.734c-0.032,0.125-0.06,0.251-0.094,0.375c-0.089,0.321-0.187,0.64-0.293,0.957
	c-0.015,0.044-0.025,0.089-0.041,0.132c-0.123,0.36-0.259,0.715-0.403,1.067c-0.045,0.108-0.096,0.214-0.143,0.321
	c-0.104,0.243-0.213,0.485-0.328,0.724c-0.063,0.131-0.133,0.259-0.199,0.388c-0.109,0.212-0.221,0.423-0.338,0.632
	c-0.076,0.134-0.155,0.267-0.234,0.4c-0.12,0.2-0.243,0.399-0.371,0.595c-0.085,0.132-0.172,0.263-0.259,0.392
	c-0.136,0.195-0.274,0.388-0.416,0.579c-0.092,0.124-0.183,0.248-0.277,0.369c-0.155,0.2-0.317,0.395-0.481,0.589
	c-0.09,0.107-0.177,0.215-0.27,0.319c-0.211,0.24-0.431,0.473-0.655,0.704c-0.054,0.054-0.103,0.111-0.156,0.165
	c-0.007,0.006-0.013,0.012-0.019,0.019c-0.019,0.02-0.041,0.035-0.06,0.055c-0.382,0.378-0.786,0.74-1.204,1.092
	c-0.08,0.067-0.16,0.133-0.24,0.199c-0.129,0.104-0.251,0.215-0.383,0.317c-2.252,1.747-4.906,2.939-7.701,3.489
	c-0.025,0.004-0.05,0.009-0.074,0.014c-0.117,0.023-0.231,0.052-0.351,0.071c-0.454,0.079-0.907,0.136-1.36,0.182
	c-0.092,0.01-0.186,0.015-0.277,0.023c-0.508,0.044-1.016,0.069-1.521,0.074c-0.056,0-0.111,0.008-0.167,0.008
	c-0.026,0-0.052-0.003-0.078-0.003c-0.452-0.002-0.902-0.02-1.351-0.053c-0.103-0.008-0.204-0.022-0.306-0.031
	c-0.351-0.033-0.7-0.073-1.048-0.124c-0.146-0.022-0.292-0.046-0.438-0.072c-0.317-0.054-0.633-0.118-0.947-0.188
	c-0.134-0.03-0.269-0.059-0.402-0.092c-0.437-0.108-0.871-0.227-1.301-0.368l-1.951-0.635L42.892,85.871z M115.473,96.21
	c-2.734,6.603-12.822,16.347-18.26,16.347c-0.723,0-0.961-0.182-1.016-0.236L66.653,82.773l-3.702-7.505l15.756-15.755l7.501,3.701
	l29.548,29.546C116.264,93.267,116.157,94.557,115.473,96.21"/>
<path fill="#EEC643" d="M21.594,85.569l7.832,4.272L21.594,85.569z"/>
<path fill="#EEC643" d="M26.857,74.862c0.098,0.007,0.195,0.011,0.293,0.019C27.053,74.873,26.956,74.869,26.857,74.862"/>
<path fill="#EEC643" d="M25.574,74.813c-0.051,0-0.102,0.007-0.152,0.008c0.126-0.001,0.252,0,0.378,0.001
	C25.724,74.82,25.649,74.813,25.574,74.813"/>
<path fill="#EEC643" d="M29.426,89.842l4.272,7.834L29.426,89.842z"/>
<path fill="#EEC643" d="M31.445,75.743c-0.21-0.068-0.424-0.118-0.635-0.18c0.247,0.072,0.496,0.135,0.74,0.214L31.445,75.743z"/>
<path fill="#EEC643" d="M105.789,40.057c-0.08,0.067-0.16,0.134-0.24,0.199C105.629,40.19,105.709,40.124,105.789,40.057"/>
<path fill="#EEC643" d="M18.19,76.314c0.087-0.036,0.172-0.075,0.259-0.11C18.362,76.239,18.277,76.278,18.19,76.314"/>
<path fill="#EEC643" d="M15.011,78.048c0.086-0.058,0.173-0.113,0.259-0.17C15.184,77.935,15.097,77.99,15.011,78.048"/>
<path fill="#EEC643" d="M32.971,102.724l-9.693,9.69L32.971,102.724z"/>
<path fill="#EEC643" d="M13.491,79.2c0.076-0.064,0.151-0.13,0.229-0.193C13.642,79.07,13.567,79.136,13.491,79.2"/>
<path fill="#EEC643" d="M23.527,74.93c0.088-0.01,0.177-0.022,0.266-0.03C23.705,74.907,23.616,74.92,23.527,74.93"/>
<path fill="#EEC643" d="M21.835,75.183c0.04-0.009,0.082-0.014,0.122-0.021C21.917,75.169,21.875,75.174,21.835,75.183"/>
<path fill="#EEC643" d="M19.947,75.668c0.101-0.031,0.202-0.061,0.303-0.09C20.149,75.607,20.048,75.637,19.947,75.668"/>
<path fill="#EEC643" d="M16.68,77.032c0.021-0.012,0.041-0.021,0.062-0.031C16.721,77.012,16.701,77.021,16.68,77.032"/>
<path fill="#EEC643" d="M95.68,44.329c-0.093,0.01-0.186,0.015-0.277,0.022C95.494,44.344,95.588,44.339,95.68,44.329"/>
<path fill="#EEC643" d="M109.957,35.179c-0.12,0.2-0.243,0.399-0.371,0.596C109.714,35.578,109.837,35.379,109.957,35.179"/>
<path fill="#EEC643" d="M109.326,36.166c-0.135,0.195-0.273,0.388-0.415,0.579C109.053,36.554,109.191,36.361,109.326,36.166"/>
<path fill="#EEC643" d="M93.715,44.434c0.056,0,0.11-0.008,0.167-0.008c-0.082,0-0.163,0.005-0.245,0.005
	C93.663,44.431,93.688,44.434,93.715,44.434"/>
<path fill="#EEC643" d="M110.529,34.147c-0.109,0.212-0.221,0.423-0.338,0.632C110.309,34.57,110.42,34.359,110.529,34.147"/>
<path fill="#EEC643" d="M97.465,44.062c-0.025,0.005-0.05,0.01-0.074,0.015C97.415,44.072,97.439,44.066,97.465,44.062"/>
<path fill="#EEC643" d="M107.883,38.022c-0.211,0.239-0.432,0.473-0.655,0.703C107.451,38.496,107.672,38.262,107.883,38.022"/>
<path fill="#EEC643" d="M107.053,38.91c0.006-0.007,0.012-0.013,0.02-0.02c-0.026,0.026-0.055,0.049-0.08,0.075
	C107.012,38.945,107.033,38.93,107.053,38.91"/>
<path fill="#EEC643" d="M111.057,33.035c-0.104,0.243-0.213,0.484-0.328,0.724C110.844,33.519,110.952,33.278,111.057,33.035"/>
<path fill="#EEC643" d="M112.45,23.243c0.05,0.386,0.085,0.771,0.109,1.157C112.535,24.014,112.5,23.629,112.45,23.243"/>
<path fill="#EEC643" d="M108.634,37.114c-0.155,0.199-0.317,0.395-0.481,0.589C108.316,37.509,108.479,37.313,108.634,37.114"/>
<path fill="#EEC643" d="M112.532,27.174c-0.02,0.229-0.042,0.458-0.07,0.687C112.49,27.632,112.513,27.403,112.532,27.174"/>
<path fill="#EEC643" d="M112.401,28.321c-0.033,0.231-0.073,0.461-0.115,0.69C112.328,28.782,112.368,28.552,112.401,28.321"/>
<path fill="#EEC643" d="M89.548,43.963c-0.134-0.03-0.269-0.059-0.402-0.092C89.279,43.904,89.414,43.933,89.548,43.963"/>
<path fill="#EEC643" d="M112.576,24.782c0.012,0.259,0.021,0.517,0.022,0.775C112.598,25.299,112.588,25.042,112.576,24.782"/>
<path fill="#EEC643" d="M111.603,31.647c-0.123,0.359-0.259,0.715-0.403,1.066C111.344,32.362,111.479,32.006,111.603,31.647"/>
<path fill="#EEC643" d="M112.592,26.002c-0.005,0.237-0.012,0.474-0.025,0.709C112.58,26.476,112.587,26.239,112.592,26.002"/>
<path fill="#EEC643" d="M92.285,44.378c-0.102-0.008-0.203-0.021-0.305-0.031C92.082,44.357,92.184,44.37,92.285,44.378"/>
<path fill="#EEC643" d="M90.933,44.223c-0.146-0.021-0.292-0.046-0.438-0.071C90.641,44.177,90.786,44.202,90.933,44.223"/>
<path fill="#EEC643" d="M111.937,30.558c-0.089,0.321-0.187,0.641-0.293,0.957C111.75,31.199,111.848,30.878,111.937,30.558"/>
<path fill="#EEC643" d="M112.203,29.449c-0.052,0.245-0.111,0.489-0.173,0.733C112.092,29.938,112.151,29.695,112.203,29.449"/>
<path d="M102.722,94.318L80.867,72.463c-1.308-1.307-3.425-1.307-4.731,0s-1.307,3.424,0,4.73l21.856,21.855
	c1.305,1.306,3.423,1.306,4.729,0C104.027,97.742,104.027,95.624,102.722,94.318"/>
<path fill="#0075D7" d="M112.462,27.86c-0.019,0.154-0.038,0.309-0.061,0.462C112.424,28.169,112.443,28.014,112.462,27.86"/>
<path fill="#0075D7" d="M111.199,32.714c-0.045,0.109-0.097,0.217-0.144,0.325C111.103,32.931,111.154,32.823,111.199,32.714"/>
<path fill="#0075D7" d="M110.729,33.758c-0.063,0.132-0.133,0.261-0.199,0.39C110.596,34.019,110.665,33.89,110.729,33.758"/>
<path fill="#0075D7" d="M111.645,31.513c-0.016,0.045-0.027,0.091-0.042,0.135C111.617,31.604,111.629,31.558,111.645,31.513"/>
<path fill="#0075D7" d="M112.286,29.009c-0.027,0.147-0.053,0.295-0.084,0.441C112.233,29.304,112.259,29.156,112.286,29.009"/>
<path fill="#0075D7" d="M112.031,30.178c-0.032,0.127-0.061,0.255-0.096,0.381C111.971,30.433,111.999,30.305,112.031,30.178"/>
<path fill="#0094F6" d="M107.231,38.721c-0.055,0.057-0.104,0.115-0.161,0.171C107.127,38.835,107.177,38.778,107.231,38.721"/>
<path fill="#0094F6" d="M108.152,37.703c-0.09,0.106-0.177,0.215-0.27,0.319C107.976,37.918,108.063,37.809,108.152,37.703"/>
<path fill="#0075D7" d="M112.565,26.711c-0.009,0.154-0.021,0.309-0.033,0.463C112.545,27.02,112.557,26.866,112.565,26.711"/>
<path fill="#0075D7" d="M110.191,34.778c-0.076,0.135-0.155,0.269-0.235,0.402C110.036,35.047,110.115,34.913,110.191,34.778"/>
<path fill="#0094F6" d="M106.994,38.964c-0.388,0.385-0.791,0.747-1.205,1.093C106.207,39.704,106.612,39.343,106.994,38.964"/>
<path fill="#0075D7" d="M108.911,36.745c-0.092,0.123-0.183,0.248-0.277,0.369C108.729,36.993,108.819,36.868,108.911,36.745"/>
<path fill="#0075D7" d="M109.587,35.773c-0.086,0.132-0.173,0.264-0.262,0.394C109.414,36.038,109.501,35.905,109.587,35.773"/>
<path fill="#0094F6" d="M12.237,80.338c0.401-0.402,0.823-0.777,1.254-1.138C13.06,79.561,12.638,79.936,12.237,80.338"/>
<path fill="#0094F6" d="M16.742,77.001c0.473-0.252,0.957-0.477,1.448-0.687C17.699,76.524,17.215,76.749,16.742,77.001"/>
<path fill="#0094F6" d="M18.449,76.204c0.491-0.2,0.991-0.378,1.498-0.536C19.44,75.825,18.94,76.004,18.449,76.204"/>
<path fill="#0094F6" d="M15.27,77.878c0.46-0.301,0.928-0.588,1.41-0.846C16.198,77.29,15.729,77.577,15.27,77.878"/>
<path fill="#0094F6" d="M20.251,75.578c0.521-0.152,1.048-0.289,1.584-0.396C21.299,75.289,20.772,75.426,20.251,75.578"/>
<path fill="#0094F6" d="M105.166,40.573c0.132-0.103,0.254-0.213,0.383-0.317c-2.366,1.914-5.125,3.212-8.084,3.805
	C100.26,43.512,102.914,42.32,105.166,40.573"/>
<path fill="#0075D7" d="M112.599,25.558c0,0.148-0.005,0.296-0.007,0.444C112.594,25.854,112.599,25.706,112.599,25.558"/>
<path fill="#0094F6" d="M13.721,79.007c0.418-0.339,0.849-0.658,1.29-0.959C14.57,78.349,14.139,78.668,13.721,79.007"/>
<polygon fill="#0094F6" points="31.553,75.778 31.551,75.777 33.395,76.376 "/>
<path fill="#0075D7" d="M112.56,24.4c0.009,0.128,0.011,0.254,0.017,0.382C112.57,24.654,112.568,24.528,112.56,24.4"/>
<path fill="#0094F6" d="M28.486,75.029c-0.446-0.066-0.892-0.112-1.336-0.148c1.24,0.103,2.463,0.339,3.66,0.683
	C30.046,75.341,29.273,75.146,28.486,75.029"/>
<path fill="#0094F6" d="M25.8,74.821c0.354,0.004,0.706,0.018,1.058,0.041C26.504,74.84,26.152,74.825,25.8,74.821"/>
<path fill="#0094F6" d="M23.793,74.899c0.539-0.051,1.082-0.075,1.629-0.079C24.875,74.824,24.332,74.849,23.793,74.899"/>
<path fill="#0094F6" d="M21.957,75.161c0.518-0.1,1.042-0.175,1.569-0.231C22.999,74.986,22.475,75.062,21.957,75.161"/>
<path fill="#0094F6" d="M89.146,43.871c-0.437-0.108-0.871-0.228-1.301-0.368C88.274,43.643,88.709,43.763,89.146,43.871"/>
<path fill="#0094F6" d="M90.495,44.151c-0.317-0.055-0.633-0.118-0.947-0.188C89.862,44.033,90.178,44.096,90.495,44.151"/>
<path fill="#0094F6" d="M93.637,44.431c-0.452-0.002-0.902-0.02-1.352-0.053C92.734,44.411,93.185,44.429,93.637,44.431"/>
<path fill="#0094F6" d="M91.98,44.347c-0.351-0.031-0.7-0.072-1.048-0.124C91.28,44.275,91.63,44.315,91.98,44.347"/>
<path fill="#0094F6" d="M97.04,44.147c0.117-0.02,0.233-0.049,0.351-0.071c-0.564,0.111-1.135,0.193-1.711,0.253
	C96.133,44.284,96.587,44.226,97.04,44.147"/>
<path fill="#0094F6" d="M95.402,44.352c-0.503,0.044-1.011,0.069-1.521,0.074C94.387,44.42,94.895,44.396,95.402,44.352"/>
<path fill="#0094F6" d="M21.835,75.183c0.04-0.009,0.082-0.014,0.122-0.021C21.917,75.169,21.875,75.174,21.835,75.183"/>
<path fill="#0094F6" d="M23.526,74.93c0.09-0.01,0.178-0.022,0.267-0.03C23.705,74.907,23.616,74.92,23.526,74.93"/>
<path fill="#0094F6" d="M25.574,74.813c-0.051,0-0.102,0.007-0.152,0.008c0.126-0.001,0.252-0.001,0.378,0.001
	C25.724,74.82,25.649,74.813,25.574,74.813"/>
<path fill="#0094F6" d="M107.883,38.022c-0.21,0.238-0.429,0.47-0.651,0.698C107.454,38.493,107.673,38.26,107.883,38.022"/>
<path fill="#0094F6" d="M31.445,75.743c-0.21-0.068-0.424-0.119-0.635-0.18c0.247,0.072,0.496,0.135,0.74,0.214L31.445,75.743z"/>
<path fill="#0094F6" d="M26.857,74.862c0.098,0.007,0.195,0.011,0.293,0.019C27.053,74.873,26.956,74.869,26.857,74.862"/>
<path fill="#0094F6" d="M32.971,102.724l-9.693,9.69L32.971,102.724z"/>
<path fill="#0094F6" d="M19.947,75.668c0.101-0.031,0.202-0.061,0.304-0.09C20.149,75.607,20.048,75.637,19.947,75.668"/>
<path fill="#0094F6" d="M93.715,44.434c0.056,0,0.11-0.008,0.167-0.008c-0.082,0.001-0.163,0.005-0.245,0.005
	C93.663,44.431,93.688,44.434,93.715,44.434"/>
<path fill="#0094F6" d="M15.011,78.048c0.086-0.058,0.173-0.113,0.259-0.17C15.184,77.935,15.097,77.99,15.011,78.048"/>
<path fill="#0094F6" d="M97.465,44.062c-0.025,0.005-0.05,0.01-0.074,0.015C97.415,44.072,97.439,44.066,97.465,44.062"/>
<path fill="#0094F6" d="M16.68,77.032c0.021-0.012,0.042-0.021,0.062-0.031C16.722,77.012,16.701,77.021,16.68,77.032"/>
<path fill="#0094F6" d="M18.19,76.314c0.087-0.036,0.172-0.075,0.259-0.11C18.362,76.239,18.277,76.278,18.19,76.314"/>
<path fill="#0075D7" d="M112.45,23.243c0.05,0.386,0.084,0.771,0.109,1.157C112.534,24.014,112.5,23.629,112.45,23.243"/>
<path fill="#0094F6" d="M107.053,38.91c0.006-0.006,0.012-0.013,0.018-0.019c-0.024,0.025-0.052,0.047-0.076,0.073
	C107.013,38.944,107.034,38.929,107.053,38.91"/>
<path fill="#0094F6" d="M13.491,79.2c0.076-0.064,0.152-0.13,0.229-0.193C13.642,79.07,13.567,79.136,13.491,79.2"/>
<path fill="#0075D7" d="M111.603,31.647c-0.123,0.359-0.259,0.715-0.403,1.066C111.344,32.362,111.479,32.006,111.603,31.647"/>
<path fill="#0094F6" d="M105.789,40.057c-0.08,0.067-0.16,0.134-0.24,0.199C105.629,40.19,105.709,40.124,105.789,40.057"/>
<path fill="#0075D7" d="M111.056,33.039c-0.104,0.241-0.212,0.481-0.327,0.719C110.844,33.52,110.951,33.28,111.056,33.039"/>
<path fill="#0075D7" d="M111.936,30.559c-0.088,0.321-0.186,0.639-0.291,0.954C111.75,31.198,111.848,30.879,111.936,30.559"/>
<path fill="#0094F6" d="M90.933,44.223c-0.146-0.021-0.292-0.046-0.438-0.071C90.641,44.177,90.786,44.202,90.933,44.223"/>
<path fill="#0075D7" d="M110.529,34.147c-0.109,0.212-0.221,0.423-0.338,0.631C110.309,34.57,110.42,34.359,110.529,34.147"/>
<path fill="#0075D7" d="M109.956,35.181c-0.119,0.199-0.242,0.396-0.369,0.593C109.714,35.577,109.837,35.38,109.956,35.181"/>
<path fill="#0094F6" d="M92.285,44.378c-0.102-0.008-0.203-0.021-0.305-0.031C92.082,44.357,92.184,44.37,92.285,44.378"/>
<path fill="#0075D7" d="M109.325,36.167c-0.134,0.195-0.272,0.387-0.414,0.578C109.053,36.554,109.191,36.362,109.325,36.167"/>
<path fill="#0075D7" d="M112.202,29.45c-0.051,0.244-0.11,0.486-0.171,0.728C112.092,29.936,112.151,29.694,112.202,29.45"/>
<path fill="#0094F6" d="M29.426,89.842l4.272,7.834L29.426,89.842z"/>
<path fill="#0075D7" d="M112.592,26.002c-0.005,0.237-0.013,0.474-0.026,0.709C112.579,26.476,112.587,26.239,112.592,26.002"/>
<path fill="#0094F6" d="M95.68,44.329c-0.093,0.01-0.185,0.015-0.277,0.022C95.494,44.343,95.587,44.339,95.68,44.329"/>
<path fill="#0094F6" d="M21.594,85.569l7.832,4.272L21.594,85.569z"/>
<path fill="#0075D7" d="M112.532,27.174c-0.02,0.229-0.042,0.458-0.07,0.687C112.49,27.632,112.513,27.403,112.532,27.174"/>
<path fill="#0075D7" d="M112.576,24.782c0.012,0.258,0.021,0.517,0.022,0.775C112.598,25.299,112.588,25.042,112.576,24.782"/>
<path fill="#0075D7" d="M112.401,28.322c-0.033,0.229-0.073,0.459-0.115,0.687C112.328,28.781,112.368,28.551,112.401,28.322"/>
<path fill="#0094F6" d="M108.634,37.114c-0.155,0.199-0.317,0.395-0.481,0.589C108.316,37.509,108.479,37.313,108.634,37.114"/>
<path fill="#0094F6" d="M89.548,43.963c-0.134-0.03-0.269-0.059-0.402-0.092C89.279,43.904,89.414,43.933,89.548,43.963"/>
</svg>
