<?xml version="1.0" encoding="utf-8"?>
<!-- Generator: Adobe Illustrator 16.0.0, SVG Export Plug-In . SVG Version: 6.00 Build 0)  -->
<!DOCTYPE svg PUBLIC "-//W3C//DTD SVG 1.1//EN" "http://www.w3.org/Graphics/SVG/1.1/DTD/svg11.dtd">
<svg version="1.1" id="圖層_1" xmlns="http://www.w3.org/2000/svg" xmlns:xlink="http://www.w3.org/1999/xlink" x="0px" y="0px"
	 width="39.2px" height="22.599px" viewBox="0 0 39.2 22.599" enable-background="new 0 0 39.2 22.599" xml:space="preserve">
<path d="M27.73,17.871l-3.808-3.959c0.979-1.164,1.516-2.629,1.516-4.153c0-3.562-2.897-6.46-6.46-6.46
	c-3.562,0-6.459,2.898-6.459,6.46c0,3.563,2.897,6.46,6.459,6.46c1.337,0,2.611-0.402,3.701-1.169l3.836,3.991
	c0.161,0.166,0.377,0.258,0.609,0.258c0.218,0,0.425-0.083,0.583-0.235C28.042,18.742,28.053,18.207,27.73,17.871 M18.979,4.984
	c2.634,0,4.775,2.143,4.775,4.774c0,2.633-2.142,4.774-4.775,4.774c-2.633,0-4.774-2.142-4.774-4.774
	C14.204,7.127,16.346,4.984,18.979,4.984"/>
<path d="M21.293,8.93H19.82V7.458c0-0.463-0.379-0.842-0.842-0.842s-0.842,0.379-0.842,0.842V8.93h-1.473
	c-0.463,0-0.842,0.379-0.842,0.842s0.379,0.842,0.842,0.842h1.473v1.473c0,0.463,0.379,0.842,0.842,0.842s0.842-0.379,0.842-0.842
	v-1.473h1.473c0.464,0,0.842-0.379,0.842-0.842S21.757,8.93,21.293,8.93z"/>
</svg>
