<?xml version="1.0" encoding="utf-8"?>
<!-- Generator: Adobe Illustrator 16.0.0, SVG Export Plug-In . SVG Version: 6.00 Build 0)  -->
<!DOCTYPE svg PUBLIC "-//W3C//DTD SVG 1.1//EN" "http://www.w3.org/Graphics/SVG/1.1/DTD/svg11.dtd">
<svg version="1.1" id="圖層_1" xmlns="http://www.w3.org/2000/svg" xmlns:xlink="http://www.w3.org/1999/xlink" x="0px" y="0px"
	 width="115.178px" height="115.178px" viewBox="0 0 115.178 115.178" enable-background="new 0 0 115.178 115.178"
	 xml:space="preserve">
<path d="M99.793,0.001H15.385C6.902,0.001,0,6.902,0,15.385v84.409c0,8.483,6.902,15.385,15.385,15.385h84.408
	c8.483,0,15.385-6.901,15.385-15.385V15.385C115.178,6.902,108.276,0.001,99.793,0.001z M6.816,15.385
	c0-4.725,3.843-8.569,8.569-8.569h84.408c4.726,0,8.57,3.844,8.57,8.569v84.409c0,4.726-3.845,8.569-8.57,8.569H15.385
	c-4.726,0-8.569-3.844-8.569-8.569V15.385z"/>
<path d="M100.689,60.998c1.879,0,3.408-1.529,3.408-3.408s-1.529-3.408-3.408-3.408H88.088V33.907h12.602
	c1.879,0,3.408-1.53,3.408-3.409c0-1.879-1.529-3.408-3.408-3.408H88.088V14.489c0-1.879-1.529-3.409-3.408-3.409
	s-3.408,1.53-3.408,3.409V27.09H60.997V14.489c0-1.879-1.529-3.409-3.408-3.409s-3.408,1.53-3.408,3.409V27.09H33.906V14.489
	c0-1.879-1.529-3.409-3.408-3.409s-3.408,1.53-3.408,3.409V27.09H14.488c-1.879,0-3.408,1.529-3.408,3.408
	c0,1.879,1.529,3.409,3.408,3.409h39.693v47.365h-7.584c-1.879,0-3.408,1.529-3.408,3.408s1.529,3.408,3.408,3.408h7.584v12.602
	c0,1.879,1.529,3.408,3.408,3.408s3.408-1.529,3.408-3.408V88.088h20.274v12.602c0,1.879,1.529,3.408,3.408,3.408
	s3.408-1.529,3.408-3.408V88.088h12.602c1.879,0,3.408-1.529,3.408-3.408s-1.529-3.408-3.408-3.408H88.088V60.998H100.689z
	 M81.271,60.998v20.273H60.997V60.998H81.271z M81.271,33.907v20.274H60.997V33.907H81.271z"/>
</svg>
