<?xml version="1.0" encoding="utf-8"?>
<!-- Generator: Adobe Illustrator 16.0.0, SVG Export Plug-In . SVG Version: 6.00 Build 0)  -->
<!DOCTYPE svg PUBLIC "-//W3C//DTD SVG 1.1//EN" "http://www.w3.org/Graphics/SVG/1.1/DTD/svg11.dtd">
<svg version="1.1" id="圖層_1" xmlns="http://www.w3.org/2000/svg" xmlns:xlink="http://www.w3.org/1999/xlink" x="0px" y="0px"
	 width="115.178px" height="115.178px" viewBox="0 0 115.178 115.178" enable-background="new 0 0 115.178 115.178"
	 xml:space="preserve">
<path d="M30.497,40.054c-9.722,0.003-17.609,7.842-17.958,17.847C12.056,71.794,27.503,86.515,28.16,87.136
	c0.635,0.599,1.465,0.928,2.338,0.928s1.703-0.329,2.337-0.927c0.657-0.619,16.106-15.32,15.622-29.237
	C48.109,47.896,40.221,40.057,30.497,40.054z M41.645,58.139c0.28,8.023-7.194,17.295-11.147,21.618
	c-3.953-4.322-11.427-13.595-11.147-21.618c0.22-6.317,5.117-11.266,11.147-11.269C36.529,46.873,41.426,51.822,41.645,58.139z"/>
<path d="M30.498,52.496c-3.041,0-5.515,2.474-5.515,5.515c0,3.042,2.474,5.515,5.515,5.515s5.516-2.474,5.516-5.515
	C36.014,54.97,33.539,52.496,30.498,52.496z"/>
</svg>
