<?xml version="1.0" encoding="utf-8"?>
<!-- Generator: Adobe Illustrator 16.0.0, SVG Export Plug-In . SVG Version: 6.00 Build 0)  -->
<!DOCTYPE svg PUBLIC "-//W3C//DTD SVG 1.1//EN" "http://www.w3.org/Graphics/SVG/1.1/DTD/svg11.dtd">
<svg version="1.1" id="圖層_1" xmlns="http://www.w3.org/2000/svg" xmlns:xlink="http://www.w3.org/1999/xlink" x="0px" y="0px"
	 width="78.199px" height="78.199px" viewBox="0 0 78.199 78.199" enable-background="new 0 0 78.199 78.199" xml:space="preserve">
<path d="M31.977,47.668c5.867-3.039,11.683-6.055,17.55-9.098c-5.887-3.074-11.699-6.105-17.55-9.16V47.668z"/>
<path d="M39.103,0C17.508,0,0,17.504,0,39.102c0,21.594,17.508,39.098,39.103,39.098c21.593,0,39.097-17.504,39.097-39.098
	C78.199,17.504,60.695,0,39.103,0 M65.742,52.152c-0.681,2.935-3.078,5.103-5.969,5.422C52.926,58.34,46,58.344,39.099,58.34
	c-6.899,0.004-13.829,0-20.676-0.766c-2.891-0.319-5.289-2.487-5.965-5.422c-0.965-4.184-0.965-8.746-0.965-13.051
	c0-4.304,0.012-8.871,0.977-13.054c0.672-2.935,3.074-5.103,5.965-5.422c6.847-0.766,13.777-0.77,20.675-0.766
	c6.898-0.004,13.828,0,20.672,0.766c2.895,0.319,5.293,2.487,5.969,5.422c0.965,4.183,0.957,8.75,0.957,13.054
	C66.707,43.406,66.703,47.969,65.742,52.152"/>
</svg>
